<?xml version="1.0" encoding="utf-8"?>
<!-- Generator: Adobe Illustrator 19.0.0, SVG Export Plug-In . SVG Version: 6.00 Build 0)  -->
<svg version="1.1" id="SELENE" xmlns="http://www.w3.org/2000/svg" xmlns:xlink="http://www.w3.org/1999/xlink" x="0px" y="0px"
	 viewBox="0 0 779.1 453.8" style="enable-background:new 0 0 779.1 453.8;" xml:space="preserve">
<style type="text/css">
	.st0{clip-path:url(#SELENE_LOGO_1_);fill:url(#colorbase_1_);stroke:#040000;stroke-miterlimit:10;}
</style>
<g>
	<defs>
		<path id="SELENE_LOGO" d="M288.5,89.1c-3.2,2.2-13.4,7.4-13.6,11.2c-0.2,3.8,4,9.9,0,15.5c-3.6,5.1-11.7,7.2-11.1,10.7
			c0.6,3.5-5.3,1.6-5.7,4.9c-0.3,2.1-2.7,0.9-3.8,3.4c-1.1,2.5,1.6,7-2.1,7.8c-5.8,1.2-0.3,6.3-2.7,10.3c-2.5,4-7.5,1.5-9.8,3.8
			c-2,2,0.6,6.3-2.7,8.6c-4.3,2.9-6.7-1.1-10.1,2.1c-3,2.9,0.1,9.5-8.6,6.8c-6.4-2-14.1-11.8-33.1-19.6c-6.9-2.8-14.4-5.8-21.3-8.7
			c13.3,6.7,27.2,14.5,33,19c10.5,8.1,17.5,16.7,18.2,18.8s-0.1,3.3-0.9,4.6c-0.8,1.3-3.1,5,0.4,8s6.4,7.1,2.9,8.9
			c-3.5,1.8-3.8,3.2-6.2,5.5s-2.9,5.5-1.1,10.1c1.8,4.6,2.8,10-2.4,8.2c-5.2-1.8-4.3-4.5-8.1-1.6c-3.8,2.9-5,17.4-7.5,19.1
			s-4.3-0.7-8-1c-3.8-0.3-8.4,6.2-10.4,9.4c-2,3.2-4.2,17-3.1,25.9c1,8.9,4.3,15.6,3.4,19.5s-3.6,9.5-9.5,8.2
			c-5.9-1.2-6.9-6.5-6.2-11.5c0.7-5,4.7-8.4,5.8-16.4c1.1-8,3.3-15.8-0.9-19.2c-4.2-3.3-5.4-3.7-9.5-2.5s-4.6,0.8-8.1-2.1
			c-3.5-2.9-6.6,0-10.5,0.9c-3.8,1-8.4,0.2-8.7-4.5c-0.3-4.7,7-12,2.3-13.1c-4.7-1-3.7,2-7.2,0.4c-3.5-1.5-5.7-4.8-2.7-10.3
			c3-5.6,8.7-25.7,9-31.3c0.3-5.6,4.3-20.5,4.4-34.6s-2.5-15.5-3.5-20.1c0-0.2-0.1-0.5-0.1-0.7c0,0-0.1,0.1-0.1,0.1
			c0,6.6-2.6,20-6.9,35.1c-6.1,21-13.3,37.4-16.2,36.5s-0.3-18.5,5.8-39.5c4.4-15.1,9.3-27.8,12.8-33.4c0,0,0-0.1,0-0.1
			c-0.1,0.2-0.3,0.4-0.4,0.6c-3.2,3.3-6.2,3.2-13.6,15.1c-7.4,12-12,26.8-14.7,31.7c-2.7,4.9-8.6,24.9-9,31.3s-3.9,7.9-7.7,7.3
			c-3.8-0.6-1.4-2.6-5.9-4.2c-4.5-1.6-2.2,8.5-5,12.3c-2.8,3.8-7,2-9.8-0.9s-3.8-7-8.4-6.4c-4.6,0.6-5.2,0.6-8-2.5
			c-2.8-3.1-4.1-3.5-9.4-2.9c-5.3,0.6-7.7,8.4-11,15.7c-3.3,7.4-1.7,12.4-3.8,16.9c-2,4.6-5.7,8.5-11.4,6.4c-5.6-2.1-5-8.2-3.7-12
			s7.7-7.7,13.3-14.7c5.6-6.9,11.1-19.8,11.1-23.6s-0.5-11.7-3.8-13.5c-3.3-1.8-6.2-0.6-7.3-3.4c-1.2-2.8,5.5-15.7,3.8-20.2
			c-1.7-4.5-2.3-1.7-7.7-3c-5.4-1.3-1.6-5.3,2.3-8.2c3.9-2.9,5.3-5.8,4.4-9.1s-0.3-4.6-2.3-8c-2-3.4,2.7-5.3,7.2-6s4.6-5,4.6-6.6
			c0-1.6,0-3,1.7-4.4s12.2-4.9,25.4-6.2c7.4-0.7,23.2,0.1,38.1,1.5c-7.4-1.3-15.3-2.7-22.6-4c-20.2-3.6-32,0.6-38.5-1.1
			c-8.8-2.3-2.7-6.3-3.7-10.4c-1.1-4.5-5.4-2.4-7.4-7.2c-1.6-3.7,2.8-5.9,2.2-8.7c-0.6-3.1-6.2-3.8-6.2-8.4s7.4-6.1,3.2-10.2
			c-2.7-2.6,2-5,2.4-7.7c0.4-2.7-2.3-3-1.4-4.9c1.4-2.9-4.6-4.5-2.2-7.1c2.4-2.7-3.4-8.7-3.7-14.9c-0.4-6.8,6.3-9.8,8.2-13.1
			c1.9-3.3-4-13.2-5.5-16.7s-1-9.5,6.1-10.9c7.1-1.4,37.5,9.2,54.4,23.2c18.6,15.4,31.5,43,36.5,54.2c5.3,11.8,11.7,29.1,13.9,37.1
			c2.1-4.4,4.4-7.6,6.5-8.6c2.3-10.1,3-29.3,0.6-41.4c-3-15.2-8-25-15.1-28.8c-0.6,0.5-2.2,0.6-4,0.1c-2.1-0.6-3.6-1.7-3.3-2.6
			c0.2-0.8,2.2-1.3,4.3-0.7c2,0.6,3.3,2,3.2,2.8c7.4,4,13.2,13.5,16.3,29c2.3,11.9,2,30.9-0.2,41.3c0,0,0.1,0,0.1,0c0,0,0.1,0,0.1,0
			c3.7-9.9,13.5-26.2,21.8-35c10.8-11.5,20.9-16.5,29.3-15.9c0.4-0.8,2.2-1.2,4.2-0.6c2.1,0.6,3.5,2.1,3.2,2.9
			c-0.2,0.8-2.1,1-4.2,0.4c-1.8-0.5-3.1-1.4-3.3-2.2c-8-0.5-17.5,5.1-28.1,16.3c-8.5,9-18.1,25.6-21.5,35.4c1.2,2,1.5,5.9,0.9,10.7
			c6.1-5.6,20.7-16.8,31.5-24c10.2-6.8,35.8-23.3,59.7-26.5c21.7-2.8,53.2,4.3,58.4,9.3S291.7,87,288.5,89.1z M497.5,300.4
			c-3.4,0.8-4.4-0.4-5.4-3c-0.9,0.2-1.9,0.3-2.9,0.2c3,4.3,4.4,5,6,6.1c2.8,1.8,6.8,2,7.3,0.8C503.1,303.3,499.5,300,497.5,300.4z
			 M442.4,226.3c-3.3-5.3-10.2-24.3-3.8-37.3c5.4-11.1,7.1-37,5.8-42.1c-0.9-3.6,9.3,3,10.3,4.7c0.7,1.2-0.1,6.4,4.4,9.9
			c4.1,3.2,0.7,3.5,3.5,5.6c2.5,1.9,0.4,7.2,2,7.4c2.9,0.3,2.6,2.4,3.9,3s3.4,0.1,3.7,2c0.5,2.9,3.2,0.2,5.2,1.6
			c0.5,0.3,0.7,1,0.7,1.7c-8.6,7.4-14.4,16.4-17.2,20.4c-5.9,8.5-9.8,21.2-10.5,28.2c-0.2,2.2-0.3,4.2-0.3,6
			C447.4,233.9,444.4,229.6,442.4,226.3z M553.1,151.3c-4.7,5-35.1,21.3-51.4,23c-19.1,2-35.7,23.1-39.3,30.5
			c-4.1,8.5-9.9,23.2-10.9,26.9c-0.7,2.7-0.6,6.4-0.5,8.8c0,0-0.1-0.1-0.1-0.1c-0.8-1.1-1.7-2.5-2.9-2.1c-3.4-3.9-13-17.8-15.5-29
			c-2.5-11.1-3.4-21.4-3.5-22.5c0.8-0.5,1.7-2.1,1.6-4.1c-0.1-2.3-1.2-4.2-2.4-4.1c-1.2,0-2.2,2-2.1,4.3c0.1,2,1.3,3.6,2.1,4
			c0.1,1.6,0.9,12,3.4,22.8c2.2,10,10,22,14.1,27.4c-4.6-4.7-13.7-15.9-17.1-25.6c-3.4-9.8-6.4-22.2-7.3-25.7
			c0.7-0.7,1.4-2.3,1.1-4.2c-0.3-2.3-1.6-4-2.8-3.8c-1.2,0.2-1.9,2.2-1.6,4.5c0.3,2,1.7,3.5,2.5,3.8c0.9,3.7,3.8,16.3,7.1,25.9
			c3.7,10.8,15.1,23.9,19,27.6c-0.3,1.1,0.1,2.4,1.1,2.8c1,0.3,1.9,1,2.7,1.2c0.1,1.6,4.4,5,4.6,7.1c0.4,3.8,0.9,7.3,2.1,8.9
			c1.1,1.5,2.6,2.3,3.8,2.5c-1.5,1.9-0.8,9.1,4,16.1c4,5.8,11.1,9.5,14.7,10c2.5,2,4.6,3.8,5.3,5.2c2.4,4.5,6.8,3,9.9,2
			c3.1-1,3.4,2.5,6,3.1c3.4,0.8,1.9,5.9,5,6.4c3.1,0.5,1.2,3.9,3.1,1.8c2-2,2.8-2.3,6.4-1.7s5.9,4.2,10.9,6.5
			c7.3,3.4,9.7,3.2,12.2,3.3c4.2,0.2,9-2.4,8.9-4.2c-0.2-1.8-6.3-2.8-8.5-1.1c-4.2,3.2-6,2.3-11.4-0.4c-5.3-2.7-8.3-8.9-8.2-11.5
			c0.1-2.6,0.6-7.9,2.9-9c2.3-1.1,4.2-0.3,5-2.2c0.9-1.9-3.4-10.7-2.1-13.7c1.2-3,1.6-1.1,5.3-1.8c3.7-0.7,1.2-3.5-1.4-5.6
			c-2.6-2.1-3.4-4.1-2.8-6.3c0.6-2.2,0.3-3.1,1.7-5.3c1.4-2.2-1.7-3.6-4.8-4.2c-3.1-0.6-3-3.5-3-4.6c0-1.1,0-2-1.1-3
			c-1.1-1-8.1-3.6-17-4.8c-4.3-0.6-13-0.5-21.8-0.1c3.6-0.5,7.3-1,10.8-1.5c13.7-1.9,23.5,4.2,27.9,3.2c6-1.4,2.3-6,3.1-8.7
			c0.9-3,5.4-1,6.9-4.1c1.2-2.5-1.5-5.7-1.1-7.5c0.5-2.1,9.5-2.8,9.6-6c0.1-3.2-4.9-4.3-1.9-6.9c1.9-1.7-0.1-3.8-0.3-5.6
			c-0.2-1.8,2.3-2.9,0.6-6.4c-0.9-2,6.6-3.3,6.9-7.5c0.4-4.6,3.2-1.1,3.9-7.9c0.8-7.6,7.1-10.3,8-11.9
			C556.2,163.9,556.4,147.7,553.1,151.3z M462.8,261.5c2.4-2.3-0.6-5.4-2.9-10.8c-0.1-0.3-0.3-0.7-0.5-1c1.6,0.2,3.6,0,7,5.9
			c4,7,0.8,13.4,1.2,18.3C464.2,267.8,465,261.9,462.8,261.5z M365.3,116.9l0.4,47.4l14.5-19.9c-0.8-0.7-1.4-1.4-1.8-2.2l-11.8-23.9
			C366.3,117.5,365.8,117.1,365.3,116.9z M364.9,197c0.6,0,1,0.1,1.2,0.2l6.1,3.2l-5.5,11.1c-1,2-2.6,2-3.5,0l-5.5-11.1l6.1-3.2
			C363.9,197.1,364.3,197,364.9,197z M335.6,182l-16.4-2.4c-2.2-0.3-2.7-1.8-1.1-3.4l9.4-9.1l8.2,8c0.4,0.4,0.8,1.6,0.7,2.2
			L335.6,182z M334.8,206.3c0-0.3-0.1-0.7,0-1.1l4.5-26.3c0.1-0.5,0.1-1,0-1.5l22.4-7.6L334.8,206.3z M410.6,150.2
			c0.7,0.1,1.1,0.3,1.5,0.6l-45.3,14.7l14.7-20.2c0.9,0.6,1.9,1,2.8,1.1L410.6,150.2z M367.9,167.4l44.7-15.2
			c-0.1,0.4-0.4,0.9-0.9,1.4l-19.1,18.6c-0.7,0.7-1.3,1.6-1.7,2.7L367.9,167.4z M337.7,207.3c-0.4,0.2-0.9,0.4-1.2,0.4l27.4-38.3
			l-0.2,24.8c-0.9,0.1-1.7,0.3-2.4,0.7L337.7,207.3z M394.9,124.6l-3.4,19.6l-7.9-1.1c-0.6-0.1-1.6-0.8-1.9-1.4l-5.4-10.9l15.6-8.2
			C394,121.5,395.3,122.5,394.9,124.6z M410.6,179.6l-16.4,2.4l-0.8-4.6c-0.1-0.6,0.3-1.8,0.7-2.2l8.2-8l9.4,9.1
			C413.2,177.8,412.7,179.3,410.6,179.6z M365.8,169.3l27.4,38.3c-0.4,0-0.8-0.2-1.2-0.4l-23.6-12.4c-0.7-0.4-1.5-0.6-2.4-0.7
			L365.8,169.3z M364.4,116.9l-0.4,47.4l-14.5-19.9c0.8-0.7,1.4-1.4,1.8-2.2l11.8-23.9C363.4,117.5,363.9,117.1,364.4,116.9z
			 M394.9,206.3l-27-36.5l22.4,7.6c0,0.5,0,1,0,1.5l4.5,26.3C395,205.6,394.9,206,394.9,206.3z M317.2,152.2l44.7,15.2l-23.1,7.5
			c-0.4-1-1-2-1.7-2.7L318,153.6C317.5,153.1,317.3,152.6,317.2,152.2z M337.7,122.6l15.6,8.2l-5.4,10.9c-0.3,0.5-1.3,1.3-1.9,1.4
			l-7.9,1.1l-3.4-19.6C334.5,122.5,335.8,121.5,337.7,122.6z M319.1,150.2l26.4-3.8c0.9-0.1,1.9-0.5,2.8-1.1l14.7,20.2l-45.3-14.7
			C318,150.5,318.5,150.3,319.1,150.2z M429.1,373.2c-0.7-9.2-4.3-25.2-13.4-33.3c-6.2-5.7-15.1-10.2-25.1-10.2
			c-12,0-23.3,3.8-31.9,13.2c-8.4,9.1-12.5,19.9-12.5,32.4c0,13.6,4.1,24.7,12.4,33.2c8.2,8.6,18.9,12.8,31.9,12.8c0.5,0,1,0,1.5,0
			c-20.6,7.4-42.9,11.2-66,10.9c-22.8-0.3-44.8-4.1-65.5-10.8c0.1,0,0.2,0,0.4,0c23.4,0,42.1-5.3,56.2-16
			c14.1-10.7,21.1-24.8,21.1-42.4c0-7.1-1.3-13.7-3.9-19.8c-2.6-6.1-6.5-11.3-11.5-15.8c-7.2-6.4-19-13-35.5-19.8
			c-3.9-1.6-6.8-2.8-8.7-3.7c-17.9-7.7-30.4-15-37.4-21.8c-7.1-6.8-10.6-14.5-10.6-23.3c0-9.4,3.9-17.1,11.6-23.1
			c7.7-6.1,17.7-9.1,29.9-9.1c11.6,0,21,3.4,28.3,10.1c7.3,6.7,13.4,17.8,18.5,33.1l4.5-1.1l-0.3-43.8c-7.2-2.3-13.5-3.6-21.1-4.8
			c-7.6-1.2-15.4-1.8-23.3-1.8c-22.4,0-40,4.7-52.8,14c-12.8,9.4-19.2,22.2-19.2,38.5c0,11.4,3.6,21,10.8,28.8
			c7.2,7.8,20.9,16.3,41.3,25.4c1.9,0.8,5,2.1,9.3,4c16,6.6,27.2,13.1,33.8,19.4c3.6,3.7,6.4,7.8,8.3,12.3c1.9,4.5,2.8,9.4,2.8,14.6
			c0,11.5-4,20.7-12,27.6c-8,6.9-18.7,10.3-32.1,10.3c-14.3,0-26.7-4.4-37.2-13.2c-10.6-8.8-19-21.8-25.3-39l-5.8,0.6l4.6,32.7
			c-43.8-30.1-74.6-75.6-81.9-127.5c-4.2-2.5-6.9-6.9-7.3-12.2c-0.1-1.5,0-2.9,0.3-4.2c-4.1-2.1-7.1-5.5-8.5-9.5
			c-1.1-3.2-1.7-8.4,1.8-14.9c-1.1,0.4-2.3,0.6-3.6,0.6c-1.1,0-2.1-0.2-3.2-0.4c-1.6-0.5-3.9-1.5-5.7-3.7
			c-0.9,11.8-9.1,17.1-16.9,17.1c-0.6,0-1.1,0-1.7-0.1c-0.5,1.3-1.1,2.5-2,3.7c-3,4.1-7.6,6.5-12.5,6.5c-0.7,0-1.5-0.1-2.2-0.2
			c3.9,112.1,106.2,202.9,227.9,204.6c48.8,0.7,93.9-15.3,130-42.7c3.5-2.3,6.9-5,9.8-7.9l-0.5-0.2c-5.5,3.5-12.7,5.5-17.1,6.6
			c-4.4,1.1-9.4,2.1-13.5,2.1c-9.9,0-18.2-3.5-24.7-10.5c-6.5-7-6.1-10.7-6.9-15c-0.3-1.9-0.8-9.7-0.4-12.5L429.1,373.2z
			 M373.3,346.9c3.3-4.3,9-9.4,18.9-9.4c8.6,0,13.7,4.9,16.3,8c3.9,4.6,7.5,13.4,8.1,20.2h-50.2
			C367.4,358.7,369.5,351.8,373.3,346.9z M165.1,84.9c-1.3,0.9-2.8,1.9-4.2,2.9c2.3-3.4,4.7-6.5,6.9-8.9c8.4-8.9,14-11.8,17.1-12.7
			c1.1,0.6,2.3,1.1,3.6,1.4c1.6,0.5,3.3,0.7,4.9,0.8C184.5,72.8,175,78.3,165.1,84.9z M688,418.1l0.1,3.6h-46l0.1-3.6
			c5.6-0.2,9.4-1.3,11.3-3.2c1.9-1.9,2.8-6.4,2.8-13.5v-28.5c0-11.4-1.7-19.5-5.1-24.3c-3.4-4.8-9.1-7.1-17-7.1
			c-4.5,0-8.6,0.8-12.5,2.5c-3.9,1.6-7.5,4.1-10.9,7.4v50c0,7.1,1,11.6,2.9,13.5c1.9,1.9,5.7,3,11.3,3.2v3.6h-46.1v-3.6
			c5.7-0.2,9.5-1.3,11.5-3.3c2-2,2.9-6.4,2.9-13.4v-61.3l-8.3-5.8v-2h20.6l4,2v8.8c5.9-3.4,11.3-5.8,16.4-7.4s10.1-2.3,15-2.3
			c11.3,0,19.6,2.7,24.9,8c5.3,5.3,8,13.7,8,25.1v35c0,7.1,0.9,11.6,2.8,13.5C678.6,416.8,682.4,417.9,688,418.1z M761.6,409.6
			c-4.4,1.1-9.4,2.1-13.5,2.1c-9.9,0-18.2-3.5-24.7-10.5c-6.5-7-6.1-10.7-6.9-15c-0.3-1.9-0.8-9.7-0.4-12.5l63.1-0.4
			c-0.7-9.2-4.3-25.2-13.4-33.3c-6.2-5.7-14.8-10.2-25.1-10.2c-12.5,0-23.3,3.8-32,13.2c-8.4,9.1-12.5,19.9-12.5,32.4
			c0,13.6,4.1,24.7,12.4,33.2c8.2,8.6,18.9,12.8,31.9,12.8c7.3,0,14-1.6,20.1-4.6c6.2-3,13.2-8.1,18.5-13.5l-2.1-2.2
			C771.6,404.6,766,408.6,761.6,409.6z M723.3,346.9c3.3-4.3,9-9.4,18.9-9.4c8.6,0,13.7,4.9,16.3,8c3.9,4.6,7.5,13.4,8.1,20.2h-50.2
			C717.4,358.7,719.5,351.8,723.3,346.9z M202.3,47.8C202.3,47.8,202.3,47.8,202.3,47.8c3.6,3.4,5,8,3.7,12.3
			c-0.4,1.2-1,2.5-1.9,3.7c9-3.6,17.5-6,25.3-7c3.7-0.5,7.8-0.7,12.2-0.7c10.3,0,22.7,1.5,33.4,4c17.6-3.9,36.4-5.9,56.1-5.6
			c11.4,0.2,22.5,1.3,33.3,3.4v27.1h-1v4.9c-2.5,0.7-4.4,3.1-4.4,5.8c0,3.1,2.4,5.7,5.4,6v4.3c-2.7,0.3-4.8,2.6-4.8,5.5
			c0,3,2.5,5.5,5.5,5.5s5.5-2.5,5.5-5.5c0-2.8-2.1-5.1-4.8-5.5v-4.3c3-0.3,5.4-2.9,5.4-6c0-2.8-1.8-5.1-4.4-5.8v-4.9h-1V58
			c23.1,4.6,44.6,13.4,63.8,25.6c-36.1-31.1-83-50.2-134.4-50.9C261.5,32.2,230.2,37.6,202.3,47.8z M368.4,111.4
			c0,1.8-1.5,3.3-3.3,3.3s-3.3-1.5-3.3-3.3s1.5-3.3,3.3-3.3S368.4,109.6,368.4,111.4z M481.6,417.5l0.1,3.6h-46.1v-3.6
			c5.7-0.2,9.5-1.3,11.4-3.3c1.9-2,2.9-6.4,2.9-13.4V287.3l-9.1-5.2v-3.1l26.7-0.1v121.9c0,7.1,1,11.6,2.9,13.5
			C472.3,416.2,476,417.3,481.6,417.5z M570.7,373.2c-0.7-9.2-4.3-25.2-13.4-33.3c-6.2-5.7-14.8-10.2-25.1-10.2
			c-12.5,0-23.3,3.8-32,13.2c-8.4,9.1-12.5,19.9-12.5,32.4c0,13.6,4.1,24.7,12.4,33.2c8.2,8.6,18.9,12.8,31.9,12.8
			c7.3,0,14-1.6,20.1-4.6c6.2-3,13.2-8.1,18.5-13.5l-2.1-2.2c-5.5,3.5-11.1,7.5-15.5,8.6c-4.4,1.1-9.4,2.1-13.5,2.1
			c-9.9,0-18.2-3.5-24.7-10.5c-6.5-7-6.1-10.7-6.9-15c-0.3-1.9-0.8-9.7-0.4-12.5L570.7,373.2z M514.8,346.9c3.3-4.3,9-9.4,18.9-9.4
			c8.6,0,13.7,4.9,16.3,8c3.9,4.6,7.5,13.4,8.1,20.2h-50.2C509,358.7,511,351.8,514.8,346.9z"/>
	</defs>
	<clipPath id="SELENE_LOGO_1_">
		<use xlink:href="#SELENE_LOGO"  style="overflow:visible;"/>
	</clipPath>
	<linearGradient id="colorbase_1_" gradientUnits="userSpaceOnUse" x1="391.4981" y1="461.0201" x2="391.4981" y2="-12.9562">
		<stop  offset="0" style="stop-color:#C796C2"/>
		<stop  offset="1" style="stop-color:#EF90B9"/>
	</linearGradient>
	<rect id="colorbase" x="-8.5" y="-13" class="st0" width="799.9" height="474"/>
</g>
</svg>
