<svg xmlns="http://www.w3.org/2000/svg" viewBox="0 0 200.7 151.3"><path fill="#FFF" d="M171.5 91.3c.5 35-30.3 58-68.8 58.6-38.5.6-70-21.1-70.5-56.1s30.2-66.3 68.6-66.9c38.5-.6 70.1 29.4 70.7 64.4z"/><path fill="#FFF" d="M121.9 30.2s22.2-29 33.5-28.8c11.3.2 10.4 52 4.7 60S121.6 34 121.9 30.2"/><path fill="#231815" d="M157.7 64c-.9 0-2-.2-3.3-.7-7.1-2.7-17.2-12.5-21.2-16.6-1.3-1.4-12.9-13.3-12.6-16.6v-.4l.2-.3c.1-.1 5.7-7.4 12.6-14.6 9.5-9.9 17-14.8 22-14.7 2.4.1 4.3 1.7 5.9 4.8 2.9 5.7 4.5 17.2 4.2 30.8-.1 9.7-1.4 22.5-4.4 26.7-.5.7-1.6 1.6-3.4 1.6zm-34.3-33.5c1.8 4.4 23.3 28.3 33.1 30.5 1.8.4 2.2-.2 2.4-.4 4.3-6 6-42.3-.1-54.5-1.1-2.1-2.2-3.2-3.4-3.2h-.2c-8.5.1-25.4 19.5-31.8 27.6z"/><path fill="#6AAFDF" d="M156.7 52.4s4.7-29.8 1.6-36.6c-3.1-6.8-22.7 18.4-22.7 19.3 0 .8 11.2 5.1 21.1 17.3"/><path fill="#231815" d="M157.3 54.9l-1.5-1.9c-7-8.7-14.8-13.3-18.5-15.5-2.1-1.3-2.8-1.6-2.8-2.5 0-1.8 15-20.1 21.1-21.4 1.7-.4 3 .2 3.6 1.7 3.2 7-1.4 36-1.6 37.2l-.3 2.4zM137 34.8c.4.2.9.6 1.5.9 3.6 2.1 10.7 6.4 17.5 14.2 1.4-9.5 3.6-28.7 1.4-33.7-.2-.5-.4-.5-.8-.5-4.6.1-17.3 15.7-19.6 19.1z"/><path fill="#FFF" d="M80.5 30.9S57.4 2.5 46.2 3.1c-11.3.6-8.8 52.3-2.9 60.1 6 7.8 37.7-28.6 37.2-32.3"/><path fill="#231815" d="M45.8 65.7c-1.8 0-3-.8-3.6-1.7-3.2-4.1-4.8-16.8-5.2-26.5-.6-13.5.6-25.1 3.3-30.9 1.5-3.2 3.4-4.8 5.8-5h.3c5.1-.1 12.5 4.7 22.2 14.1 7.2 7 13 14.2 13.1 14.3l.3.3.1.4c.5 4.2-21.9 29.7-32.8 34.2-1.5.6-2.6.8-3.5.8zm.6-61.2h-.2c-1.2.1-2.3 1.2-3.3 3.3-5.7 12.4-3 48.6 1.5 54.5.2.2.6.8 2.4.4 9.7-2.5 30.4-26.9 32.1-31.4-6.5-8-23.9-26.9-32.5-26.8z"/><path fill="#6AAFDF" d="M45.7 54.5s-5.2-28.9-2.3-35.8 22.7 17 22.7 17.9c0 .9-10.4 3.7-20.4 17.9"/><path fill="#231815" d="M45.1 57.2l-.5-2.5c-.2-1.2-5.2-29.3-2.3-36.4.6-1.5 2-2.2 3.6-1.8 5.9 1.1 21.1 18 21.1 20.1 0 .9-.6 1.2-2.2 2.1-3.3 1.8-10.9 5.9-18.3 16.5l-1.4 2zm.1-38.7c-.4 0-.6.1-.8.6-2.1 4.9.4 23.4 2 32.7 7.2-9.4 14.4-13.3 17.5-15.1.3-.1.6-.3.8-.4-2.5-3.4-15.1-17.8-19.5-17.8z"/><path fill="#FFF" d="M171.5 91.3c.5 35-30.3 58-68.8 58.6-38.5.6-70-21.1-70.5-56.1s30.2-66.3 68.6-66.9c38.5-.6 70.1 29.4 70.7 64.4z"/><path fill="#231815" d="M102.7 151.3c-19.4.3-37.3-5-50.4-15C38.5 125.7 31 111 30.8 93.8c-.5-36.5 31.5-67.8 70-68.4s71.5 29.6 72.1 65.8c.5 34.2-29 59.5-70.2 60.1zm-1.8-123c-37 .6-67.8 30.5-67.2 65.5.2 16.3 7.3 30.2 20.4 40.2 12.6 9.6 29.8 14.7 48.6 14.4 39.5-.6 67.8-24.6 67.4-57.1-.6-34.7-32.3-63.6-69.2-63z"/><path fill="#231815" d="M106 96c0 .9-1.7 1.7-3.8 1.7-2.1.1-3.9-.6-3.9-1.5s1.7-1.7 3.8-1.7c2.1-.1 3.8.6 3.9 1.5"/><path fill="#0C368E" d="M33.5 80.8c-1.1-.3 61.8.6 74-53.7 0 0-20.9-3.2-42.7 10.2-26.6 16.3-31.2 42.3-31.3 43.5"/><path fill="#231815" d="M34.4 82.2l-2.1-.6.1-.9c0-.1 0-.2.1-.3.5-3 5.6-27.9 31.8-44C86.2 23 106.9 26 107.7 26.1l1.1.2-.3 1.1C97.9 74.5 49.2 81 34.4 81.8v.4zm66.4-54.3c-7.8.1-21.5 1.8-35.4 10.3-23.1 14.2-29.3 35.9-30.6 41.4 14.8-.9 60.7-7.4 71.4-51.6-1.1 0-3-.1-5.4-.1z"/><path fill="#6AAFDF" d="M80.9 66.3s49.6.8 57.6-29.5c-15.7-9.6-31.3-9.3-31-9.8.2-.5-3.7 24.8-26.6 39.3"/><path fill="#231815" d="M82.1 67.4h-1.2l-3.6-.1 3-1.9c21-13.4 25.5-35.5 26-38.2l-.1-.2.6-1.2 1.5.2v.1c.3 0 .6.1 1 .1 4.7.5 17.1 1.9 29.7 9.7l.7.4-.2.8C136.1 49.9 124.9 59.2 107 64c-11 2.9-21.5 3.3-24.9 3.4zm26.2-39.1c-1 5.5-6.6 24.3-23.8 36.9 11.3-.5 45.8-4.1 52.7-27.8-12-7.1-23.7-8.5-28.1-9-.3 0-.5-.1-.8-.1zM152.4 97.8l-.6-2c1.5-.5 36.7-11.6 48.9-6.7l-.8 2c-11.5-4.6-47.1 6.6-47.5 6.7zM196.2 107.4c-9.3-5.4-42-3.3-42.3-3.3l-.1-2.1c1.4-.1 33.7-2.2 43.5 3.6l-1.1 1.8zM48.5 99.4c-.4-.1-36.3-10.2-47.7-5.3l-.9-2C12 86.8 47.5 96.9 49 97.3l-.5 2.1zM5 110.2l-1.1-1.8c9.7-6.1 42-5 43.4-4.9l-.1 2.1c-.3.1-33-1.1-42.2 4.6z"/><path fill="#F09FAD" d="M66.1 93.4c0 1.3-3.2 2.4-7.1 2.5s-7.1-1-7.2-2.3c0-1.3 3.2-2.4 7.1-2.5 4-.1 7.2.9 7.2 2.3M151.8 91.4c0 1.3-3.5 2.4-7.9 2.4-4.4.1-8-.9-8-2.2 0-1.3 3.5-2.4 7.9-2.4 4.4-.1 8 .9 8 2.2"/><path fill="#FFF" d="M137 68.5c-.6.4-17.9 12.5-17.9 12.5l19 8"/><path fill="#231815" d="M138.1 90.7c-.2 0-.5 0-.7-.1l-19-8c-.6-.2-1-.8-1-1.4-.1-.6.2-1.2.7-1.6 0 0 17.4-12.1 18-12.5.8-.5 1.9-.3 2.4.4.5.8.3 1.8-.4 2.4-.4.3-10.5 7.3-15.4 10.7l16.2 6.8c.9.4 1.3 1.4.9 2.2-.4.7-1 1.1-1.7 1.1z"/><path fill="none" d="M118.8 81l18.8-.2"/><path fill="#231815" d="M137.6 82.5l-18.8.3c-.9 0-1.7-.7-1.7-1.7 0-.9.7-1.7 1.7-1.7l18.8-.3c.9 0 1.7.7 1.7 1.7 0 .9-.8 1.7-1.7 1.7zM66.4 91.8c-.7 0-1.3-.4-1.6-1-.4-.9 0-1.9.9-2.3l15.9-7.3C76.7 78 66.4 71.3 65.9 71c-.8-.5-1-1.6-.5-2.4s1.6-1 2.4-.5c.6.4 18.3 12 18.3 12 .5.3.8.9.8 1.6 0 .6-.4 1.2-1 1.4l-18.8 8.5c-.2.1-.4.2-.7.2z"/><path fill="#231815" d="M85.4 83.3l-18.8.3c-.9 0-1.7-.7-1.7-1.7 0-.9.7-1.7 1.7-1.7l18.8-.3c.9 0 1.7.7 1.7 1.7 0 .9-.7 1.7-1.7 1.7zM122.8 111.8c-.3 0-.5-.1-.7-.2-.1-.1-11-7.4-19.1-7.3h-.4c-8.1.4-19 7.6-19.2 7.6-.6.4-1.4.2-1.8-.4s-.2-1.4.4-1.8c.5-.3 11.6-7.6 20.5-8.1h.5c8.8-.1 20.1 7.4 20.6 7.7.6.4.7 1.2.3 1.8-.3.5-.7.7-1.1.7z"/></svg>