<svg xmlns="http://www.w3.org/2000/svg" viewBox="0 0 200.7 150.5"><path fill="#FFF" d="M122.8 29.7S145.5 1 156.7 1.4c11.3.4 9.6 52.1 3.8 60-5.8 8-38.1-27.9-37.7-31.7"/><path fill="#231815" d="M158.1 64c-.9 0-2-.2-3.3-.7-7.1-2.8-17-12.8-21-16.9-1.3-1.4-12.7-13.5-12.4-16.8v-.4l.3-.3c.1-.1 5.8-7.3 12.8-14.4C144.2 4.8 151.6-.1 156.7.1c2.4.1 4.3 1.7 5.8 4.9 2.8 5.8 4.2 17.3 3.8 30.8-.3 9.7-1.7 22.5-4.8 26.6-.5.8-1.6 1.6-3.4 1.6zm-33.8-33.9c1.7 4.4 22.9 28.6 32.6 30.9 1.8.4 2.2-.2 2.4-.4 4.4-6 6.6-42.2.7-54.5-1-2.1-2.2-3.2-3.4-3.3-8.4-.2-25.8 19.1-32.3 27.3zm-.1-.4"/><path fill="#6AAFDF" d="M157.2 52.4s5.2-29.7 2.2-36.6c-3-6.9-22.9 18-22.9 18.9-.1 1 11 5.4 20.7 17.7"/><path fill="#231815" d="M157.9 54.9l-1.5-1.9c-6.9-8.8-14.6-13.5-18.3-15.8-2.1-1.3-2.7-1.7-2.7-2.5 0-1.8 15.3-19.8 21.4-21.1 1.7-.3 3 .3 3.6 1.7 3.1 7.1-1.9 36-2.1 37.2l-.4 2.4zm-20.1-20.3c.4.2.9.6 1.4.9 3.5 2.2 10.6 6.5 17.3 14.4 1.5-9.5 4-28.7 1.8-33.6-.2-.5-.4-.5-.8-.6-4.4 0-17.3 15.4-19.7 18.9z"/><path fill="#FFF" d="M81.4 29.8S58.7 1.1 47.5 1.5c-11.3.4-9.6 52.1-3.7 60 5.8 8 38-27.9 37.6-31.7"/><path fill="#231815" d="M46.1 64.1c-1.8 0-2.9-.8-3.6-1.7-3.1-4.1-4.5-16.9-4.8-26.6-.4-13.5 1-25.1 3.8-30.8C43 1.9 45 .2 47.3.1c5.1-.2 12.6 4.7 22.3 14.4 7.1 7.1 12.8 14.4 12.9 14.4l.3.3v.4c.5 4.2-22.3 29.4-33.3 33.7-1.3.6-2.4.8-3.4.8zm1.6-61.2h-.2c-1.2 0-2.3 1.1-3.4 3.3-5.9 12.3-3.7 48.6.7 54.5.2.2.6.8 2.4.4C57 58.7 78 34.6 79.8 30.2 73.4 22.1 56.2 2.9 47.7 2.9z"/><path fill="#6AAFDF" d="M46.3 52.9s-4.8-29-1.8-35.8c3-6.9 22.4 17.3 22.4 18.2 0 .9-10.5 3.6-20.6 17.6"/><path fill="#231815" d="M45.6 55.6l-.4-2.5c-.2-1.2-4.8-29.4-1.7-36.4.6-1.5 2-2.1 3.7-1.8C53.1 16.1 68 33.2 68 35.3c0 .9-.7 1.2-2.3 2.1-3.3 1.7-11 5.8-18.5 16.2l-1.6 2zm.7-38.7c-.1 0-.1 0 0 0-.4 0-.6.1-.8.6-2.1 4.9.1 23.4 1.5 32.8 7.3-9.3 14.5-13.1 17.7-14.8.3-.1.6-.3.8-.4-2.5-3.5-14.8-18.2-19.2-18.2z"/><path fill="#FFF" d="M171.5 91.5c0 35-31.1 57.6-69.6 57.6-38.5 0-69.7-22.1-69.7-57.1s31.1-65.9 69.6-65.9c38.4-.1 69.6 30.4 69.7 65.4z"/><path fill="#231815" d="M101.9 150.5c-19.4 0-37.2-5.6-50.1-15.7-13.8-10.8-21-25.6-21-42.8 0-36.5 32.5-67.3 71-67.4 38.5 0 71.1 30.6 71.1 66.9 0 34.2-29.9 59-71 59zm-.1-123c-37 0-68.2 29.6-68.2 64.5 0 16.3 6.9 30.4 19.9 40.6 12.4 9.8 29.6 15.1 48.4 15.1 39.5 0 68.2-23.6 68.2-56.2-.1-34.7-31.3-64-68.3-64z"/><path fill="#231815" d="M115 108.2h-.6c-5.7-.4-10.4-5.5-12.5-8.2-2.7 3.9-5.9 6.3-9.6 7-6.2 1.3-11.4-2.5-11.7-2.7-.6-.4-.7-1.2-.3-1.8.4-.6 1.2-.7 1.8-.3 0 0 4.5 3.3 9.6 2.2 3.5-.7 6.5-3.2 9-7.5.2-.4.6-.6 1.1-.6.5 0 .9.2 1.1.6.1.1 5.5 8.3 11.7 8.7 2.6.1 5-1.1 7.2-3.7.5-.5 1.3-.6 1.8-.2.5.5.6 1.3.2 1.8-2.7 3.2-5.6 4.7-8.8 4.7z"/><path fill="#231815" d="M105.9 95.3c0 .9-1.7 1.6-3.8 1.7-2.1 0-3.9-.7-3.9-1.6 0-.9 1.7-1.6 3.8-1.7 2.2 0 3.9.7 3.9 1.6"/><path fill="#0C368E" d="M33.6 79c-1.1-.3 61.8 1.5 74.8-52.6 0 0-20.9-3.5-42.8 9.5-26.9 16-31.8 42-32 43.1"/><path fill="#231815" d="M34.5 80.4l-2.1-.6.1-.9c0-.1 0-.2.1-.3.6-3 6-27.8 32.4-43.5 22-13.1 42.7-9.8 43.6-9.7l1.1.2-.3 1.1c-11.2 47-60 52.7-74.8 53.3l-.1.4zm67.2-53.3c-7.8 0-21.5 1.5-35.6 9.8-23.2 13.9-29.8 35.5-31.1 41 14.8-.7 60.8-6.5 72.1-50.5-1.1-.1-3-.3-5.4-.3z"/><path fill="#231815" d="M85.1 80.1c0 5.4-3.3 9.8-7.3 9.8s-7.3-4.4-7.3-9.8 3.3-9.8 7.3-9.8 7.3 4.4 7.3 9.8"/><path fill="#6AAFDF" d="M81.3 65.2s49.6 1.6 58-28.6c-15.5-9.9-31.2-9.8-30.9-10.3.2-.5-4 24.7-27.1 38.9"/><path fill="#231815" d="M82.4 66.3h-1.2l-3.6-.1 3-1.9c21.2-13.1 26.1-35.1 26.6-37.8l-.1-.2.6-1.2 1.5.2v.1c.3 0 .6.1 1 .1 4.7.6 17.1 2.2 29.6 10.1l.7.4-.2.8c-3.6 12.7-14.9 21.9-32.9 26.4-11.1 2.9-21.5 3.1-25 3.1zm26.8-38.7c-1.1 5.5-6.9 24.2-24.4 36.5 11.3-.4 45.8-3.4 53.1-27.1-11.9-7.3-23.6-8.8-28-9.4-.2.1-.4.1-.7 0zM152.3 97.7l-.6-2.1c1.5-.5 36.9-11 49-6l-.8 2c-11.5-4.7-47.2 6-47.6 6.1zM196 108c-9.3-5.6-41.9-3.9-42.3-3.9l-.1-2.1c1.4-.1 33.7-1.7 43.5 4.2L196 108zM48.4 97.8c-.4-.1-36.1-10.8-47.6-6l-.8-2c12.2-5.1 47.5 5.5 49 5.9l-.6 2.1zM4.8 108.1l-1.1-1.8c9.8-5.9 42.1-4.3 43.5-4.3l-.1 2.1c-.4 0-33.1-1.6-42.3 4z"/><path fill="#F09FAD" d="M66.1 92.1c0 1.3-3.2 2.4-7.1 2.4-3.9 0-7.1-1.1-7.1-2.4 0-1.3 3.2-2.4 7.1-2.4 3.9 0 7.1 1 7.1 2.4M151.8 91.3c0 1.3-3.6 2.3-8 2.3s-8-1-8-2.3c0-1.3 3.6-2.3 8-2.3s8 1 8 2.3"/><g><path fill="#FFF" d="M132.6 66.9c-.6.4-18.7 12.7-18.7 12.7l19.6 8.5"/><path fill="#231815" d="M133.4 89.9c-.2 0-.5 0-.7-.1l-19.6-8.5c-.6-.3-1-.8-1.1-1.5-.1-.6.2-1.3.8-1.6 0 0 18.1-12.3 18.7-12.7.8-.5 1.9-.3 2.5.5.5.8.3 1.9-.5 2.5-.5.3-11 7.4-16.1 10.9l16.6 7.2c.9.4 1.3 1.4.9 2.3-.1.6-.8 1-1.5 1z"/></g><g><path fill="#FFF" d="M113.6 79.6H133"/><path fill="#231815" d="M133 81.4h-19.4c-1 0-1.8-.8-1.8-1.8s.8-1.8 1.8-1.8H133c1 0 1.8.8 1.8 1.8s-.8 1.8-1.8 1.8z"/></g></svg>