<svg xmlns="http://www.w3.org/2000/svg" viewBox="0 0 200.7 151.1"><path fill="#FFF" d="M122.2 30.1s22.4-28.9 33.6-28.6c11.3.3 10.2 52 4.4 60-5.8 7.9-38.4-27.7-38-31.4"/><path fill="#231815" d="M157.8 64c-.9 0-2-.2-3.3-.7-7.1-2.7-17.2-12.6-21.2-16.7-1.3-1.4-12.9-13.4-12.5-16.7v-.4l.2-.3c.1-.1 5.7-7.4 12.7-14.5 9.6-9.8 17-14.7 22.1-14.6 2.4.1 4.3 1.7 5.9 4.8 2.8 5.7 4.4 17.2 4.1 30.8-.2 9.7-1.5 22.5-4.5 26.7-.6.7-1.7 1.6-3.5 1.6zm-34.1-33.6c1.8 4.4 23.2 28.4 33 30.6 1.8.4 2.2-.2 2.4-.4 4.3-6 6.2-42.3.1-54.5-1-2.1-2.2-3.2-3.4-3.2-8.5-.2-25.7 19.3-32.1 27.5z"/><path fill="#6AAFDF" d="M156.8 52.4s4.8-29.8 1.8-36.6C155.5 9 135.9 34.1 135.9 35s11.1 5.2 20.9 17.4"/><path fill="#231815" d="M157.5 54.9L156 53c-7-8.7-14.7-13.3-18.4-15.6-2.1-1.3-2.8-1.7-2.8-2.5 0-1.8 15.1-20 21.2-21.3 1.7-.4 3 .3 3.6 1.7 3.2 7.1-1.5 36-1.7 37.2l-.4 2.4zm-20.3-20.1c.4.2.9.6 1.5.9 3.5 2.1 10.7 6.4 17.5 14.2 1.4-9.5 3.7-28.7 1.5-33.6-.2-.5-.4-.5-.8-.5-4.6-.1-17.4 15.5-19.7 19z"/><path fill="#FFF" d="M80.7 30.6s-23-28.5-34.2-28c-11.3.5-9 52.2-3.1 60.1s37.8-28.4 37.3-32.1"/><path fill="#231815" d="M45.9 65.2c-1.8 0-3-.8-3.6-1.7-3.1-4.1-4.7-16.9-5.1-26.6-.6-13.5.7-25.1 3.4-30.9 1.5-3.2 3.4-4.8 5.8-4.9C51.5.9 59 5.6 68.8 15.3c7.1 7 12.9 14.2 13 14.3l.3.3.1.4c.5 4.2-22 29.7-32.9 34.1-1.4.6-2.5.8-3.4.8zM46.8 4h-.2c-1.2.1-2.3 1.2-3.3 3.3-5.8 12.4-3.2 48.6 1.3 54.5.2.2.6.8 2.4.4 9.7-2.5 30.6-26.8 32.2-31.2-6.5-8.1-23.9-27-32.4-27zm32.5 26.6z"/><path fill="#6AAFDF" d="M45.9 54.1s-5.1-28.9-2.2-35.8c2.9-6.9 22.6 17.1 22.6 18 0 .8-10.4 3.6-20.4 17.8"/><path fill="#231815" d="M45.3 56.8l-.4-2.5c-.2-1.2-5.1-29.3-2.1-36.4.6-1.5 2-2.1 3.6-1.8 5.9 1.2 21 18.1 21 20.2 0 .9-.7 1.2-2.2 2.1-3.3 1.8-10.9 5.9-18.4 16.4l-1.5 2zm.2-38.7c-.4 0-.6.1-.8.6-2.1 4.9.3 23.4 1.8 32.7 7.2-9.4 14.4-13.3 17.6-15 .3-.1.6-.3.8-.4-2.5-3.5-15-18-19.4-17.9z"/><path fill="#FFF" d="M172.4 91.3c.4 35-30.5 57.9-69 58.3s-69.9-21.4-70.3-56.4C32.7 58.3 63.6 27 102 26.6c38.5-.4 70 29.7 70.4 64.7z"/><path fill="#231815" d="M102.5 151.1c-19.4.2-37.3-5.2-50.3-15.2-13.8-10.6-21.2-25.4-21.4-42.6-.4-36.5 31.8-67.7 70.3-68.1 38.5-.4 71.4 29.9 71.8 66.1.4 34.2-29.2 59.3-70.4 59.8zm-1.4-123c-37 .4-67.9 30.3-67.5 65.2.2 16.3 7.2 30.3 20.3 40.3 12.5 9.6 29.8 14.8 48.5 14.6 39.5-.4 67.9-24.3 67.6-56.9-.3-34.7-31.9-63.6-68.9-63.2z"/><path fill="#231815" d="M133.7 80.7c.1 5.4-3.2 9.8-7.2 9.8s-7.3-4.3-7.4-9.7c-.1-5.4 2.4-6.9 7.1-8.6 4.6-1.5 7.4 3.1 7.5 8.5M105.9 95.8c0 .9-1.7 1.7-3.8 1.7-2.1 0-3.9-.6-3.9-1.5s1.7-1.7 3.8-1.7c2.2-.1 3.9.6 3.9 1.5"/><path fill="#0C368E" d="M33.5 80.3c-1.1-.3 61.8.9 74.2-53.4 0 0-20.9-3.3-42.7 10-26.6 16.3-31.3 42.2-31.5 43.4"/><path fill="#231815" d="M34.4 81.7l-2.1-.6.1-.9c0-.1 0-.2.1-.3.5-3 5.7-27.9 32-43.9 21.9-13.3 42.6-10.3 43.5-10.1l1.1.2-.3 1.1C98 74.3 49.3 80.5 34.5 81.3l-.1.4zm66.6-54c-7.8.1-21.5 1.7-35.5 10.2-23.1 14-29.4 35.7-30.6 41.2 14.8-.9 60.7-7.2 71.6-51.3-1.2 0-3-.1-5.5-.1z"/><path fill="#6AAFDF" d="M81 66s49.6 1 57.7-29.2c-15.6-9.7-31.3-9.5-31-10 .2-.5-3.8 24.7-26.7 39.2"/><path fill="#231815" d="M82.2 67.1H81l-3.6-.1 3-1.9c21-13.3 25.7-35.4 26.2-38.1l-.1-.2.6-1.2 1.5.2v.1c.3 0 .6.1 1 .1 4.7.5 17.1 2 29.7 9.8l.7.4-.2.8c-3.4 12.8-14.7 22-32.7 26.7-11 3-21.5 3.3-24.9 3.4zm26.4-39c-1 5.5-6.7 24.3-24 36.8 11.3-.5 45.8-3.9 52.8-27.6-11.9-7.2-23.7-8.6-28.1-9.1-.2 0-.5-.1-.7-.1zM152.4 97.8l-.6-2c1.5-.5 36.7-11.4 49-6.5l-.8 2c-11.6-4.7-47.3 6.4-47.6 6.5zM196.1 107.5c-9.3-5.5-42-3.5-42.3-3.5l-.1-2.1c1.4-.1 33.7-2 43.5 3.8l-1.1 1.8zM48.5 98.9c-.4-.1-36.2-10.4-47.7-5.5l-.8-2c12.1-5.2 47.6 5 49.1 5.4l-.6 2.1zM5 109.6l-1.1-1.8c9.7-6 42.1-4.8 43.4-4.7l-.1 2.1c-.3 0-33-1.2-42.2 4.4z"/><path fill="#F09FAD" d="M66.1 93c0 1.3-3.2 2.4-7.1 2.5-3.9 0-7.1-1-7.2-2.3 0-1.3 3.2-2.4 7.1-2.5 4-.1 7.2 1 7.2 2.3M151.8 91.4c0 1.3-3.5 2.3-7.9 2.4-4.4 0-8-.9-8-2.2 0-1.3 3.5-2.3 7.9-2.4 4.4-.1 8 .9 8 2.2"/><path fill="#231815" d="M114.6 79.5c-.5 0-1-.3-1.2-.8-.3-.7 0-1.4.7-1.7l23.4-9.9c.7-.3 1.4 0 1.7.7s0 1.4-.7 1.7l-23.4 9.9c-.2.1-.3.1-.5.1zM73 81.3c.1 5.4 3.4 9.7 7.4 9.7s7.2-4.5 7.2-9.8c-.1-5.4-2.6-6.8-7.3-8.4-4.6-1.5-7.3 3.2-7.3 8.5"/><path fill="#231815" d="M92 79.8c-.2 0-.3 0-.5-.1l-23.6-9.4c-.7-.3-1-1-.7-1.7s1-1 1.7-.7l23.6 9.4c.7.3 1 1 .7 1.7-.2.5-.7.8-1.2.8zM95.1 112.7c-.1 0-.3 0-.4-.1-.7-.2-1.1-.9-.8-1.6l.1-.2c2.7-8.9 6.5-10.6 9.1-10.4 4 .2 6.9 3.6 8.5 10.1l.1.3c.2.7-.2 1.4-.9 1.6-.7.2-1.4-.2-1.6-.9l-.1-.3c-1.3-5.2-3.4-7.9-6.1-8.1-2.4-.1-4.8 3-6.5 8.6l-.1.3c-.2.4-.7.7-1.3.7z"/></svg>