<svg xmlns="http://www.w3.org/2000/svg" viewBox="0 0 200.7 151.4"><path fill="#FFF" d="M121.8 30.3S144 1.2 155.3 1.5c11.3.2 10.5 52 4.8 60-5.8 7.9-38.7-27.5-38.3-31.2"/><path fill="#231815" d="M157.6 64c-.9 0-2-.2-3.3-.7-7.1-2.6-17.2-12.5-21.3-16.6-1.3-1.4-13-13.3-12.6-16.6v-.4l.2-.3c.1-.1 5.7-7.4 12.6-14.6 9.5-9.9 17-14.9 22-14.8 2.4 0 4.3 1.7 5.9 4.8 2.9 5.7 4.5 17.2 4.3 30.8-.1 9.7-1.3 22.5-4.3 26.7-.5.8-1.6 1.7-3.5 1.7zm-34.3-33.4c1.8 4.4 23.3 28.2 33.1 30.4 1.8.4 2.2-.2 2.4-.4 4.3-6 5.9-42.3-.2-54.5-1.1-2.1-2.2-3.2-3.4-3.2h-.2c-8.5.1-25.3 19.5-31.7 27.7z"/><path fill="#6AAFDF" d="M156.6 52.4s4.7-29.8 1.6-36.6C155 9 135.5 34.2 135.5 35.1c0 .9 11.2 5.1 21.1 17.3"/><path fill="#231815" d="M157.3 54.9l-1.5-1.9c-7.1-8.7-14.8-13.3-18.5-15.5-2.1-1.3-2.8-1.6-2.8-2.5 0-1.8 15-20.1 21-21.5 1.7-.4 3 .2 3.6 1.7 3.2 7-1.3 36-1.5 37.2l-.3 2.5zm-20.4-20c.4.2.9.6 1.5.9 3.6 2.1 10.7 6.3 17.5 14.1 1.4-9.5 3.5-28.7 1.3-33.7-.2-.5-.4-.5-.8-.5-4.5.1-17.2 15.7-19.5 19.2z"/><path fill="#FFF" d="M80.4 31S57.3 2.6 46 3.2s-8.7 52.3-2.7 60.1c5.9 7.9 37.5-28.5 37.1-32.3"/><path fill="#231815" d="M45.7 65.9c-1.8 0-3-.8-3.6-1.7-3.1-4.1-4.8-16.8-5.2-26.5-.6-13.5.6-25.1 3.3-30.9 1.5-3.2 3.4-4.8 5.8-5 5-.2 12.6 4.5 22.4 14.1 7.2 7 13 14.2 13.1 14.2l.3.3.1.4c.5 4.2-21.8 29.8-32.7 34.3-1.5.6-2.6.8-3.5.8zm.6-61.2h-.2c-1.2.1-2.3 1.2-3.3 3.3-5.7 12.4-2.9 48.6 1.6 54.5.2.2.6.8 2.4.4 9.7-2.5 30.4-27 32.1-31.4-6.7-8.1-24.1-27-32.6-26.8z"/><path fill="#6AAFDF" d="M45.7 54.7s-5.3-28.9-2.4-35.8c2.8-6.9 22.6 17 22.7 17.9 0 .8-10.4 3.7-20.3 17.9"/><path fill="#231815" d="M45.1 57.4l-.5-2.5c-.2-1.2-5.3-29.3-2.3-36.4.6-1.5 2-2.2 3.6-1.8 5.9 1.1 21.1 17.9 21.1 20 0 .9-.6 1.2-2.2 2.1-3.3 1.8-10.9 6-18.3 16.5l-1.4 2.1zm0-38.7s-.1 0 0 0c-.4 0-.6.1-.8.6-2.1 4.9.5 23.4 2 32.7 7.2-9.5 14.3-13.4 17.5-15.1.3-.1.6-.3.8-.4-2.5-3.4-15.1-17.9-19.5-17.8z"/><path fill="#FFF" d="M171.5 91.2c.6 35-30.2 58.1-68.7 58.7S32.8 129 32.2 94s30.1-66.4 68.5-67c38.5-.7 70.2 29.2 70.8 64.2z"/><path fill="#231815" d="M102.8 151.4c-19.4.3-37.3-5-50.4-14.9-13.8-10.6-21.3-25.2-21.6-42.5-.6-36.5 31.4-67.9 69.9-68.5 38.5-.6 71.6 29.4 72.2 65.7.6 34.2-28.9 59.5-70.1 60.2zm-2-123C63.8 29 33.1 59.1 33.6 94c.3 16.3 7.4 30.2 20.5 40.2 12.6 9.5 29.8 14.6 48.6 14.3 39.5-.7 67.8-24.7 67.3-57.3-.5-34.6-32.3-63.4-69.2-62.8z"/><path fill="#231815" d="M133.6 80.8c.1 5.4-3.1 9.8-7.1 9.9-4 .1-7.4-4.2-7.4-9.6-.1-5.4 3.1-9.8 7.1-9.9 4-.1 7.3 4.2 7.4 9.6M115.3 108.9h-.6c-5.7-.3-10.5-5.4-12.7-8-2.6 4-5.8 6.4-9.5 7.2-6.2 1.4-11.5-2.3-11.7-2.5-.6-.4-.7-1.2-.3-1.8.4-.6 1.2-.7 1.8-.3 0 0 4.6 3.2 9.7 2.1 3.4-.8 6.4-3.3 8.8-7.6.2-.4.6-.6 1.1-.7.4-.1.9.2 1.1.6.1.1 5.6 8.2 11.8 8.5 2.6.1 5-1.2 7.2-3.8.4-.6 1.3-.6 1.8-.2.6.5.6 1.3.2 1.8-2.7 3-5.6 4.6-8.7 4.7z"/><path fill="#231815" d="M106 96.1c0 .9-1.7 1.7-3.8 1.7-2.1.1-3.9-.6-3.9-1.5s1.7-1.7 3.8-1.7c2.1-.1 3.8.6 3.9 1.5"/><path fill="#0C368E" d="M33.5 81c-1.1-.3 61.8.5 73.9-53.8 0 0-20.9-3.2-42.7 10.2C38.1 53.9 33.6 79.8 33.5 81"/><path fill="#231815" d="M34.4 82.4l-2.1-.6.1-.9c0-.1 0-.2.1-.3.5-3 5.5-27.9 31.7-44.1C86 23.1 106.7 26 107.6 26.2l1.1.2-.3 1.1C97.9 74.6 49.2 81.1 34.4 82v.4zM100.7 28c-7.8.1-21.5 1.8-35.4 10.4C42.2 52.6 36 74.3 34.8 79.9c14.8-1 60.7-7.5 71.3-51.7-1.1-.1-3-.2-5.4-.2z"/><path fill="#231815" d="M84.9 81.2c.1 5.4-3.1 9.8-7.1 9.9s-7.4-4.2-7.4-9.6c-.1-5.4 3.1-9.8 7.1-9.9s7.3 4.3 7.4 9.6"/><path fill="#6AAFDF" d="M80.9 66.5s49.6.7 57.5-29.6c-15.7-9.6-31.3-9.3-31.1-9.8.3-.5-3.6 24.8-26.4 39.4"/><path fill="#231815" d="M82 67.5h-1.2l-3.6-.1 3-1.9c21-13.4 25.5-35.5 25.9-38.2l-.1-.2.6-1.2 1.5.2v.1c.3 0 .6.1 1 .1 4.7.5 17.1 1.9 29.7 9.6l.7.4-.2.8C136 49.9 124.7 59.2 106.8 64c-10.9 3-21.3 3.5-24.8 3.5zm26.2-39.1c-1 5.5-6.5 24.3-23.8 36.9 11.3-.5 45.8-4.1 52.7-27.9-12-7.1-23.7-8.4-28.2-8.9-.2-.1-.5-.1-.7-.1zM152.4 97.8l-.7-2c1.5-.5 36.7-11.6 48.9-6.8l-.8 2c-11.4-4.6-47 6.7-47.4 6.8zM196.2 107.3c-9.3-5.4-42-3.3-42.3-3.2l-.1-2.1c1.4-.1 33.7-2.2 43.6 3.5l-1.2 1.8zM48.5 99.5c-.4-.1-36.3-10.2-47.7-5.2l-.9-2C12 87 47.5 97 49 97.4l-.5 2.1zM5.1 110.5L4 108.7c9.7-6.1 42-5 43.4-5l-.1 2.1c-.3.1-33.1-1-42.2 4.7z"/><path fill="#F09FAD" d="M66.1 93.5c0 1.3-3.1 2.4-7.1 2.5-3.9.1-7.1-.9-7.2-2.3 0-1.3 3.1-2.4 7.1-2.5 4 0 7.2 1 7.2 2.3M151.8 91.4c0 1.3-3.5 2.4-7.9 2.4-4.4.1-8-.9-8-2.2 0-1.3 3.5-2.4 7.9-2.4 4.4-.1 8 .9 8 2.2"/></svg>