<svg xmlns="http://www.w3.org/2000/svg" viewBox="0 0 199.7 150.8"><path fill="#FFF" d="M123.3 31s23.1-28.1 34.3-27.5 8.6 52 2.6 59.8-37.3-28.6-36.9-32.3"/><path fill="#231815" d="M157.8 65.8c-.9 0-2-.2-3.3-.8-7-2.9-16.7-13-20.6-17.3-1.3-1.4-12.4-13.7-12-17l.1-.4.3-.3c.1-.1 5.9-7.2 13.1-14.1 9.8-9.5 17.4-14.2 22.4-13.9 2.3.1 4.3 1.8 5.7 4.9 2.7 5.8 3.8 17.3 3.2 30.8-.5 9.6-2.1 22.3-5.2 26.4-.8.9-1.9 1.7-3.7 1.7zm-32.9-34.4c1.7 4.4 22.2 28.9 31.9 31.4 1.8.5 2.2-.1 2.4-.4 4.5-5.9 7.4-41.9 1.7-54.2-1-2.1-2.1-3.2-3.3-3.3h-.2c-8.5-.2-25.9 18.5-32.5 26.5z"/><path fill="#6AAFDF" d="M157.1 54.2s5.7-29.4 2.9-36.3-23.2 17.5-23.2 18.4c0 .9 11 5.5 20.3 17.9"/><path fill="#231815" d="M157.7 56.8l-1.4-1.9c-6.7-8.9-14.2-13.7-17.9-16-2.1-1.3-2.7-1.7-2.7-2.6 0-1.8 15.6-19.4 21.7-20.6 1.7-.3 3 .3 3.6 1.8 2.9 7.1-2.6 35.7-2.8 37l-.5 2.3zm-19.5-20.7c.4.3.9.6 1.4.9 3.5 2.2 10.4 6.7 16.9 14.7 1.7-9.4 4.5-28.5 2.5-33.4-.2-.5-.4-.6-.7-.6-4.5-.1-17.7 15-20.1 18.4z"/><path fill="#FFF" d="M82.1 30.3s-22-29-33.2-28.8c-11.2.1-10.5 51.6-4.9 59.6S82.5 34 82.1 30.3"/><path fill="#231815" d="M46.4 63.7c-1.8 0-2.9-.9-3.5-1.8-3-4.2-4.1-16.9-4.2-26.6-.2-13.4 1.4-24.9 4.3-30.6C44.6 1.6 46.5 0 48.9 0 54-.1 61.3 4.9 70.7 14.8c6.9 7.2 12.4 14.5 12.5 14.6l.2.3v.4C83.9 34.3 60.8 59 49.8 63c-1.4.5-2.5.7-3.4.7zm2.7-60.9h-.2c-1.2 0-2.4 1.1-3.4 3.2-6.1 12.1-4.6 48.2-.3 54.3.2.2.6.8 2.4.5 9.7-2.2 31.2-25.8 33-30.1-6.3-8.3-23-27.7-31.5-27.9z"/><path fill="#6AAFDF" d="M46.7 52.6s-4.2-28.9-1.1-35.7c3.1-6.8 22 17.7 21.9 18.6.1.8-10.4 3.3-20.8 17.1"/><path fill="#231815" d="M46.1 55.3l-.4-2.5c-.2-1.2-4.2-29.3-1-36.3.7-1.5 2-2.1 3.7-1.7 5.9 1.3 20.3 18.6 20.3 20.7 0 .9-.7 1.2-2.3 2-3.3 1.7-11.1 5.5-18.8 15.8l-1.5 2zm1.3-38.5c-.4 0-.6.1-.8.6-2.2 4.8-.4 23.3.8 32.6 7.5-9.2 14.7-12.8 17.9-14.4.3-.1.6-.3.8-.4-2.3-3.6-14.3-18.4-18.7-18.4z"/><path fill="#FFF" d="M170.6 93.4c-.7 34.8-32.1 56.7-70.4 55.9-38.3-.7-68.9-23.3-68.2-58.1s32.3-65 70.5-64.2c38.3.7 68.7 31.6 68.1 66.4z"/><path fill="#231815" d="M100.2 150.7c-19.3-.4-36.9-6.3-49.6-16.6-13.4-11-20.4-25.8-20-43 .7-36.3 33.7-66.4 72-65.6 38.3.7 70.1 31.8 69.4 67.9-.7 34-30.9 58.1-71.8 57.3zm2.3-122.3c-36.8-.7-68.4 28.1-69.1 62.8-.3 16.2 6.3 30.3 19 40.7 12.2 9.9 29.2 15.6 47.8 16 39.3.7 68.3-22.2 68.9-54.5.7-34.6-29.8-64.3-66.6-65z"/><path fill="#231815" d="M125.5 92.5c-4.7-.1-8.4-5.1-8.3-11.2s4-10.9 8.7-10.8 8.4 5.1 8.3 11.2c-.1 6-4 10.9-8.7 10.8zm.3-19.4c-3.3-.1-6 3.7-6.1 8.3-.1 4.7 2.5 8.5 5.8 8.5 3.3.1 6-3.7 6.1-8.3.1-4.6-2.5-8.5-5.8-8.5z"/><path fill="#F09FAD" d="M91.9 107c-.2-1 9.5-5.9 9.5-5.9l9.7 6.7s-3.2 21.3-10.1 21.8c-9.7.6-7.9-17.5-9.1-22.6z"/><path fill="#F09FAD" d="M111.2 107.9s.8 21.7-10.1 21.8c-10.9.1-8-17.4-9.1-22.5"/><path fill="#231815" d="M100.8 130.7c-9-.2-9.3-11-9.5-18.3-.1-2.1-.1-3.9-.3-5-.1-.5.2-1.1.8-1.2.5-.1 1.1.2 1.2.8.3 1.3.3 3.2.4 5.4.2 8.5.9 16.2 7.5 16.3h.2c1.8 0 3.2-.7 4.5-2 5-5.2 4.6-18.6 4.6-18.7 0-.6.4-1 1-1 .5 0 1 .4 1 1s.5 14.3-5.1 20.2c-1.6 1.7-3.6 2.6-6 2.6-.1-.1-.2-.1-.3-.1zM105.3 95.9c0 .9-1.7 1.6-3.8 1.6-2.1 0-3.8-.8-3.8-1.7 0-.9 1.7-1.6 3.8-1.6 2.1 0 3.8.8 3.8 1.7"/><path fill="#0C368E" d="M33.7 78.3c-1.1-.3 61.4 2.7 75.4-50.9 0 0-20.7-3.9-42.8 8.7-27 15.3-32.4 41-32.6 42.2"/><path fill="#231815" d="M34.5 79.7l-2-.6.1-.9c0-.1 0-.2.1-.3.6-2.9 6.5-27.6 33.1-42.7 22.2-12.6 42.7-8.9 43.5-8.8l1.1.2-.3 1.1C98 74.2 49.3 79 34.6 79.3l-.1.4zM102.4 28c-7.7-.2-21.4 1-35.6 9C43.4 50.3 36.5 71.7 35 77.2c14.8-.4 60.6-5.3 72.7-48.9-1-.1-2.9-.3-5.3-.3z"/><path fill="#231815" d="M77.4 91.2c-4.7-.1-8.4-5.1-8.3-11.2s4-10.9 8.7-10.8 8.4 5.1 8.3 11.2c-.1 6-4 10.9-8.7 10.8zm.3-19.4c-3.3-.1-6 3.7-6.1 8.3-.1 4.7 2.5 8.5 5.8 8.5 3.3.1 6-3.7 6.1-8.3s-2.5-8.5-5.8-8.5z"/><path fill="#6AAFDF" d="M81.3 65.5s49.3 2.5 58.3-27.4c-15.3-10.1-30.8-10.3-30.5-10.8.2-.5-4.5 24.5-27.8 38.2"/><path fill="#231815" d="M82.5 66.6h-1.2l-3.5-.2 3.1-1.8C102.1 52 107.4 30.1 108 27.5l-.1-.2.6-1.2 1.5.2v.1c.3 0 .6.1 1 .1 4.6.7 16.9 2.5 29.2 10.6l.7.4-.2.8c-3.8 12.6-15.3 21.5-33.3 25.6-11.1 2.7-21.5 2.8-24.9 2.7zm27.4-38c-1.2 5.5-7.4 23.9-25 35.9 11.2-.1 45.7-2.5 53.4-25.9-11.7-7.5-23.3-9.2-27.7-9.9-.2 0-.5 0-.7-.1zM151.4 99.2l-.6-2.1c1.5-.4 36.9-10.3 48.9-5l-.9 2c-11.3-4.9-47.1 5-47.4 5.1zM194.6 110.2c-9.1-5.7-41.7-4.7-42-4.7l-.1-2.1c1.4 0 33.5-1 43.2 5.1l-1.1 1.7zM48 97.3c-.4-.1-35.7-11.4-47.2-6.9l-.8-2c12.2-4.8 47.2 6.4 48.7 6.8l-.7 2.1zM4.4 106.6l-1.1-1.8c9.9-5.7 42-3.5 43.4-3.4l-.2 2.1c-.3 0-32.8-2.2-42.1 3.1z"/><path fill="#F09FAD" d="M65.7 91.9c0 1.3-3.2 2.3-7.1 2.2-3.9-.1-7.1-1.2-7-2.5 0-1.3 3.2-2.3 7.1-2.2 3.9.1 7.1 1.2 7 2.5M151 92.8c0 1.3-3.6 2.2-8 2.1s-7.9-1.2-7.9-2.4c0-1.3 3.6-2.2 8-2.1s7.9 1.2 7.9 2.4"/><path fill="#231815" d="M119.3 115.3c-.3 0-.5-.1-.8-.3l-17-13L85 113.9c-.6.4-1.4.3-1.8-.3-.4-.6-.3-1.4.3-1.8l17.3-12.5c.5-.3 1.1-.3 1.5 0l17.8 13.7c.6.4.7 1.2.2 1.8-.2.4-.6.5-1 .5z"/><ellipse transform="rotate(-88.91 125.619 81.796) scale(.99998)" fill="#231815" cx="125.6" cy="81.8" rx="6.1" ry="3.1"/><ellipse transform="rotate(-88.91 77.31 80.552) scale(.99998)" fill="#231815" cx="77.3" cy="80.6" rx="6.1" ry="3.1"/></svg>