<svg xmlns="http://www.w3.org/2000/svg" viewBox="0 0 76.6 77.5"><g fill="#F6CCD3"><path d="M10.5 64.7c-.2.2-.5.2-.8 0-.2-.2-.3-.6 0-.8l4.3-4.3c.5-.4 1-.4 1.4 0l1.7 1.7c.5.5.9 1.2.9 1.8.1.6-.2 1.1-.6 1.6-.9.9-2.2.8-3.3-.4l-1.6-1.6-2 2zm4.3-1.3c.7.7 1.4.8 1.8.4.5-.5.3-1.1-.4-1.8L15 60.7c-.2-.2-.3-.2-.5 0l-1.2 1.2 1.5 1.5zM17.4 68.6l-1.7 1.1c-.2.2-.4.2-.7 0-.3-.2-.4-.5-.2-.8 0-.1.1-.1.2-.2l6-3.7c.3-.2.5-.2.7-.1.3.1.3.3.3.7l-1 7c0 .1 0 .2-.1.3-.2.2-.5.3-.8.1-.2-.1-.3-.3-.2-.6l.3-2-2.8-1.8zm3.3-2L18.4 68l1.9 1.2.4-2.6zM26.7 72.7c-.4-.1-.5-.4-.4-.7.1-.3.4-.4.8-.3l2.4.9c.4.1.5.5.4.9-.2.4-.5.9-.9 1.3-.9.9-2.1 1.1-3.4.6-2-.7-2.9-2.7-2.1-4.9.8-2.1 2.7-3.1 4.6-2.4.8.3 1.5.9 1.9 1.6.3.6.5 1.2.3 1.6-.1.3-.3.4-.6.2-.3-.1-.3-.2-.4-.6-.2-.9-.7-1.5-1.5-1.8-.8-.3-1.4-.2-2 .2-.6.4-1 1-1.3 1.6-.5 1.5.1 2.9 1.4 3.4.7.2 1.4.2 1.9-.2.3-.2.5-.4.8-.8l-1.9-.6zM36.7 72.9c.3 0 .5.3.5.6s-.3.5-.6.5l-3.1-.3-.2 2.1c0 .2 0 .3.3.3l3.3.3c.3 0 .5.3.5.6s-.3.5-.6.5l-3.6-.4c-.8-.1-1.2-.4-1.2-1.1l.6-5.7c.1-.5.5-.9 1.1-.8l3.8.4c.3 0 .5.3.5.6s-.3.5-.6.5l-3.3-.3c-.3 0-.4.1-.4.3l-.2 1.5 3.2.4zM48.5 75.7c.1.3-.1.6-.4.7-.3.1-.6-.1-.7-.4l-1.5-5.8-1.9.5c-.3.1-.6-.1-.7-.4-.1-.3.1-.6.4-.7l5-1.3c.3-.1.6.1.7.4.1.3-.1.6-.4.7l-2 .5 1.5 5.8zM55.8 65.8c.9.3 1.7 1 2.2 2.1 1.1 2.1.6 4-1.4 5.1-1 .5-2 .6-2.9.3-.8-.3-1.5-1-2.1-2-.6-1.1-.7-2.3-.3-3.3.3-.7.9-1.4 1.7-1.8.9-.5 2-.6 2.8-.4zm-3.1 5c.4.7 1 1.3 1.6 1.5.6.2 1.2.1 1.8-.2 1.4-.7 1.7-2.1.9-3.5-.9-1.6-2.2-2.1-3.5-1.3-1.3.6-1.6 2-.8 3.5zM63.2 67.9c.2.2.2.5-.1.8-.2.2-.6.2-.8 0l-4.2-4.4c-.4-.5-.4-1 .1-1.4l1.7-1.6c.5-.5 1.2-.9 1.8-.9.6 0 1.1.2 1.5.7.9.9.7 2.2-.5 3.3l-1.6 1.5 2.1 2zM62 63.6c.7-.6.9-1.4.4-1.8-.4-.5-1.1-.3-1.8.3l-1.3 1.2c-.2.2-.2.3 0 .5l1.2 1.2 1.5-1.4z"/></g><g fill="#F6CCD3"><circle cx="26.8" cy="9.4" r="9.4"/><circle cx="9.4" cy="22.7" r="9.4"/><circle cx="49.8" cy="9.4" r="9.4"/><circle cx="67.2" cy="22.7" r="9.4"/><path d="M38.5 21.2c-24.7 0-35.4 37.9 0 37.9 35.3-.1 24.7-37.9 0-37.9z"/></g></svg>