<?xml version="1.0" encoding="utf-8"?>
<!-- Generator: Adobe Illustrator 16.0.0, SVG Export Plug-In . SVG Version: 6.00 Build 0)  -->
<!DOCTYPE svg PUBLIC "-//W3C//DTD SVG 1.1//EN" "http://www.w3.org/Graphics/SVG/1.1/DTD/svg11.dtd">
<svg version="1.1" id="Layer_1" xmlns="http://www.w3.org/2000/svg" xmlns:xlink="http://www.w3.org/1999/xlink" x="0px" y="0px"
	 width="486.654px" height="486.654px" viewBox="0 0 486.654 486.654" enable-background="new 0 0 486.654 486.654"
	 xml:space="preserve">
<path fill="#C44047" d="M403.606,431.6c0,0-15.813-239.913-16.534-250.002c-0.714-10.104-9.343-8.91-9.343-8.91
	s-9.48-0.05-24.858-0.12c0.051-0.345,0.073-0.701-0.023-1.06c-1.508-5.674-38.051-139.2-129.557-141.026
	c-18.401-0.358-34.562,4.952-47.832,15.824c-44.149,36.176-43.002,121.437-42.933,125.041c0.004,0.092,0.056,0.156,0.068,0.235
	c-13.248-0.056-22.139-0.087-24.397-0.087c-0.766,0-1.453,0.027-2.098,0.069c-4.71,0.599-6.13,4.475-6.55,6.752l-7.163,96.507
	c0,0-9.352,141.934-9.352,153.812c0,11.875,5.757,10.69,5.757,10.69s292.537,0,304.03,0
	C404.331,439.326,403.606,431.6,403.606,431.6z M187.841,67.955c10.204-8.366,22.558-12.438,36.753-12.182
	c72.62,1.458,104.522,111.703,106.312,118.123c-45.229-0.218-133.294-0.618-178.526-0.807c0.016-0.111,0.073-0.212,0.073-0.321
	C152.433,172.022,151.421,97.795,187.841,67.955z M305.914,255.097c0,15.396-12.482,27.878-27.88,27.878
	c-15.396,0-27.877-12.481-27.877-27.878c0-15.396,12.481-27.877,27.877-27.877C293.432,227.219,305.914,239.701,305.914,255.097z
	 M237.038,255.097c0,15.396-12.48,27.878-27.877,27.878s-27.878-12.481-27.878-27.878c0-15.396,12.481-27.877,27.878-27.877
	S237.038,239.701,237.038,255.097z M128.808,295.001c0-15.397,12.482-27.879,27.878-27.879c15.396,0,27.878,12.481,27.878,27.879
	c0,15.396-12.481,27.878-27.878,27.878C141.29,322.879,128.808,310.396,128.808,295.001z M244.145,404.325
	c-106.045,0-73.794-113.698,0-113.698S350.189,403.778,244.145,404.325z M329.965,322.879c-15.396,0-27.878-12.482-27.878-27.878
	c0-15.397,12.481-27.879,27.878-27.879c15.396,0,27.877,12.481,27.877,27.879C357.842,310.396,345.36,322.879,329.965,322.879z"/>
<path display="none" fill="#FFF200" d="M313.327,243.694c-1.907,0.326-3.086,1.678-2.637,3.03
	c0.161,0.506,16.284,50.939-14.665,78.092c-13.5,11.852-34.261,17.619-61.65,17.209c-29.547-0.471-51.625-7.197-65.629-19.998
	c-28.098-25.678-14.963-67.783-14.827-68.203c0.437-1.359-0.75-2.713-2.657-3.025c-1.907-0.301-3.798,0.537-4.247,1.895
	c-0.585,1.818-14.038,44.826,16.114,72.416c15.383,14.062,39.296,21.447,71.098,21.955c1.01,0.008,2.006,0.018,3.001,0.018
	c28.229,0,49.858-6.414,64.295-19.082c33.111-29.064,16.772-80.254,16.064-82.414C317.133,244.224,315.238,243.384,313.327,243.694z
	"/>
<path display="none" fill="#FFF200" d="M157.954,223.844c6.345,0,11.478-4.251,11.478-9.485c0-5.239-5.133-9.482-11.478-9.482
	c-6.337,0-11.474,4.243-11.474,9.482C146.48,219.593,151.617,223.844,157.954,223.844z"/>
<path display="none" fill="#FFF200" d="M312.746,204.784c-6.337,0-11.474,4.234-11.474,9.478c0,5.238,5.137,9.481,11.474,9.481
	s11.479-4.243,11.479-9.481C324.225,209.018,319.083,204.784,312.746,204.784z"/>
</svg>
