<?xml version="1.0" encoding="utf-8"?>
<!-- Generator: Adobe Illustrator 16.0.0, SVG Export Plug-In . SVG Version: 6.00 Build 0)  -->
<!DOCTYPE svg PUBLIC "-//W3C//DTD SVG 1.1//EN" "http://www.w3.org/Graphics/SVG/1.1/DTD/svg11.dtd">
<svg version="1.1" id="Layer_1" xmlns="http://www.w3.org/2000/svg" xmlns:xlink="http://www.w3.org/1999/xlink" x="0px" y="0px"
	 width="455px" height="455px" viewBox="0 0 455 455" enable-background="new 0 0 455 455" xml:space="preserve">
<g>
	<path fill="#49463F" d="M439.932,15.203c-14.75-14.75-38.662-14.75-53.411,0L261.395,140.326
		c-12.311,12.312-14.338,31.006-6.096,45.428L370.588,70.467c3.889-3.889,10.191-3.889,14.081-0.002
		c3.888,3.891,3.888,10.195-0.001,14.082L269.381,199.836c14.422,8.24,33.113,6.215,45.426-6.096L439.932,68.615
		C454.681,53.865,454.681,29.953,439.932,15.203z"/>
	<path fill="#49463F" d="M15.12,15.203c-14.75,14.75-14.75,38.662,0,53.412L140.245,193.74
		c12.311,12.311,31.004,14.338,45.426,6.096L70.382,84.547c-3.888-3.887-3.889-10.191,0-14.08c3.889-3.889,10.194-3.889,14.083,0
		l115.289,115.287c8.241-14.422,6.215-33.115-6.096-45.426L68.532,15.203C53.782,0.453,29.869,0.453,15.12,15.203z"/>
	<path fill="#49463F" d="M15.12,440.016c14.749,14.75,38.662,14.75,53.411,0l125.126-125.125
		c12.311-12.312,14.337-31.004,6.096-45.426L84.464,384.752c-3.889,3.889-10.193,3.889-14.081,0
		c-3.889-3.889-3.889-10.191-0.001-14.082l115.289-115.289c-14.422-8.24-33.115-6.213-45.426,6.096L15.12,386.604
		C0.37,401.352,0.371,425.266,15.12,440.016z"/>
	<path fill="#49463F" d="M439.932,440.016c14.75-14.75,14.75-38.664,0-53.412L314.807,261.479
		c-12.312-12.311-31.004-14.338-45.426-6.098L384.669,370.67c3.888,3.891,3.888,10.193,0,14.082c-3.889,3.889-10.192,3.889-14.081,0
		L255.299,269.463c-8.242,14.424-6.215,33.115,6.096,45.426L386.52,440.016C401.27,454.766,425.183,454.764,439.932,440.016z"/>
	<path fill="#ED1C81" d="M227.525,41.555c-7.633,0-13.82,6.188-13.82,13.82v64.746c0,7.635,6.187,13.82,13.819,13.82
		c7.631,0,13.819-6.186,13.819-13.82V55.375C241.345,47.742,235.156,41.555,227.525,41.555z"/>
	<path fill="#ED1C81" d="M41.472,227.609c0,7.633,6.187,13.82,13.819,13.82h64.747c7.633,0,13.82-6.188,13.82-13.82
		c0-7.631-6.187-13.82-13.82-13.82H55.291C47.659,213.789,41.472,219.979,41.472,227.609z"/>
	<path fill="#ED1C81" d="M227.525,413.662c7.633,0,13.82-6.186,13.82-13.818v-64.748c0-7.631-6.188-13.82-13.819-13.82
		c-7.632,0-13.819,6.189-13.819,13.82v64.748C213.707,407.477,219.894,413.662,227.525,413.662z"/>
	<path fill="#ED1C81" d="M413.578,227.609c0-7.633-6.187-13.822-13.818-13.822h-64.746c-7.634,0-13.82,6.189-13.82,13.82
		c0,7.633,6.187,13.82,13.819,13.82h64.747C407.392,241.428,413.578,235.24,413.578,227.609z"/>
</g>
</svg>
