<?xml version="1.0" encoding="utf-8"?>
<!-- Generator: Adobe Illustrator 16.0.0, SVG Export Plug-In . SVG Version: 6.00 Build 0)  -->
<!DOCTYPE svg PUBLIC "-//W3C//DTD SVG 1.1//EN" "http://www.w3.org/Graphics/SVG/1.1/DTD/svg11.dtd">
<svg version="1.1" id="Layer_1" xmlns="http://www.w3.org/2000/svg" xmlns:xlink="http://www.w3.org/1999/xlink" x="0px" y="0px"
	 width="500px" height="500px" viewBox="0 0 500 500" enable-background="new 0 0 500 500" xml:space="preserve">
<g>
	<path fill="#563E7D" d="M250.036,4.594c-138.278,0-250.359,112.089-250.364,250.36c0.005,98.913,57.366,184.417,140.631,225.075
		c27.806-64.006,16.616-111.091,16.616-111.091s-13.799-23.151-43.852-19.218l4.431-5.913l-16.251-0.979l11.323-13.796h-11.323
		l9.358-11.329l-24.139-4.437l9.853-7.394l-7.887-7.877c0,0,20.69-5.913,19.213-30.057c-1.071-17.515-0.845-37.104,5.567-54.446
		c2.426-6.556-6.549-96.312-0.146-106.165c7.23-11.123,71.438,50.743,71.438,50.743s13.303-14.287,65.53-14.287
		c52.21-0.002,65.521,14.287,65.521,14.287S379.766,96.205,387,107.331c6.398,9.851-2.582,99.607-0.152,106.163
		c6.418,17.343,6.639,36.931,5.56,54.446c-1.47,24.144,19.223,30.057,19.223,30.057l-7.885,7.883l9.851,7.388l-24.137,4.437
		l9.355,11.329h-11.33l11.33,13.796l-16.26,0.979l4.445,5.913c-30.053-3.934-43.853,19.222-43.853,19.222
		s-11.188,47.086,16.615,111.097c83.265-40.659,140.628-126.172,140.628-225.081C500.391,116.683,388.304,4.594,250.036,4.594z"/>
	<path opacity="0.5" fill="#563E7D" d="M156.919,368.938c0,0-0.406-0.651-1.14-1.654l-73.494,73.494
		c17.323,15.64,36.827,28.904,58.018,39.251C168.108,416.023,156.919,368.938,156.919,368.938z"/>
	<path opacity="0.5" fill="#563E7D" d="M500.391,254.958c0-64.538-24.43-123.358-64.533-167.756l-46.537,46.54
		c-0.316,30.177-4.164,75.18-2.473,79.751c6.418,17.343,6.639,36.931,5.56,54.446c-1.47,24.144,19.223,30.057,19.223,30.057
		l-7.885,7.883l9.851,7.388l-24.137,4.437l9.355,11.329h-11.33l11.33,13.796l-16.26,0.979l4.445,5.913
		c-30.053-3.934-43.853,19.222-43.853,19.222s-11.188,47.086,16.615,111.097C443.027,439.38,500.391,353.867,500.391,254.958z"/>
</g>
</svg>
