<?xml version="1.0" encoding="utf-8"?>
<!-- Generator: Adobe Illustrator 16.0.0, SVG Export Plug-In . SVG Version: 6.00 Build 0)  -->
<!DOCTYPE svg PUBLIC "-//W3C//DTD SVG 1.1//EN" "http://www.w3.org/Graphics/SVG/1.1/DTD/svg11.dtd">
<svg version="1.1" id="Layer_1" xmlns="http://www.w3.org/2000/svg" xmlns:xlink="http://www.w3.org/1999/xlink" x="0px" y="0px"
	 width="450px" height="450px" viewBox="0 0 450 450" enable-background="new 0 0 450 450" xml:space="preserve">
<path fill="#228BF2" d="M441.692,303.786c70.614-231.679-326.771-472.742-427.154-140.74
	C-86.539,494.326,371.77,535.465,441.692,303.786z"/>
<g>
	<path fill="#FFFFFF" d="M257.096,169.836c0,0,48.261-62.931,72.847-62.931c23.68,1,20.031,114.872,8.197,132.851
		C324.479,256.736,256.184,177.827,257.096,169.836 M178.111,169.708c0,0-46.724-64.042-70.527-63.042
		c-22.922,1-19.395,115.075-7.934,133.085C112.874,256.766,178.993,177.713,178.111,169.708"/>
	<path fill="#FFFFFF" d="M353.329,278.292c0,60.58-60.14,99.919-134.287,99.919c-74.146,0-134.287-38.552-134.287-99.132
		c0-60.581,60.142-114.868,134.287-114.868C292.367,164.997,353.329,217.71,353.329,278.292"/>
</g>
</svg>
