<?xml version="1.0" encoding="utf-8"?>
<!-- Generator: Adobe Illustrator 16.0.0, SVG Export Plug-In . SVG Version: 6.00 Build 0)  -->
<!DOCTYPE svg PUBLIC "-//W3C//DTD SVG 1.1//EN" "http://www.w3.org/Graphics/SVG/1.1/DTD/svg11.dtd">
<svg version="1.1" id="Layer_1" xmlns="http://www.w3.org/2000/svg" xmlns:xlink="http://www.w3.org/1999/xlink" x="0px" y="0px"
	 width="400px" height="400px" viewBox="0 0 400 400" enable-background="new 0 0 400 400" xml:space="preserve">
<polygon fill="#010101" points="120.639,318.43 138.463,318.43 138.108,298.968 120.994,298.968 "/>
<polygon fill="#080505" points="129.551,236.813 105.946,242.647 129.551,242.647 153.156,242.647 "/>
<rect x="113.661" y="242.648" fill="#AF3424" width="31.78" height="4.263"/>
<polygon fill="#E75B27" points="139.904,318.43 118.525,318.43 120.039,246.91 138.389,246.91 "/>
<rect x="127.341" y="254.316" fill="#AF3424" width="3.747" height="11.443"/>
<rect x="127.341" y="287.524" fill="#AF3424" width="3.747" height="11.443"/>
<polygon fill="#080505" points="118.525,318.43 139.904,318.43 139.559,302.109 118.871,302.109 "/>
<path fill="#E75B27" d="M94.617,152.453l-14.746-14.746l14.746-14.746l14.745,14.746L94.617,152.453z M88.297,137.707l6.32,6.319
	l6.319-6.319l-6.319-6.32L88.297,137.707z"/>
<path fill="#E75B27" d="M112.727,152.453L97.98,137.707l14.746-14.746l14.745,14.746L112.727,152.453z M106.406,137.707l6.32,6.319
	l6.319-6.319l-6.319-6.32L106.406,137.707z"/>
<path fill="#E75B27" d="M287.274,152.453l-14.746-14.746l14.746-14.746l14.745,14.746L287.274,152.453z M280.955,137.707
	l6.319,6.319l6.319-6.319l-6.319-6.32L280.955,137.707z"/>
<path fill="#E75B27" d="M305.384,152.453l-14.746-14.746l14.746-14.746l14.745,14.746L305.384,152.453z M299.063,137.707l6.32,6.319
	l6.319-6.319l-6.319-6.32L299.063,137.707z"/>
<path fill="#595A5C" d="M388.084,43.442c0,0-25.242,21.685-97.89,21.685"/>
<path fill="#595A5C" d="M290.194,65.127H200h-90.194c-72.648,0-97.89-21.685-97.89-21.685c6.773,30.305,86.808,27.55,86.808,27.55
	H200h101.276c0,0,80.034,2.755,86.808-27.55"/>
<path fill="#040303" d="M288.457,67.505H200h-88.456c-71.249,0-96.004-17.293-96.004-17.293
	c6.641,29.723,85.135,27.021,85.135,27.021H200h99.325c0,0,78.494,2.702,85.137-27.021
	C384.461,50.212,359.705,67.505,288.457,67.505"/>
<rect x="63.55" y="137.757" fill="#E75B27" width="272.9" height="16.752"/>
<path fill="#E75B27" d="M299.325,77.232H200h-99.325c-53.738,0-73.664-12.43-73.664-12.43c8.453,41.61,39.549,10.496,39.549,36.206
	H200h134.345c0-25.719,30.19,5.404,38.645-36.206C372.989,64.803,353.063,77.232,299.325,77.232"/>
<path fill="#AF3424" d="M100.675,80.793H200h99.325c47.109,0,68.23-9.552,72.725-11.907c0.336-1.31,0.651-2.666,0.939-4.083
	c0,0-19.927,12.43-73.664,12.43H200h-99.325c-53.738,0-73.664-12.43-73.664-12.43c0.288,1.417,0.605,2.774,0.943,4.085
	C32.457,71.248,53.58,80.793,100.675,80.793"/>
<polygon fill="#E75B27" points="116.911,338.243 90.432,338.243 94.755,101.01 112.588,101.01 "/>
<polygon fill="#E75B27" points="309.568,338.243 283.09,338.243 287.412,101.01 305.245,101.01 "/>
<polygon fill="#AF3424" points="94.755,101.01 94.617,108.59 112.726,108.59 112.588,101.01 "/>
<polygon fill="#AF3424" points="287.412,101.01 287.274,108.59 305.383,108.59 305.245,101.01 "/>
<rect x="112.726" y="137.757" fill="#AF3424" width="6.281" height="16.752"/>
<rect x="305.383" y="137.757" fill="#AF3424" width="6.281" height="16.752"/>
<rect x="87.291" y="137.757" fill="#AF3424" width="6.281" height="16.752"/>
<rect x="279.948" y="137.757" fill="#AF3424" width="6.28" height="16.752"/>
<rect x="178.666" y="87.466" fill="#080505" width="42.667" height="62"/>
<polygon fill="#AF3424" points="65.21,231.578 131.087,254.315 131.087,265.76 127.34,265.76 65.21,254.187 "/>
<polygon fill="#080505" points="62.174,197 15.539,208.526 62.174,208.526 108.809,208.526 "/>
<rect x="30.782" y="208.526" fill="#AF3424" width="62.785" height="8.423"/>
<polygon fill="#E75B27" points="105.946,242.647 105.946,274.25 115.79,276.747 115.128,240.379 "/>
<polygon fill="#AF3424" points="127.341,287.524 57.808,297.186 65.211,297.186 65.211,319.794 127.341,298.968 "/>
<polygon fill="#E75B27" points="105.946,283.053 105.946,314.655 116.597,321 115.813,278.001 "/>
<polyline fill="#010101" points="44.567,358.243 79.782,358.243 79.082,319.794 45.268,319.794 44.567,358.243 "/>
<polyline fill="#E75B27" points="40.39,358.243 43.382,216.948 79.636,216.948 82.628,358.243 40.39,358.243 "/>
<rect x="57.807" y="231.577" fill="#AF3424" width="7.403" height="22.608"/>
<rect x="57.807" y="297.185" fill="#AF3424" width="7.403" height="22.609"/>
<polyline fill="#080505" points="40.391,358.243 82.628,358.243 81.945,326.001 41.073,326.001 40.391,358.243 "/>
<polygon fill="#010101" points="279.525,318.43 261.701,318.43 262.056,298.968 279.171,298.968 "/>
<polygon fill="#080505" points="270.613,236.813 294.219,242.647 270.613,242.647 247.009,242.647 "/>
<rect x="254.723" y="242.648" fill="#AF3424" width="31.78" height="4.263"/>
<polygon fill="#E75B27" points="260.261,318.43 281.64,318.43 280.125,246.91 261.775,246.91 "/>
<rect x="269.077" y="254.316" fill="#AF3424" width="3.747" height="11.443"/>
<rect x="269.077" y="287.524" fill="#AF3424" width="3.747" height="11.443"/>
<polygon fill="#080505" points="281.64,318.43 260.261,318.43 260.605,302.109 281.294,302.109 "/>
<polygon fill="#AF3424" points="334.954,231.578 269.077,254.315 269.077,265.76 272.824,265.76 334.954,254.187 "/>
<polygon fill="#080505" points="337.99,197 384.625,208.526 337.99,208.526 291.355,208.526 "/>
<rect x="306.597" y="208.526" fill="#AF3424" width="62.785" height="8.423"/>
<polygon fill="#E75B27" points="294.219,242.647 294.219,274.25 284.374,276.747 285.036,240.379 "/>
<polygon fill="#AF3424" points="272.823,287.524 342.356,297.186 334.953,297.186 334.953,319.794 272.823,298.968 "/>
<polygon fill="#E75B27" points="294.219,283.053 294.219,314.655 283.567,321 284.352,278.001 "/>
<polygon fill="#010101" points="355.598,358.243 320.383,358.243 321.083,319.794 354.896,319.794 "/>
<polygon fill="#E75B27" points="317.536,358.243 359.774,358.243 356.782,216.948 320.528,216.948 "/>
<rect x="334.954" y="231.577" fill="#AF3424" width="7.403" height="22.608"/>
<rect x="334.954" y="297.185" fill="#AF3424" width="7.403" height="22.609"/>
<polygon fill="#080505" points="359.774,358.243 317.536,358.243 318.219,326.001 359.091,326.001 "/>
</svg>
