<?xml version="1.0" encoding="utf-8"?>
<!-- Generator: Adobe Illustrator 16.0.0, SVG Export Plug-In . SVG Version: 6.00 Build 0)  -->
<!DOCTYPE svg PUBLIC "-//W3C//DTD SVG 1.1//EN" "http://www.w3.org/Graphics/SVG/1.1/DTD/svg11.dtd">
<svg version="1.1" id="Layer_1" xmlns="http://www.w3.org/2000/svg" xmlns:xlink="http://www.w3.org/1999/xlink" x="0px" y="0px"
	 width="450px" height="450px" viewBox="0 0 450 450" enable-background="new 0 0 450 450" xml:space="preserve">
<path fill="#FFFFFF" d="M219.269,441.062l0.683-10.771l6.828-3.119c13.26-6.055,20.677-11.117,24.08-17.836
	c4.271-8.418,5.108-19.693,2.771-26.453c-1.294-3.742,1.568-6.074,6.329-6.074c10.604,0,43.033-10.502,57.238-17.154
	c8.139-3.811,50.824-31.822,53.811-35.424c0.645-0.773,5.302-1.182,13.006-1.168c5.187,0.008,12.869-1.242,15.744-1.641
	c12.216-1.689,20.118-5.578,24.093-11.396c1.104-1.623,3.97-2.242,4.898-1.984c0.679,0.184,8.13,2.547,15.129,4.77"/>
<path id="path5851" fill="#FFFFFF" d="M380.07,316.918c9.05-11.383,17.682-25.309,26.078-42.062l4.421-8.812l2.277,1.328
	c6.781,3.953,11.795,17.062,11.787,30.809c-0.009,7.725-0.95,10.385-4.895,13.865c-6.712,5.904-19.039,9.514-35.114,10.279
	l-9.199,0.438L380.07,316.918z"/>
<path id="path5853" fill="#FEDD56" d="M420.01,277.43c-0.614,0.021-1.241,0.365-1.521,1.189c-0.121,0.371-0.258,0.723-0.379,1.088
	c-0.146,0.443-0.296,0.916-0.434,1.357c-0.146,0.447-0.245,0.855-0.383,1.303c-0.133,0.434-0.283,0.881-0.434,1.307
	c-0.146,0.434-0.283,0.871-0.434,1.301c-0.15,0.443-0.34,0.863-0.49,1.303c-0.146,0.434-0.275,0.881-0.434,1.307
	c-0.159,0.434-0.327,0.867-0.486,1.305c-0.154,0.418-0.326,0.83-0.489,1.246c-0.168,0.422-0.318,0.834-0.49,1.252
	c-0.181,0.438-0.374,0.91-0.546,1.357c-0.167,0.43-0.317,0.82-0.485,1.25c-0.167,0.416-0.31,0.834-0.489,1.246
	c-0.189,0.426-0.396,0.885-0.598,1.307c-0.206,0.426-0.43,0.824-0.653,1.246c-0.224,0.43-0.468,0.885-0.704,1.307
	c-0.245,0.424-0.46,0.824-0.709,1.25c-0.25,0.426-0.503,0.877-0.757,1.301c-0.253,0.418-0.498,0.834-0.761,1.252
	c-0.258,0.398-0.541,0.803-0.816,1.193c-0.271,0.369-0.571,0.73-0.867,1.088c-0.301,0.352-0.606,0.691-0.924,1.031
	c-0.306,0.318-0.589,0.631-0.924,0.924c-0.353,0.305-0.723,0.627-1.088,0.92c-0.369,0.291-0.752,0.541-1.143,0.816
	c-0.374,0.266-0.743,0.574-1.139,0.816c-0.391,0.236-0.782,0.438-1.194,0.648c-0.426,0.223-0.868,0.447-1.302,0.652
	c-0.443,0.211-0.864,0.391-1.303,0.598c-0.438,0.207-0.919,0.451-1.357,0.652c-0.447,0.199-0.859,0.4-1.307,0.594
	c-0.438,0.193-0.863,0.365-1.302,0.545c-0.446,0.182-0.911,0.365-1.357,0.547c-0.451,0.176-0.907,0.312-1.358,0.484
	s-0.906,0.379-1.357,0.547c-0.442,0.158-0.859,0.287-1.307,0.43c-0.408,0.137-0.829,0.279-1.246,0.383
	c-0.416,0.111-0.833,0.223-1.25,0.326c-0.408,0.098-0.842,0.176-1.25,0.275c-0.387,0.086-0.752,0.18-1.139,0.27
	c-0.357,0.074-0.73,0.143-1.088,0.215c-0.322,0.064-0.648,0.111-0.975,0.164c-0.275,0.043-0.546,0.125-0.816,0.162
	c-0.189,0.027-0.357,0.027-0.542,0.057c-0.159,0.018-0.335,0.025-0.489,0.051c-0.116,0.021-0.215,0.035-0.327,0.053
	c-0.095,0.021-0.107,0.047-0.163,0.055c-2.299,0.361-1.813,3.619,0.49,3.262c0.09-0.012,0.18-0.039,0.271-0.055
	c0.09-0.018,0.181-0.039,0.271-0.053c0.125-0.021,0.258-0.039,0.378-0.055c0.206-0.031,0.396-0.027,0.598-0.057
	c0.292-0.039,0.584-0.111,0.872-0.158c0.353-0.061,0.734-0.156,1.083-0.221c0.382-0.076,0.765-0.137,1.143-0.219
	c0.408-0.09,0.791-0.176,1.199-0.27c0.417-0.1,0.829-0.172,1.246-0.271c0.434-0.107,0.868-0.215,1.306-0.326
	c0.422-0.107,0.83-0.246,1.246-0.379c-0.09,0.039-0.528,0.207-0.545,0.215c-0.064,0.064,0.915,0.039,2.174-0.055
	c12.362-0.898,23.255-4.865,28.621-10.43c1.874-1.938,2.441-3.041,2.991-5.865c0.434-2.238,0.374-8.748-0.112-12.057
	c-0.344-2.371-1.164-6.678-1.517-8.039c0.034-0.104,0.073-0.219,0.107-0.326c0.134-0.43,0.292-0.816,0.435-1.246
	c0.124-0.365,0.258-0.773,0.378-1.139C422.103,278.275,421.041,277.387,420.01,277.43L420.01,277.43z"/>
<path id="path5855" fill="#FFFFFF" d="M245.05,369.559c-7.833-7.209-17.54-11.334-30.177-9.801
	c-7.816,0.949-11.859,3.82-16.736,7.09c-2.27,1.521-4.907,4.752-5.204,4.576c-0.288-0.186-6.114-2.914-11.331-4.412
	c-7.842-2.256-15.589-5.316-26.902-9.961c-0.503-0.207,1.719-2.646,3.532-4.662c2.943-3.273,4.791-3.674,3.137-5.332
	c-2.032-2.029-4.684-1.561-7.945,2.822l-3.438,4.607l-5.225-3.125c-2.204-1.314-4.804-3.326-4.804-3.523
	c0-0.193,3.639-4,6.711-6.896c3.365-3.166,5.156-4.773,5.156-5.512c0-2.355-0.051-2.42-2.238-2.42c-1.771,0-2.303,1.303-7.322,6.051
	c-3.248,3.072-6.458,6.402-6.655,6.402c-0.49,0-13.574-9.857-17.472-13.648c-6.956-6.768-13.926-16.357-18.369-25.152
	c-2.41-4.766-6.367-14.271-9.754-27.062c-0.356-1.34-1.194-4.332-1.989-4.744c-0.756-0.395-4.821-2.127-7.894-4.416
	c-3.072-2.291-8.254-6.896-13.032-10.42c-11.202-8.264-27.147-23.346-35.896-32.335c-7.619-7.829-13.355-16.242-16.926-21.772
	l-4.594-7.111l3.434-6.394c2.123-3.953,11.348-11.696,19.452-18.125c14.067-11.15,45.19-32.592,69.656-41.778
	c10.454-3.927,15.267-5.93,25.889-9.341c7.124-2.291,14.287-4.98,16.113-5.788c3.772-1.667,14.137-7.296,20.625-11.442
	c14.085-8.998,10.726-8.654,11.404-16.148c0.215-2.385,1.151-7.416,2.346-13.049c1.194-5.638,4.388-15.619,5.749-22.443
	c4.155-20.818,10.484-39.385,13.059-39.385c1.121,0,27.165,13.075,37.718,18.919c8.263,4.567,18.464,11.112,29.305,19.556
	c10.446,8.138,16.027,12.834,23.208,20.883c17.634,19.757,16.758,18.3,25.248,22.412c9.066,4.383,16.844,10.939,30.354,23.13
	c15.58,14.063,24.539,25.468,30.349,35.879c1.461,2.621,5.899,10.854,10.128,18.095c16.147,27.65,18.249,30.709,21.141,44.382
	c2.187,10.364,1.977,11.706-1.865,12.215c-4.752,0.629-6.97,1.273-4.877,4.135c0.675,0.928,0.322,0.326,3.395,0.098l4.533-0.33
	l0.49,5.974l-0.163,6.027l-3.485-0.438c-2.737-0.348-3.175,0.029-3.175,2.428c0,2.041-0.735,2.002,2.397,1.881l4.15-0.154
	l1.431,6.648l-0.223,8.18l-5.027,10.678c-6.209,13.188-10.828,23.869-18.163,33.654c-9.514,12.68-12.788,13.762-38.767,31.1
	c-19.392,12.939-25.652,17.488-31.625,20.008c-16.595,6.994-47.025,14.91-58.729,14.072l-5.758-0.414l-2.952-2.389l-0.929-1.246
	L245.05,369.559z M220.484,315.793c0.576-0.938,0.684-0.49-1.289-2.312c-2.544-2.346-2.389-2.914-2.768-0.932
	c-0.249,1.293,2.127,3.953,3.494,3.732C220.395,316.205,220.106,316.406,220.484,315.793z M229.275,310.545
	c0.164-1.146,0.662-0.086-1.757-1.125c-3.52-1.508-2.857-2.531-3.128-0.645c-0.159,1.131-0.662,0.602,1.495,1.59
	C229.232,311.898,229.014,312.402,229.275,310.545z M296.238,302.846c3.872-1.404,5.14-3.863,7.348-12.65l0.417-2.982l4.22,1.66
	c4.318,1.701,8.31,2.256,10.854,0.652c3.661-2.307,5.521-7.609,2.419-7.609c-1.146,0-0.648,1.121-1.186,2.719
	c-1.517,4.5-6.334,5.682-13.861,1.891c-2.402-1.211-3.645-2.422-4.069-2.26c-0.451,0.172-0.129,1.006-0.378,3.473
	c-0.8,7.939-3.829,12.801-7.34,13.682c-1.929,0.484-6.668-0.297-7.971-1.6c-1.22-1.215-2.002-1.748-2.272-0.334
	c-0.112,0.588-0.426,0.807,0.446,1.611c2.918,2.707,6.063,3.889,9.866,2.299L296.238,302.846z M217.743,278.641
	c3.661-3.051,3.944-2.031,6.016-6.445c2.165-4.623-1.771-5.881-3.786-10.27c-5.856-12.762-5.98-14.42-15.838-4.562
	c-1.744,1.744-3.395,4.727-3.395,5.143c0,0.426-4.997,2.412-5.475,2.803c-2.229,1.855-0.056,3.012,2.162,7.871
	c4.691,10.266,2.221,12.07,13.07,8.973l4.611-1.314L217.743,278.641z M378.468,246.771c0.154-1.328-0.077-0.959-1.903-1.826
	c-2.759-1.307-2.647-1.84-2.9-0.064c-0.15,1.027-0.202,0.422,1.594,1.379C378.24,247.842,378.228,248.82,378.468,246.771z
	 M346.796,235.702c4.812-2.424,6.501-3.975,5.809-12.178c-0.416-4.932-2.475-9.417-4.598-12.864
	c-3.592-5.818-3.884-5.741-8.546-5.754c-3.038-0.009-4.091,0.757-5.822,3.837c-1.573,2.798-1.022,5.229-0.589,6.407
	c0.142,0.391-0.322,3.261,0.168,6.114C335.895,236.764,337.811,240.223,346.796,235.702z M380.032,241.258
	c0-1.275,0.12-0.617-1.934-1.047c-3.124-0.65-2.746-1.234-2.746,0.67c0,1.705-0.387,1.215,2.947,1.064
	C380.165,241.865,380.032,242.564,380.032,241.258z"/>
<path id="path5857" fill="#FFE681" d="M177.997,97.919l-1.19-0.357l1.019-5.912c2.183-12.646,11.885-51.743,15.512-62.523
	c1.929-5.732,4.778-12.99,5.264-13.406c0.068-0.061,0.038,4.202-0.073,9.47c-0.224,10.983,0.576,17.729,3.67,30.989
	c2.818,12.087,8.172,27.169,11.859,33.417c0.846,1.427,0.958,2.045,0.464,2.552c-1.053,1.088-8.891,3.674-14.257,4.705
	C195.038,97.855,180.162,98.568,177.997,97.919L177.997,97.919L177.997,97.919z"/>
<path id="path5859" fill="#E6E6E5" d="M130.59,336.977c0.111,0.033,0.193,0.119,0.274,0.197c0.12,0.104,0.249,0.211,0.37,0.312
	c0.188,0.168,0.365,0.35,0.541,0.529c0.193,0.193,0.378,0.387,0.567,0.584c0.181,0.186,0.36,0.379,0.541,0.562
	c0.172,0.182,0.344,0.361,0.516,0.543c0.168,0.172,0.335,0.344,0.503,0.516c0.163,0.162,0.331,0.33,0.494,0.494
	c0.163,0.158,0.326,0.312,0.49,0.473c0.158,0.154,0.317,0.312,0.473,0.473c0.154,0.158,0.305,0.316,0.455,0.477
	c0.146,0.162,0.288,0.322,0.43,0.484c0.138,0.156,0.271,0.314,0.399,0.469c0.134,0.16,0.258,0.322,0.353,0.504
	c0.073,0.145,0.107,0.305,0.129,0.459c0.013,0.24-0.052,0.426-0.344,0.529c-0.193,0.064-0.297-0.049-0.408-0.15
	c-0.099-0.117-0.168-0.25-0.24-0.387c-0.078-0.15-0.143-0.311-0.211-0.465c-0.077-0.172-0.154-0.344-0.232-0.516
	c-0.072-0.168-0.146-0.344-0.219-0.516s-0.138-0.34-0.202-0.516c-0.064-0.168-0.124-0.34-0.185-0.512
	c-0.061-0.158-0.125-0.312-0.189-0.469c-0.068-0.145-0.142-0.287-0.215-0.43c-0.068-0.123-0.146-0.244-0.223-0.359
	c-0.048-0.061-0.078-0.125-0.134-0.178c-0.017-0.016-0.004,0-0.004,0c0.111,0.086,0.253,0.082,0.36-0.008
	c0.005,0,0.009-0.008,0.009-0.004c0,0-0.052,0.15-0.056,0.162c-0.025,0.092-0.047,0.186-0.064,0.275
	c-0.013,0.096-0.025,0.189-0.03,0.289c-0.009,0.09-0.004,0.18,0.005,0.27c0.004,0.078,0.029,0.16,0.056,0.232
	c0.043,0.115,0.09,0.232,0.138,0.348c0.047,0.121,0.103,0.236,0.158,0.357c0.057,0.115,0.116,0.236,0.177,0.352
	c0.06,0.111,0.12,0.225,0.185,0.336c0.068,0.107,0.138,0.211,0.206,0.318c0.069,0.102,0.138,0.205,0.211,0.305
	c0.06,0.082,0.12,0.158,0.188,0.236c0.052,0.043-0.017-0.014-0.025-0.018c-0.039-0.021-0.052-0.018-0.099-0.029
	c-0.061-0.01-0.107,0.004-0.155,0.029c-0.064,0.025-0.107,0.107-0.133,0.146c0.004-0.021,0-0.014,0-0.035
	c-0.009-0.051-0.018-0.107-0.03-0.154c-0.013-0.078-0.034-0.15-0.056-0.229c-0.021-0.086-0.047-0.172-0.073-0.252
	c-0.025-0.086-0.056-0.172-0.081-0.264c-0.035-0.094-0.069-0.188-0.1-0.283c-0.034-0.098-0.068-0.193-0.103-0.287
	c-0.039-0.1-0.077-0.203-0.112-0.301c-0.034-0.1-0.068-0.197-0.107-0.297c-0.034-0.094-0.068-0.186-0.107-0.279
	c-0.013-0.051-0.038-0.061-0.064-0.072c-0.047-0.035-0.103-0.057-0.158-0.074c-0.043-0.008-0.082-0.012-0.121-0.004
	c0,0,0.009-0.004,0.009,0c-0.004,0.014-0.09,0.043-0.12,0.061c-0.056,0.029-0.116,0.064-0.172,0.104
	c-0.047,0.033-0.095,0.072-0.138,0.111c-0.03,0.025-0.064,0.055-0.09,0.094c-0.021,0.014-0.039,0.074-0.013,0.01
	c0.021-0.027-0.005-0.15,0.025-0.064c0.021,0.051,0.043,0.102,0.068,0.154c0.035,0.068,0.064,0.133,0.1,0.197
	c0.038,0.068,0.077,0.137,0.115,0.201c0.039,0.064,0.082,0.135,0.125,0.199s0.09,0.129,0.142,0.193
	c0.048,0.064,0.104,0.123,0.155,0.188c0.056,0.064,0.115,0.121,0.176,0.182c0.064,0.068,0.133,0.133,0.202,0.193
	c0.077,0.068,0.154,0.133,0.231,0.197c0.078,0.068,0.164,0.133,0.245,0.193c0.091,0.068,0.177,0.133,0.267,0.201
	c0.469,0.344-0.021,1.006-0.49,0.662l0,0c-0.094-0.072-0.185-0.137-0.279-0.205c-0.09-0.074-0.18-0.146-0.271-0.221
	c-0.086-0.068-0.172-0.141-0.253-0.219c-0.082-0.068-0.155-0.141-0.232-0.219c-0.073-0.072-0.146-0.146-0.215-0.229
	c-0.064-0.072-0.129-0.145-0.189-0.223c-0.06-0.078-0.115-0.154-0.167-0.232c-0.052-0.082-0.104-0.158-0.155-0.236
	c-0.047-0.082-0.09-0.162-0.137-0.244c-0.039-0.074-0.073-0.15-0.112-0.225c-0.038-0.076-0.073-0.158-0.103-0.244
	c-0.048-0.137-0.078-0.283-0.039-0.434c0.039-0.107,0.086-0.207,0.163-0.293c0.056-0.072,0.12-0.137,0.189-0.201
	c0.068-0.061,0.142-0.121,0.224-0.172c0.077-0.057,0.163-0.107,0.249-0.15c0.124-0.064,0.253-0.125,0.391-0.146
	c0.15-0.018,0.301-0.014,0.451,0.029c0.15,0.049,0.292,0.107,0.421,0.203c0.146,0.111,0.263,0.244,0.331,0.416
	c0.043,0.104,0.082,0.207,0.12,0.314c0.039,0.098,0.073,0.201,0.112,0.301c0.034,0.098,0.068,0.201,0.107,0.301
	c0.034,0.098,0.073,0.197,0.107,0.297c0.03,0.094,0.064,0.193,0.095,0.287c0.034,0.094,0.068,0.189,0.094,0.287
	c0.03,0.092,0.057,0.186,0.082,0.275c0.025,0.096,0.047,0.186,0.068,0.279c0.018,0.096,0.039,0.189,0.043,0.283
	c0.005,0.1,0,0.199-0.025,0.289c-0.039,0.137-0.107,0.266-0.236,0.34c-0.107,0.064-0.224,0.098-0.353,0.086
	c-0.163-0.027-0.301-0.096-0.408-0.225c-0.086-0.094-0.163-0.193-0.24-0.297c-0.077-0.107-0.155-0.219-0.228-0.334
	c-0.082-0.117-0.155-0.236-0.229-0.357c-0.072-0.119-0.142-0.248-0.21-0.373c-0.064-0.129-0.129-0.254-0.189-0.383
	c-0.06-0.129-0.12-0.258-0.172-0.391c-0.056-0.129-0.111-0.258-0.159-0.391c-0.047-0.146-0.09-0.293-0.099-0.443
	c-0.009-0.129-0.013-0.258-0.004-0.383c0.004-0.129,0.021-0.258,0.043-0.383c0.025-0.129,0.052-0.258,0.09-0.381
	c0.048-0.146,0.095-0.297,0.193-0.422c0.026-0.029,0.052-0.064,0.077-0.09c0.15-0.133,0.353-0.182,0.546-0.121
	c0.048,0.018,0.091,0.047,0.134,0.068c0.137,0.107,0.249,0.236,0.339,0.383c0.091,0.143,0.181,0.283,0.263,0.43
	c0.086,0.16,0.167,0.322,0.244,0.486c0.073,0.172,0.146,0.344,0.211,0.523c0.061,0.164,0.116,0.332,0.181,0.498
	c0.064,0.168,0.129,0.332,0.193,0.494c0.068,0.168,0.138,0.332,0.21,0.494c0.078,0.172,0.155,0.344,0.232,0.512
	c0.061,0.143,0.12,0.289,0.193,0.422c0.034,0.064,0.064,0.133,0.104,0.197c0.008,0.004,0.017,0.014,0.017,0.021
	c-0.004,0.008-0.013-0.014-0.017-0.018c-0.021-0.012-0.039-0.039-0.061-0.043c-0.095-0.025-0.202-0.086-0.292-0.047
	c-0.172,0.064-0.327,0.207-0.313,0.383c-0.005-0.064-0.018-0.125-0.039-0.189c-0.064-0.129-0.168-0.236-0.258-0.352
	c-0.125-0.156-0.249-0.307-0.383-0.451c-0.137-0.156-0.274-0.314-0.412-0.469c-0.146-0.15-0.292-0.311-0.438-0.461
	c-0.15-0.154-0.31-0.305-0.46-0.455c-0.167-0.158-0.33-0.318-0.494-0.48c-0.167-0.168-0.335-0.336-0.502-0.504
	c-0.172-0.172-0.344-0.348-0.512-0.523c-0.172-0.18-0.344-0.361-0.52-0.537c-0.177-0.189-0.357-0.379-0.537-0.562
	c-0.186-0.193-0.374-0.387-0.559-0.58c-0.164-0.164-0.322-0.332-0.499-0.482c-0.129-0.111-0.258-0.223-0.387-0.334
	c-0.116-0.107-0.073-0.057,0.026-0.018c-0.551-0.186-0.293-0.967,0.262-0.781H130.59z"/>
<path id="path5861" fill="#FFEEAA" d="M106.97,265.91c0-0.043,0.013,0.115,0.013,0.133C106.979,266,107,266.137,107,266.154
	c0.017,0.082,0.029,0.164,0.051,0.24c0.03,0.139,0.064,0.275,0.1,0.414c0.038,0.158,0.081,0.312,0.12,0.473
	c0.047,0.188,0.103,0.377,0.15,0.562c0.06,0.219,0.124,0.438,0.185,0.652c0.073,0.236,0.142,0.477,0.206,0.719
	c0.069,0.248,0.138,0.498,0.206,0.746c0.073,0.264,0.15,0.516,0.229,0.773c0.086,0.285,0.167,0.568,0.249,0.852
	c0.086,0.293,0.172,0.58,0.258,0.867c0.099,0.307,0.193,0.611,0.292,0.916c0.099,0.318,0.206,0.627,0.313,0.941
	c0.116,0.34,0.232,0.678,0.353,1.014c0.129,0.361,0.258,0.727,0.383,1.088c0.133,0.369,0.262,0.742,0.391,1.111
	c0.133,0.383,0.267,0.762,0.399,1.139c0.138,0.396,0.275,0.795,0.413,1.191c0.137,0.408,0.283,0.812,0.421,1.215
	c0.142,0.408,0.279,0.812,0.421,1.221c0.138,0.404,0.288,0.809,0.438,1.207c0.15,0.418,0.305,0.83,0.464,1.242
	c0.159,0.422,0.318,0.848,0.473,1.264c0.159,0.422,0.322,0.838,0.481,1.26c0.163,0.43,0.317,0.859,0.481,1.293
	c0.158,0.43,0.313,0.867,0.477,1.297c0.154,0.434,0.313,0.863,0.473,1.293c0.159,0.439,0.318,0.881,0.477,1.32
	c0.155,0.43,0.314,0.867,0.469,1.297c0.154,0.443,0.313,0.881,0.469,1.32c0.158,0.445,0.322,0.889,0.485,1.332
	c0.159,0.455,0.326,0.902,0.485,1.354c0.163,0.441,0.322,0.881,0.49,1.322c0.172,0.451,0.335,0.906,0.507,1.363
	c0.167,0.451,0.335,0.902,0.503,1.354c0.163,0.445,0.326,0.893,0.494,1.34c0.172,0.451,0.344,0.902,0.511,1.357
	c0.177,0.469,0.344,0.938,0.516,1.406c0.172,0.463,0.349,0.924,0.524,1.387c0.168,0.455,0.34,0.912,0.512,1.363
	c0.176,0.455,0.344,0.914,0.516,1.369c0.172,0.451,0.344,0.898,0.516,1.35s0.339,0.898,0.511,1.35s0.353,0.895,0.533,1.336
	c0.188,0.465,0.387,0.92,0.58,1.379c0.193,0.447,0.387,0.895,0.584,1.342c0.198,0.447,0.399,0.893,0.598,1.34
	c0.197,0.434,0.399,0.869,0.605,1.303c0.198,0.43,0.408,0.846,0.619,1.268c0.21,0.426,0.43,0.85,0.648,1.275
	c0.224,0.43,0.447,0.859,0.675,1.289c0.228,0.426,0.451,0.852,0.684,1.277c0.228,0.424,0.455,0.85,0.688,1.279
	c0.231,0.418,0.459,0.842,0.691,1.26c0.232,0.42,0.464,0.834,0.705,1.25c0.24,0.416,0.477,0.834,0.726,1.246
	c0.241,0.408,0.485,0.812,0.73,1.221c0.249,0.404,0.494,0.816,0.743,1.221c0.245,0.398,0.499,0.795,0.748,1.193
	c0.249,0.391,0.498,0.783,0.748,1.174c0.244,0.383,0.494,0.77,0.738,1.15c0.258,0.393,0.512,0.779,0.77,1.166
	c0.258,0.391,0.52,0.781,0.786,1.172c0.258,0.379,0.512,0.756,0.778,1.127c0.271,0.377,0.541,0.752,0.82,1.121
	c0.283,0.373,0.576,0.742,0.868,1.113c0.292,0.365,0.593,0.734,0.897,1.09c0.31,0.365,0.619,0.727,0.933,1.088
	c0.31,0.357,0.628,0.709,0.941,1.061c0.317,0.35,0.64,0.697,0.962,1.045c0.322,0.344,0.649,0.688,0.976,1.023
	c0.331,0.344,0.662,0.682,0.997,1.021c0.326,0.336,0.662,0.662,0.997,0.988c0.339,0.336,0.683,0.662,1.026,0.988
	c0.336,0.318,0.675,0.627,1.015,0.941c0.335,0.305,0.675,0.605,1.014,0.906c0.344,0.301,0.688,0.602,1.036,0.898
	c0.352,0.297,0.709,0.584,1.065,0.877c0.36,0.297,0.726,0.584,1.087,0.877c0.356,0.287,0.718,0.574,1.074,0.854
	c0.369,0.285,0.734,0.568,1.1,0.852c0.357,0.275,0.723,0.545,1.083,0.812c0.365,0.27,0.739,0.541,1.113,0.799
	c0.387,0.271,0.769,0.537,1.155,0.812c0.37,0.262,0.748,0.523,1.126,0.781c0.387,0.262,0.77,0.525,1.151,0.787
	c0.379,0.258,0.757,0.52,1.144,0.777c0.382,0.258,0.761,0.516,1.143,0.773c0.378,0.254,0.761,0.512,1.139,0.766
	c0.31,0.209,0.623,0.416,0.929,0.623c1.934,1.301,0.094,4.029-1.84,2.729l0,0c-0.309-0.207-0.618-0.414-0.928-0.623
	c-0.378-0.254-0.756-0.504-1.13-0.758c-0.387-0.262-0.773-0.523-1.16-0.781c-0.387-0.266-0.773-0.529-1.156-0.791
	c-0.382-0.262-0.765-0.523-1.147-0.781c-0.391-0.268-0.777-0.537-1.16-0.809c-0.387-0.27-0.769-0.541-1.155-0.807
	c-0.396-0.279-0.791-0.564-1.182-0.852c-0.383-0.279-0.761-0.562-1.139-0.855c-0.37-0.283-0.735-0.57-1.101-0.859
	c-0.382-0.291-0.76-0.588-1.13-0.889c-0.365-0.293-0.73-0.59-1.091-0.885c-0.374-0.301-0.748-0.607-1.109-0.916
	c-0.369-0.309-0.734-0.623-1.096-0.941c-0.356-0.318-0.709-0.631-1.057-0.949c-0.361-0.326-0.713-0.652-1.062-0.988
	c-0.353-0.336-0.704-0.67-1.053-1.01c-0.356-0.344-0.704-0.688-1.053-1.039c-0.339-0.35-0.675-0.693-1.01-1.037
	c-0.344-0.355-0.683-0.717-1.022-1.078c-0.331-0.355-0.666-0.713-0.992-1.078c-0.331-0.365-0.662-0.734-0.984-1.104
	c-0.326-0.375-0.648-0.752-0.967-1.127c-0.322-0.383-0.641-0.77-0.954-1.16s-0.618-0.785-0.924-1.186
	c-0.296-0.395-0.589-0.795-0.876-1.195c-0.279-0.395-0.551-0.789-0.821-1.189s-0.541-0.799-0.804-1.199
	c-0.262-0.395-0.52-0.791-0.781-1.186c-0.254-0.391-0.508-0.787-0.761-1.182c-0.245-0.391-0.499-0.781-0.748-1.174
	c-0.258-0.408-0.516-0.82-0.769-1.229c-0.254-0.416-0.508-0.828-0.757-1.246c-0.253-0.416-0.503-0.828-0.747-1.246
	c-0.254-0.43-0.503-0.859-0.752-1.293c-0.25-0.43-0.49-0.859-0.727-1.289c-0.24-0.43-0.473-0.859-0.709-1.285
	c-0.232-0.434-0.464-0.859-0.691-1.289c-0.236-0.434-0.465-0.867-0.692-1.301c-0.228-0.436-0.46-0.873-0.683-1.311
	c-0.232-0.439-0.456-0.877-0.68-1.32c-0.223-0.447-0.446-0.893-0.652-1.34c-0.211-0.447-0.417-0.891-0.619-1.336
	c-0.206-0.457-0.412-0.912-0.61-1.371c-0.206-0.461-0.408-0.924-0.605-1.389c-0.202-0.469-0.399-0.941-0.598-1.414
	c-0.188-0.467-0.378-0.939-0.562-1.408c-0.172-0.455-0.34-0.902-0.512-1.354s-0.344-0.906-0.516-1.354
	c-0.172-0.455-0.335-0.912-0.511-1.363c-0.177-0.463-0.353-0.928-0.524-1.387c-0.177-0.469-0.353-0.938-0.528-1.4
	c-0.168-0.469-0.34-0.934-0.512-1.396c-0.168-0.447-0.335-0.895-0.503-1.342c-0.172-0.451-0.339-0.906-0.503-1.357
	c-0.167-0.451-0.335-0.906-0.502-1.357c-0.168-0.451-0.336-0.898-0.503-1.346c-0.172-0.455-0.335-0.906-0.503-1.365
	c-0.159-0.447-0.326-0.898-0.49-1.346c-0.163-0.455-0.326-0.906-0.489-1.357c-0.155-0.439-0.313-0.877-0.469-1.314
	c-0.154-0.436-0.31-0.865-0.464-1.295s-0.31-0.854-0.469-1.279c-0.158-0.434-0.313-0.869-0.473-1.299
	c-0.158-0.434-0.317-0.863-0.477-1.293c-0.159-0.426-0.31-0.85-0.469-1.275c-0.158-0.422-0.326-0.842-0.485-1.264
	c-0.154-0.416-0.313-0.834-0.473-1.25c-0.159-0.422-0.317-0.848-0.473-1.268c-0.159-0.426-0.31-0.848-0.46-1.277
	c-0.142-0.408-0.279-0.82-0.425-1.229c-0.138-0.408-0.279-0.807-0.417-1.215c-0.138-0.393-0.275-0.783-0.412-1.178
	c-0.134-0.379-0.263-0.752-0.396-1.135c-0.129-0.369-0.258-0.734-0.387-1.104c-0.129-0.361-0.254-0.723-0.383-1.084
	c-0.124-0.348-0.249-0.699-0.365-1.053c-0.116-0.33-0.228-0.666-0.335-1.006c-0.099-0.309-0.202-0.617-0.297-0.932
	c-0.094-0.305-0.185-0.609-0.274-0.92c-0.082-0.279-0.163-0.559-0.249-0.838c-0.082-0.279-0.164-0.559-0.245-0.838
	c-0.069-0.254-0.134-0.502-0.206-0.752c-0.061-0.232-0.129-0.459-0.198-0.691c-0.064-0.223-0.129-0.451-0.188-0.68
	c-0.057-0.201-0.112-0.402-0.164-0.605c-0.047-0.176-0.094-0.352-0.137-0.527c-0.039-0.16-0.078-0.314-0.112-0.469
	c-0.034-0.15-0.064-0.297-0.09-0.447c-0.021-0.129-0.039-0.258-0.048-0.391c-0.004-0.082-0.013-0.168-0.021-0.25
	C103.601,263.697,106.888,263.586,106.97,265.91L106.97,265.91z"/>
<path id="path5863" fill="#FFEEAA" d="M11.957,197.319c0.039,0.073,0.082,0.138,0.125,0.206c0.068,0.107,0.142,0.219,0.219,0.326
	c0.104,0.143,0.206,0.288,0.318,0.426c0.137,0.163,0.274,0.326,0.416,0.485c0.181,0.198,0.365,0.387,0.559,0.576
	c0.232,0.231,0.465,0.464,0.701,0.688c0.262,0.24,0.52,0.485,0.777,0.726c0.279,0.267,0.559,0.529,0.838,0.795
	c0.288,0.279,0.58,0.559,0.868,0.838c0.305,0.293,0.61,0.585,0.919,0.873c0.327,0.301,0.662,0.593,0.993,0.889
	c0.348,0.314,0.696,0.632,1.04,0.945c0.36,0.318,0.717,0.632,1.078,0.95c0.374,0.326,0.752,0.648,1.135,0.971
	c0.382,0.331,0.773,0.657,1.164,0.979c0.421,0.349,0.838,0.696,1.255,1.04c0.455,0.378,0.915,0.743,1.375,1.113
	c0.485,0.382,0.976,0.761,1.465,1.139c0.499,0.382,1.006,0.765,1.513,1.143c0.512,0.383,1.022,0.765,1.543,1.144
	c0.532,0.399,1.074,0.803,1.611,1.203c0.541,0.395,1.078,0.79,1.619,1.186c0.537,0.404,1.079,0.808,1.616,1.212
	c0.554,0.412,1.1,0.842,1.642,1.271c0.541,0.442,1.087,0.886,1.633,1.323c0.559,0.438,1.117,0.877,1.68,1.311
	c0.562,0.43,1.13,0.859,1.706,1.285c0.571,0.426,1.151,0.837,1.735,1.246c0.602,0.422,1.208,0.83,1.818,1.242
	c0.605,0.4,1.216,0.799,1.826,1.195c0.609,0.387,1.22,0.773,1.83,1.16c0.598,0.373,1.194,0.742,1.792,1.117
	c0.589,0.365,1.177,0.734,1.762,1.107c0.584,0.369,1.164,0.744,1.749,1.121c0.584,0.375,1.164,0.758,1.744,1.135
	c0.58,0.379,1.156,0.756,1.731,1.135c0.576,0.383,1.151,0.77,1.728,1.156c0.571,0.395,1.151,0.773,1.736,1.15
	c0.593,0.383,1.198,0.753,1.8,1.122s1.212,0.73,1.822,1.096c0.61,0.357,1.216,0.709,1.83,1.057c0.614,0.354,1.233,0.697,1.853,1.041
	c0.614,0.34,1.232,0.674,1.852,1.006c0.605,0.33,1.221,0.652,1.83,0.975c0.606,0.322,1.217,0.631,1.826,0.945
	c0.598,0.305,1.195,0.605,1.797,0.91c0.588,0.297,1.177,0.59,1.77,0.881c0.594,0.289,1.187,0.576,1.783,0.859
	c0.585,0.279,1.174,0.547,1.767,0.816c0.571,0.268,1.151,0.521,1.731,0.77c0.571,0.254,1.147,0.498,1.723,0.744
	c0.563,0.244,1.126,0.48,1.689,0.717c0.545,0.232,1.096,0.461,1.641,0.691c0.542,0.229,1.083,0.451,1.625,0.68
	c0.537,0.219,1.078,0.438,1.615,0.662c0.541,0.227,1.074,0.455,1.611,0.688c0.524,0.223,1.049,0.455,1.568,0.688
	c0.516,0.227,1.031,0.469,1.543,0.713c0.494,0.24,0.988,0.498,1.474,0.76c0.511,0.271,0.997,0.58,1.47,0.912
	c0.451,0.322,0.881,0.674,1.302,1.031c0.391,0.334,0.765,0.688,1.139,1.043c0.365,0.35,0.718,0.715,1.062,1.088
	c0.339,0.379,0.666,0.766,0.979,1.164c0.305,0.396,0.589,0.812,0.863,1.225c0.284,0.418,0.542,0.848,0.791,1.285
	c0.253,0.447,0.489,0.902,0.718,1.367c0.228,0.463,0.438,0.932,0.648,1.404c0.168,0.395,0.331,0.791,0.49,1.189
	c0.872,2.154-2.179,3.391-3.051,1.23l0,0c-0.15-0.371-0.301-0.736-0.456-1.102c-0.188-0.424-0.378-0.85-0.58-1.262
	c-0.202-0.404-0.408-0.801-0.627-1.191c-0.215-0.373-0.43-0.742-0.671-1.096c-0.231-0.348-0.468-0.691-0.722-1.021
	c-0.258-0.336-0.532-0.658-0.816-0.973c-0.292-0.322-0.597-0.631-0.911-0.932c-0.326-0.314-0.657-0.623-0.996-0.92
	c-0.344-0.291-0.692-0.576-1.053-0.838c-0.37-0.262-0.748-0.498-1.144-0.709c-0.442-0.24-0.885-0.469-1.341-0.691
	c-0.477-0.232-0.962-0.455-1.452-0.67c-0.511-0.229-1.019-0.455-1.529-0.676c-0.528-0.227-1.053-0.445-1.581-0.666
	c-0.533-0.223-1.07-0.445-1.604-0.66c-0.545-0.232-1.096-0.457-1.637-0.684c-0.55-0.232-1.1-0.465-1.65-0.701
	c-0.571-0.236-1.143-0.477-1.71-0.721c-0.575-0.25-1.155-0.494-1.731-0.744c-0.598-0.266-1.194-0.529-1.787-0.799
	c-0.606-0.275-1.217-0.551-1.818-0.838c-0.605-0.293-1.216-0.584-1.817-0.877c-0.602-0.297-1.203-0.598-1.805-0.898
	c-0.602-0.309-1.207-0.609-1.813-0.924c-0.618-0.312-1.237-0.631-1.852-0.957c-0.623-0.328-1.246-0.654-1.865-0.994
	c-0.631-0.338-1.254-0.674-1.882-1.021c-0.632-0.348-1.263-0.701-1.895-1.062c-0.623-0.355-1.251-0.717-1.874-1.082
	c-0.618-0.369-1.241-0.744-1.86-1.117c-0.627-0.387-1.255-0.77-1.873-1.168c-0.602-0.393-1.203-0.783-1.796-1.191
	c-0.559-0.377-1.122-0.756-1.689-1.126c-0.571-0.383-1.146-0.76-1.723-1.139c-0.571-0.377-1.147-0.752-1.728-1.117
	c-0.571-0.373-1.143-0.742-1.719-1.107c-0.58-0.371-1.164-0.73-1.749-1.096c-0.602-0.379-1.203-0.752-1.809-1.131
	c-0.614-0.387-1.233-0.777-1.848-1.174c-0.632-0.402-1.255-0.811-1.878-1.229c-0.632-0.42-1.259-0.846-1.878-1.279
	c-0.609-0.422-1.211-0.855-1.809-1.299c-0.584-0.434-1.169-0.871-1.749-1.318s-1.155-0.898-1.731-1.349
	c-0.546-0.443-1.092-0.881-1.637-1.324c-0.512-0.412-1.027-0.816-1.556-1.211c-0.528-0.4-1.062-0.795-1.595-1.19
	c-0.541-0.396-1.078-0.791-1.619-1.19c-0.537-0.399-1.074-0.799-1.611-1.199c-0.524-0.387-1.049-0.773-1.564-1.16
	s-1.031-0.773-1.543-1.168c-0.502-0.392-1.014-0.778-1.517-1.174c-0.473-0.382-0.945-0.76-1.418-1.146
	c-0.417-0.344-0.829-0.696-1.246-1.04c-0.408-0.335-0.812-0.671-1.212-1.015c-0.387-0.33-0.773-0.661-1.155-0.996
	c-0.374-0.327-0.743-0.653-1.113-0.98c-0.348-0.313-0.696-0.627-1.04-0.94c-0.344-0.306-0.691-0.61-1.026-0.929
	c-0.331-0.301-0.662-0.609-0.984-0.924c-0.283-0.274-0.562-0.55-0.851-0.82c-0.271-0.262-0.546-0.52-0.82-0.777
	c-0.258-0.245-0.521-0.494-0.782-0.735c-0.258-0.249-0.516-0.498-0.77-0.752c-0.228-0.228-0.455-0.46-0.675-0.7
	c-0.188-0.211-0.373-0.43-0.55-0.648c-0.146-0.181-0.279-0.361-0.417-0.551c-0.107-0.15-0.21-0.305-0.309-0.459
	c-0.064-0.107-0.138-0.215-0.193-0.327C7.943,196.966,10.784,195.308,11.957,197.319L11.957,197.319z"/>
<path id="path5865" fill="#FFE681" d="M129.906,340.486c-4.021-3.248-11.589-10.004-14.699-13.127
	c-6.506-6.535-12.01-14.215-16.385-22.867c-1.68-3.326-2.423-5.119-3.549-8.561c-1.779-5.432-4.551-15.129-5.319-18.617
	c-0.322-1.449-0.77-2.996-0.993-3.438c-0.473-0.934-1.345-1.682-2.152-1.848c-0.756-0.16-0.691-0.113-3.678-2.523
	c-1.427-1.156-5.462-4.158-8.959-6.682c-13.136-9.453-15.499-11.305-26.551-20.814c-10.128-8.71-14.889-13.126-19.504-18.093
	c-6.682-7.189-10.024-11.366-13.234-16.522c-1.71-2.755-3.914-6.755-3.776-6.88c0.038-0.038,1.409,1.16,3.038,2.673
	c4.318,4.001,8.37,7.339,14.815,12.199c3.141,2.367,7.305,5.517,9.26,6.999c1.955,1.482,5.044,3.636,6.862,4.779
	c1.821,1.146,5.556,3.557,8.301,5.35c6.067,3.974,9.931,6.333,13.982,8.538c4.98,2.711,13.011,6.535,18.541,8.83
	c9.006,3.734,10.072,4.309,12.495,6.689c2.694,2.656,4.318,5.814,6.046,11.744c1.173,4.047,3.631,11.232,6.037,17.664
	c0.752,1.994,1.98,5.35,2.741,7.463c3.253,9.051,7.301,19.643,8.71,22.809c2.737,6.162,7.438,14.51,11.684,20.754l2.092,3.072
	l-1.143,1.168c-0.632,0.645-1.298,1.252-1.479,1.354C132.846,342.734,131.994,342.17,129.906,340.486L129.906,340.486z"/>
<path id="path5867_1_" fill="#FFFFFF" d="M205.596,439.693c2.428-2.133,11.176-5.457,11.477-5.141"/>
<path id="path5867" fill="#FFFFFF" d="M37.815,416.623c2.188-8.264,7.03-17.094,23.276-38.066
	c13.265-17.123,23.809-27.031,34.264-32.592c4.421-2.35,22.996-9.23,24.557-9.23c0.403,0,6.711,2.842,8.1,6.107l4.739,5.447
	l-2.445,3.146c-0.868,1.117-2.337,3.566-4.077,4.609c-2.639,1.582-3.201-0.834-3.365,0.848c-0.43,4.352-1.692,3.191,3.91-0.168
	c2.028-1.217,2.445-4.34,4.108-4.311l5.242-3.42l5.173,3.717c1.805,1.297,5.806,4.396,6.321,4.697
	c0.765,0.445-1.165,2.221-2.999,4.172c-3.661,3.893-4.692,4.537-4.692,6.371c0,1.74-0.426,1.596,1.263,1.596
	c0.443,0,1.642-2.949,4.998-4.848l5.672-4.852l7.262,3.223c6.496,2.889,19.993,1.852,25.803,7.996l5.092,0.766l-1.307,4.73
	c-1.065,3.863-3.876,4.1-0.576,4.1c1.362,0,1.62-0.953,4.28-4.262c3.828-4.762,10.858-9.445,15.567-10.906
	c4.288-1.332,17.449-1.676,21.807-0.738c8.061,1.73,18.902,10.613,22.185,17.6c2.819,5.99,1.212,17.646-2.836,26.443
	c-3.137,6.826-8.68,10.961-28.759,21.127c-14.665,7.43-16.711,7.742-21.316,15.615"/>
<path id="path5869" fill="#E6E6E5" d="M216.062,363.676c-3.635,0.014-7.566,0.393-11.894,1.084l-3.149,0.49l7.06,0.219
	c2.145,0.072,4.143,0.244,6.028,0.434c-0.571,0.021-1.16,0.018-1.735,0.057c-0.671,0.043-1.345,0.09-2.011,0.162
	c-0.653,0.074-1.26,0.193-1.899,0.322c-0.606,0.121-1.246,0.24-1.848,0.383c-0.593,0.137-1.151,0.279-1.74,0.434
	c-0.567,0.15-1.117,0.322-1.681,0.49c-0.554,0.164-1.139,0.305-1.684,0.49c-0.49,0.162-0.976,0.322-1.466,0.484
	c-0.473,0.16-0.94,0.332-1.413,0.49c-0.404,0.143-0.795,0.293-1.195,0.439c-0.391,0.133-0.808,0.283-1.198,0.43
	c-0.284,0.115-0.58,0.205-0.868,0.326c-0.232,0.104-0.417,0.215-0.648,0.326c-0.172,0.086-0.379,0.176-0.542,0.275
	c-2.849,1.658-0.511,5.672,2.333,4.018c0.069,0.043,0.143-0.074,0.215-0.107c0.168-0.086,0.374-0.146,0.546-0.219
	c0.236-0.104,0.469-0.232,0.705-0.328c0.326-0.119,0.648-0.209,0.979-0.326c0.399-0.141,0.791-0.297,1.194-0.434
	c0.451-0.154,0.902-0.283,1.358-0.434c0.489-0.168,0.975-0.326,1.465-0.49c0.498-0.168,1.019-0.34,1.521-0.486
	c0.52-0.158,1.053-0.295,1.572-0.438c0.55-0.143,1.083-0.305,1.633-0.434c0.541-0.125,1.083-0.219,1.629-0.322
	c0.52-0.111,1.048-0.164,1.576-0.219c0.589-0.061,1.195-0.125,1.792-0.164c0.61-0.043,1.233-0.09,1.848-0.107
	c0.623-0.021,1.221-0.004,1.844,0c0.618,0,1.229,0.029,1.848,0.051c0.602,0.021,1.246,0.014,1.843,0.057
	c0.594,0.039,1.152,0.104,1.74,0.164c0.58,0.055,1.165,0.133,1.74,0.219c0.567,0.076,1.117,0.215,1.685,0.322
	c0.542,0.107,1.087,0.189,1.629,0.326c0.532,0.137,1.1,0.322,1.628,0.49c0.529,0.168,1.053,0.352,1.577,0.541
	c0.49,0.176,0.933,0.379,1.409,0.598c0.486,0.227,0.993,0.459,1.466,0.705c0.473,0.248,0.902,0.549,1.357,0.816
	c0.442,0.258,0.886,0.527,1.307,0.811c0.43,0.293,0.838,0.611,1.246,0.924c0.421,0.332,0.847,0.633,1.255,0.98
	c0.395,0.348,0.752,0.723,1.139,1.088c0.373,0.355,0.734,0.76,1.087,1.139c0.36,0.391,0.743,0.785,1.083,1.193
	c0.339,0.412,0.661,0.82,0.979,1.25c0.317,0.436,0.627,0.855,0.924,1.303c0.292,0.455,0.546,0.949,0.812,1.414
	c0.263,0.455,0.529,0.885,0.761,1.357c0.232,0.469,0.396,0.984,0.598,1.465c0.197,0.473,0.387,0.928,0.546,1.414
	c0.158,0.494,0.309,1.018,0.434,1.521c0.125,0.498,0.185,1.014,0.271,1.521c0.091,0.516,0.206,1,0.271,1.52
	c0.064,0.512,0.125,1.062,0.164,1.574c0.034,0.51,0.047,1.014,0.056,1.525c0.004,0.516-0.034,1-0.056,1.516
	c-0.018,0.529-0.064,1.053-0.107,1.578c-0.039,0.488-0.086,0.982-0.164,1.465c-0.086,0.506-0.21,1.021-0.326,1.521
	c-0.111,0.502-0.236,1.025-0.378,1.52c-0.142,0.5-0.271,0.977-0.435,1.467c-0.163,0.484-0.365,0.936-0.545,1.412
	c-0.186,0.486-0.353,0.98-0.542,1.467c-0.188,0.473-0.396,0.949-0.597,1.412c-0.134,0.301-0.297,0.572-0.438,0.869
	c-1.388,2.986,2.849,4.996,4.241,2.01c0.154-0.338,0.339-0.691,0.485-1.031c0.219-0.506,0.396-1.01,0.597-1.52
	c0.202-0.508,0.404-1.016,0.598-1.521c0.202-0.533,0.421-1.092,0.602-1.633c0.181-0.555,0.326-1.117,0.485-1.686
	c0.163-0.57,0.361-1.154,0.49-1.734c0.133-0.594,0.224-1.191,0.322-1.793c0.103-0.605,0.224-1.178,0.274-1.791
	c0.026-0.305,0.035-0.619,0.057-0.924c0.056,0.387,0.115,0.756,0.158,1.139l0.275,2.553l0.542-2.334
	c0.7-3.09,0.73-8.479,0.107-11.459c-0.739-3.545-3.193-8.242-6.244-12.006c-4.159-5.123-8.168-8.125-14.665-10.807
	C227.338,364.588,222.126,363.66,216.062,363.676L216.062,363.676z"/>
<path id="path5893" fill="#FFE681" d="M34.756,416.963c0-0.963,8.74-13.664,16.956-24.643l9.204-12.295l3.841,3.25
	C74.554,391.568,91.324,410.83,99.33,423"/>
<path id="path5901" fill="#441854" d="M355.87,217.781c3.271,12.421-0.309,24.131-7.983,26.151l0,0
	c-7.679,2.02-16.552-6.416-19.821-18.833l0,0c-3.266-12.427,0.31-24.132,7.988-26.152l0,0
	C343.731,196.927,352.604,205.358,355.87,217.781L355.87,217.781z"/>
<path id="path5905" fill="#010101" d="M196.182,444.488c0.274-0.498,0.566-0.984,0.863-1.471c0.331-0.541,0.679-1.064,1.044-1.584
	c0.392-0.543,0.808-1.062,1.237-1.578c0.426-0.516,0.886-1,1.346-1.49c0.468-0.486,0.949-0.959,1.435-1.428
	c0.512-0.48,1.04-0.949,1.573-1.404c0.554-0.469,1.13-0.916,1.71-1.354c0.602-0.447,1.225-0.873,1.848-1.281
	c0.645-0.42,1.306-0.811,1.977-1.189c0.636-0.365,1.268-0.723,1.912-1.074c0.648-0.352,1.302-0.695,1.955-1.039
	c0.648-0.34,1.298-0.676,1.942-1.01c0.67-0.35,1.34-0.688,2.02-1.023c0.679-0.336,1.354-0.67,2.032-1.002
	c0.67-0.322,1.336-0.656,2.002-0.982c0.679-0.332,1.354-0.662,2.028-0.998c0.705-0.352,1.405-0.713,2.109-1.07
	c0.727-0.369,1.453-0.734,2.188-1.09c0.718-0.35,1.443-0.693,2.161-1.041c0.653-0.318,1.298-0.67,1.93-1.031
	c0.648-0.369,1.28-0.764,1.916-1.156c0.666-0.416,1.332-0.828,1.994-1.24c0.666-0.418,1.336-0.816,2.002-1.225
	c0.606-0.371,1.208-0.758,1.788-1.166c0.566-0.391,1.108-0.811,1.641-1.246c0.521-0.42,1.015-0.867,1.496-1.332
	c0.489-0.467,0.958-0.961,1.413-1.461c0.43-0.467,0.829-0.961,1.216-1.465c0.361-0.463,0.692-0.949,0.997-1.451
	c0.301-0.5,0.563-1.016,0.808-1.539c0.254-0.541,0.473-1.096,0.692-1.654c0.228-0.602,0.442-1.207,0.653-1.812
	c0.215-0.623,0.412-1.252,0.609-1.879c0.202-0.645,0.387-1.289,0.572-1.938c0.185-0.662,0.36-1.324,0.532-1.99
	c0.168-0.666,0.327-1.332,0.478-2.002c0.146-0.648,0.266-1.311,0.373-1.967c0.107-0.623,0.177-1.252,0.229-1.883
	c0.038-0.594,0.038-1.182,0.017-1.77c-0.017-0.594-0.081-1.182-0.15-1.768c-0.077-0.602-0.181-1.197-0.292-1.795
	c-0.107-0.555-0.245-1.1-0.399-1.643c-0.142-0.523-0.335-1.031-0.528-1.537c-0.202-0.516-0.443-1.02-0.688-1.514
	c-0.258-0.516-0.551-1.014-0.847-1.508c-0.297-0.498-0.61-0.979-0.941-1.451c-0.353-0.504-0.73-0.98-1.112-1.467
	c-0.392-0.488-0.795-0.967-1.199-1.443c-0.399-0.469-0.816-0.92-1.233-1.365c-0.399-0.43-0.82-0.844-1.246-1.246
	c-0.408-0.393-0.847-0.744-1.293-1.092c-0.478-0.369-0.976-0.713-1.482-1.049c-0.546-0.348-1.108-0.662-1.672-0.971
	c-0.597-0.326-1.207-0.637-1.817-0.934c-0.605-0.301-1.225-0.57-1.844-0.838c-0.605-0.258-1.229-0.488-1.852-0.717
	c-0.593-0.219-1.203-0.395-1.817-0.559c-0.679-0.168-1.362-0.309-2.05-0.443c-0.696-0.123-1.396-0.223-2.097-0.309
	c-0.714-0.082-1.427-0.146-2.145-0.193c-0.709-0.051-1.418-0.078-2.131-0.094c-0.727-0.018-1.448-0.018-2.175-0.01
	c-0.7,0.01-1.396,0.039-2.097,0.09c-0.726,0.053-1.448,0.129-2.174,0.215c-0.735,0.086-1.474,0.189-2.209,0.293
	c-0.722,0.107-1.439,0.219-2.152,0.344c-0.692,0.111-1.38,0.244-2.062,0.391c-0.641,0.143-1.276,0.314-1.899,0.498
	c-0.593,0.182-1.169,0.408-1.74,0.65c-0.598,0.244-1.178,0.52-1.753,0.811c-0.567,0.285-1.117,0.598-1.659,0.924
	c-0.523,0.314-1.031,0.654-1.525,1.01c-0.528,0.375-1.048,0.762-1.563,1.156c-0.49,0.379-0.963,0.777-1.431,1.182
	c-0.478,0.418-0.941,0.848-1.396,1.285c-0.443,0.426-0.864,0.873-1.276,1.332c-0.417,0.455-0.808,0.932-1.19,1.414
	c-0.374,0.473-0.734,0.957-1.074,1.457c-0.326,0.473-0.623,0.961-0.911,1.461c-0.047,0.086-0.095,0.172-0.146,0.252
	c-2.282,4.061-8.019,0.838-5.736-3.223l0,0c0.06-0.107,0.12-0.219,0.18-0.326c0.379-0.648,0.77-1.293,1.199-1.916
	c0.43-0.619,0.872-1.229,1.345-1.812c0.473-0.594,0.954-1.174,1.461-1.732c0.512-0.566,1.036-1.121,1.581-1.65
	c0.546-0.52,1.096-1.031,1.663-1.525c0.567-0.484,1.135-0.967,1.728-1.422c0.58-0.443,1.16-0.877,1.753-1.297
	c0.641-0.457,1.294-0.895,1.964-1.299c0.684-0.408,1.379-0.799,2.088-1.156c0.718-0.355,1.444-0.703,2.184-1.01
	c0.781-0.322,1.572-0.631,2.385-0.875c0.786-0.232,1.585-0.451,2.389-0.623c0.777-0.164,1.56-0.314,2.342-0.447
	c0.777-0.129,1.556-0.258,2.338-0.369c0.79-0.113,1.585-0.225,2.376-0.318c0.816-0.096,1.637-0.182,2.458-0.236
	c0.829-0.061,1.658-0.1,2.487-0.107c0.804-0.01,1.603-0.01,2.406,0.008c0.812,0.021,1.629,0.053,2.44,0.111
	c0.825,0.057,1.65,0.129,2.476,0.225c0.847,0.104,1.688,0.223,2.53,0.377c0.838,0.164,1.676,0.336,2.506,0.547
	c0.803,0.215,1.606,0.447,2.393,0.738c0.735,0.268,1.47,0.541,2.191,0.852c0.723,0.309,1.444,0.631,2.148,0.975
	c0.705,0.348,1.396,0.701,2.084,1.074c0.718,0.396,1.432,0.799,2.123,1.246c0.648,0.43,1.293,0.877,1.912,1.35
	c0.605,0.477,1.199,0.967,1.758,1.5c0.532,0.502,1.053,1.014,1.551,1.547c0.485,0.523,0.967,1.043,1.427,1.59
	c0.455,0.537,0.915,1.078,1.357,1.633c0.451,0.576,0.902,1.15,1.323,1.748c0.431,0.611,0.834,1.234,1.212,1.869
	c0.383,0.645,0.757,1.289,1.092,1.955c0.331,0.676,0.648,1.354,0.92,2.051c0.279,0.709,0.537,1.422,0.743,2.152
	c0.197,0.727,0.382,1.451,0.52,2.188c0.142,0.742,0.271,1.482,0.361,2.229c0.095,0.787,0.176,1.578,0.197,2.377
	c0.021,0.83,0.021,1.658-0.038,2.488c-0.069,0.812-0.155,1.619-0.293,2.418c-0.129,0.779-0.271,1.553-0.442,2.32
	c-0.163,0.744-0.339,1.479-0.528,2.213c-0.185,0.719-0.374,1.436-0.576,2.145c-0.197,0.705-0.399,1.41-0.618,2.109
	c-0.22,0.693-0.438,1.385-0.675,2.068c-0.236,0.682-0.477,1.361-0.734,2.031c-0.271,0.713-0.559,1.414-0.881,2.102
	c-0.349,0.73-0.714,1.453-1.135,2.145c-0.435,0.705-0.894,1.396-1.405,2.049c-0.503,0.648-1.022,1.289-1.577,1.895
	c-0.559,0.611-1.13,1.209-1.728,1.779c-0.614,0.59-1.241,1.156-1.903,1.693c-0.657,0.533-1.332,1.053-2.028,1.539
	c-0.691,0.477-1.396,0.936-2.118,1.369c-0.653,0.4-1.314,0.801-1.964,1.209c-0.666,0.408-1.323,0.82-1.984,1.232
	c-0.709,0.438-1.414,0.873-2.136,1.289c-0.757,0.43-1.521,0.846-2.304,1.221c-0.717,0.352-1.435,0.691-2.152,1.039
	c-0.705,0.34-1.396,0.691-2.093,1.045c-0.718,0.361-1.427,0.73-2.144,1.086c-0.692,0.34-1.384,0.684-2.071,1.02
	c-0.666,0.326-1.337,0.662-2.007,0.979c-0.662,0.328-1.328,0.658-1.989,0.984c-0.645,0.318-1.28,0.641-1.917,0.971
	c-0.64,0.332-1.275,0.662-1.916,0.998c-0.627,0.33-1.259,0.666-1.878,1.006c-0.61,0.326-1.207,0.666-1.805,1.01
	c-0.546,0.309-1.087,0.623-1.611,0.961c-0.507,0.336-1.01,0.676-1.495,1.041c-0.477,0.355-0.949,0.721-1.4,1.107
	c-0.443,0.375-0.881,0.758-1.303,1.156c-0.408,0.387-0.808,0.783-1.198,1.186c-0.365,0.393-0.739,0.779-1.083,1.195
	c-0.318,0.379-0.623,0.766-0.915,1.164c-0.284,0.396-0.546,0.799-0.8,1.213"/>
<path id="path5907" fill="#010101" d="M212.548,447.551c0.142-0.756,0.284-1.516,0.435-2.271c0.15-0.758,0.317-1.518,0.48-2.273
	c0.168-0.762,0.349-1.518,0.537-2.277c0.181-0.723,0.37-1.439,0.555-2.162c0.189-0.717,0.369-1.436,0.555-2.152
	c0.185-0.709,0.36-1.418,0.532-2.127c0.116-0.49,0.228-0.975,0.349-1.461c1.091-4.525,7.919-6.355,6.827-1.83l0.112,0.855
	c-0.116,0.484-0.773,3.496-0.89,3.982c-0.177,0.738-0.361,1.482-0.555,2.217c-0.181,0.709-0.36,1.422-0.55,2.131
	c-0.181,0.709-0.365,1.418-0.541,2.127c-0.177,0.697-0.344,1.396-0.499,2.098c-0.154,0.717-0.31,1.436-0.455,2.156
	c-0.146,0.736-0.284,1.479-0.421,2.219"/>
<path id="path5925_1_" fill="#010101" d="M448.129,315.646c-0.692-0.225-1.388-0.439-2.08-0.662
	c-0.661-0.215-1.327-0.422-1.989-0.631c-0.648-0.207-1.298-0.408-1.946-0.615c-0.623-0.197-1.251-0.391-1.874-0.584
	c-0.597-0.189-1.194-0.375-1.796-0.559c-0.567-0.172-1.134-0.34-1.697-0.512c-0.528-0.164-1.053-0.318-1.581-0.473
	c-0.528-0.158-1.062-0.309-1.586-0.48c-0.451-0.146-0.902-0.289-1.357-0.426c-0.399-0.129-0.795-0.258-1.199-0.379
	c-0.373-0.115-0.747-0.227-1.121-0.34c-0.344-0.098-0.688-0.197-1.031-0.301c-0.292-0.08-0.584-0.172-0.872-0.258
	c-0.211-0.059-0.421-0.119-0.628-0.184c-0.09-0.021-0.287-0.068-0.201-0.057c-4.581-0.828-3.403-7.309,1.177-6.475l0,0
	c0.254,0.043,0.494,0.111,0.739,0.18c0.249,0.068,0.494,0.143,0.743,0.215c0.297,0.082,0.593,0.176,0.89,0.262
	c0.348,0.1,0.696,0.203,1.049,0.307c0.399,0.115,0.799,0.236,1.194,0.355c0.417,0.129,0.833,0.262,1.246,0.396
	c0.464,0.141,0.919,0.283,1.379,0.43c0.481,0.158,0.976,0.301,1.461,0.445c0.546,0.156,1.087,0.318,1.629,0.486
	c0.567,0.176,1.134,0.344,1.701,0.516c0.614,0.189,1.225,0.379,1.835,0.566c0.632,0.193,1.259,0.393,1.891,0.594
	c0.653,0.201,1.302,0.408,1.955,0.615c0.666,0.209,1.332,0.42,1.998,0.635"/>
<path id="path5929" fill="#010101" d="M413.526,265.133c0.094,0.025,0.399,0.15,0.571,0.219c0.258,0.111,0.511,0.232,0.761,0.355
	c0.279,0.143,0.545,0.293,0.812,0.447c0.313,0.176,0.614,0.375,0.911,0.576c0.301,0.207,0.598,0.426,0.894,0.645
	c0.356,0.271,0.7,0.555,1.04,0.842c0.387,0.336,0.752,0.688,1.113,1.049c0.382,0.387,0.743,0.799,1.091,1.221
	c0.322,0.383,0.632,0.785,0.937,1.186c0.318,0.416,0.632,0.846,0.938,1.275c0.335,0.473,0.645,0.963,0.949,1.453
	c0.322,0.523,0.61,1.066,0.89,1.615c0.288,0.576,0.55,1.156,0.804,1.75c0.253,0.605,0.48,1.219,0.695,1.838
	c0.22,0.645,0.404,1.299,0.585,1.951c0.176,0.637,0.344,1.275,0.503,1.916c0.167,0.67,0.317,1.342,0.455,2.016
	c0.142,0.666,0.271,1.34,0.396,2.016c0.124,0.678,0.24,1.365,0.36,2.049c0.121,0.719,0.224,1.439,0.322,2.162
	c0.104,0.752,0.172,1.504,0.245,2.256c0.069,0.76,0.112,1.521,0.15,2.277c0.026,0.756,0.034,1.516,0.034,2.277
	c0.009,0.777-0.013,1.551-0.056,2.328c-0.043,0.787-0.12,1.568-0.219,2.355c-0.104,0.785-0.249,1.572-0.413,2.35
	c-0.176,0.809-0.408,1.6-0.67,2.381c-0.313,0.963-0.804,1.848-1.371,2.686c-0.516,0.734-1.104,1.414-1.701,2.084
	c-0.58,0.652-1.199,1.264-1.835,1.855c-0.679,0.629-1.422,1.188-2.17,1.719c-0.7,0.504-1.418,0.977-2.14,1.439
	c-0.799,0.516-1.629,0.98-2.479,1.396c-0.854,0.396-1.731,0.758-2.608,1.113c-0.859,0.344-1.727,0.666-2.595,0.984
	c-0.902,0.336-1.817,0.631-2.737,0.91c-0.933,0.271-1.869,0.525-2.811,0.762c-0.932,0.232-1.877,0.441-2.818,0.645
	c-0.954,0.197-1.912,0.365-2.875,0.516c-0.945,0.146-1.895,0.248-2.844,0.352c-0.907,0.1-1.813,0.186-2.721,0.262
	c-0.894,0.082-1.791,0.156-2.686,0.221c-0.906,0.068-1.812,0.107-2.72,0.145c-0.894,0.035-1.783,0.043-2.673,0.057
	c-0.876,0.004-1.748,0.004-2.616-0.004c-0.855-0.01-1.702-0.025-2.553-0.047c-0.854-0.027-1.71-0.061-2.565-0.104
	c-0.842-0.039-1.684-0.09-2.526-0.143c-4.645-0.279-4.254-6.85,0.396-6.57l0,0c0.812,0.049,1.624,0.1,2.44,0.139
	c0.804,0.039,1.611,0.068,2.419,0.094c0.821,0.021,1.638,0.039,2.463,0.043c0.82,0.014,1.637,0.014,2.457,0.004
	c0.83-0.008,1.659-0.016,2.488-0.047c0.842-0.033,1.685-0.072,2.522-0.137c0.859-0.061,1.719-0.129,2.578-0.207
	c0.863-0.076,1.728-0.158,2.591-0.254c0.847-0.09,1.693-0.18,2.535-0.309c0.851-0.133,1.697-0.275,2.535-0.455
	c0.859-0.182,1.715-0.375,2.569-0.59c0.843-0.205,1.676-0.434,2.514-0.674c0.8-0.24,1.599-0.502,2.385-0.795
	c0.8-0.293,1.595-0.588,2.385-0.902c0.743-0.301,1.487-0.605,2.218-0.941c0.623-0.291,1.211-0.648,1.791-1.014
	c0.623-0.395,1.238-0.803,1.84-1.232c0.537-0.383,1.065-0.773,1.551-1.221c0.485-0.439,0.949-0.902,1.384-1.393
	c0.408-0.459,0.816-0.924,1.177-1.418c0.241-0.34,0.451-0.691,0.576-1.092c0.181-0.537,0.34-1.078,0.46-1.629
	c0.129-0.602,0.24-1.203,0.322-1.809c0.077-0.627,0.142-1.25,0.176-1.877c0.039-0.658,0.052-1.314,0.048-1.973
	c0-0.658-0.009-1.314-0.03-1.977c-0.03-0.658-0.069-1.311-0.129-1.963c-0.064-0.662-0.125-1.328-0.211-1.99
	c-0.09-0.652-0.181-1.303-0.296-1.955c-0.107-0.645-0.22-1.293-0.34-1.938c-0.116-0.623-0.232-1.25-0.365-1.873
	c-0.125-0.594-0.249-1.182-0.404-1.771c-0.142-0.584-0.292-1.164-0.451-1.744c-0.146-0.52-0.292-1.045-0.459-1.561
	c-0.168-0.48-0.349-0.957-0.542-1.426c-0.188-0.451-0.396-0.898-0.61-1.336c-0.197-0.391-0.403-0.783-0.636-1.156
	c-0.224-0.365-0.451-0.727-0.7-1.074c-0.258-0.365-0.52-0.727-0.791-1.082c-0.258-0.336-0.516-0.68-0.79-1.002
	c-0.215-0.262-0.438-0.52-0.675-0.76c-0.236-0.236-0.473-0.469-0.722-0.688c-0.236-0.203-0.478-0.4-0.727-0.59
	c-0.224-0.168-0.446-0.334-0.679-0.494c-0.154-0.107-0.313-0.211-0.477-0.305c-0.155-0.09-0.314-0.176-0.478-0.258
	c-0.12-0.061-0.249-0.121-0.369-0.176c0.154,0.055-0.189-0.078-0.306-0.117c-4.356-1.637-3.708-8.314,0.653-6.676L413.526,265.133z"
	/>
<path id="path5931" fill="#010101" d="M250.863,371.99c0.133,0,0.271,0,0.404,0c0.193,0,0.382,0,0.575,0
	c0.241-0.008,0.478-0.016,0.718-0.025c0.331-0.012,0.666-0.021,0.997-0.029c0.383-0.01,0.761-0.018,1.143-0.025
	c0.426-0.014,0.852-0.021,1.276-0.031c0.464-0.008,0.933-0.012,1.396-0.025c0.528-0.014,1.053-0.043,1.581-0.068
	c0.559-0.025,1.117-0.074,1.672-0.129c0.623-0.064,1.25-0.133,1.878-0.207c0.653-0.082,1.306-0.172,1.959-0.258
	c0.649-0.09,1.302-0.189,1.951-0.291c0.688-0.113,1.37-0.225,2.058-0.344c0.735-0.135,1.47-0.275,2.209-0.422
	c0.756-0.146,1.513-0.297,2.269-0.455c0.765-0.154,1.53-0.322,2.295-0.494c0.795-0.176,1.59-0.361,2.389-0.547
	c0.808-0.188,1.62-0.387,2.433-0.58c0.812-0.193,1.624-0.395,2.436-0.592c0.816-0.203,1.638-0.408,2.449-0.615
	c0.812-0.201,1.616-0.42,2.42-0.645c0.838-0.24,1.676-0.469,2.514-0.713c0.842-0.244,1.684-0.494,2.53-0.738
	c0.855-0.258,1.715-0.512,2.574-0.762c0.868-0.248,1.731-0.502,2.591-0.76c0.885-0.262,1.766-0.529,2.651-0.791
	c0.881-0.262,1.757-0.533,2.634-0.816c0.872-0.275,1.731-0.572,2.587-0.881c0.868-0.314,1.719-0.658,2.573-0.996
	c0.877-0.357,1.754-0.723,2.621-1.092c0.881-0.369,1.758-0.752,2.635-1.127c0.863-0.377,1.727-0.76,2.586-1.15
	c0.847-0.383,1.689-0.777,2.522-1.186c0.843-0.414,1.659-0.873,2.471-1.338c0.851-0.494,1.688-1.004,2.526-1.52
	c0.834-0.525,1.659-1.059,2.479-1.604c0.829-0.559,1.659-1.121,2.492-1.684c0.847-0.572,1.697-1.131,2.548-1.693
	c0.847-0.551,1.685-1.105,2.522-1.668c0.851-0.566,1.702-1.139,2.548-1.705c0.847-0.559,1.689-1.121,2.531-1.686
	c0.851-0.566,1.697-1.129,2.548-1.697c0.847-0.562,1.688-1.133,2.531-1.697c0.838-0.559,1.671-1.117,2.509-1.676
	c0.834-0.559,1.668-1.111,2.497-1.666c0.833-0.559,1.667-1.117,2.501-1.676c0.816-0.547,1.633-1.092,2.444-1.646
	c0.816-0.555,1.629-1.107,2.445-1.662c0.804-0.547,1.611-1.096,2.415-1.646c0.803-0.549,1.611-1.1,2.414-1.645
	c0.787-0.533,1.561-1.084,2.329-1.633c0.757-0.547,1.495-1.105,2.226-1.676c0.718-0.555,1.418-1.131,2.105-1.719
	c0.684-0.586,1.354-1.188,2.012-1.797c0.657-0.605,1.293-1.232,1.92-1.865c0.623-0.627,1.229-1.275,1.826-1.934
	c0.602-0.648,1.182-1.322,1.749-2.002c0.598-0.713,1.182-1.436,1.762-2.162c0.593-0.738,1.187-1.477,1.774-2.217
	c0.589-0.748,1.178-1.486,1.762-2.234c0.58-0.742,1.152-1.49,1.724-2.242c0.554-0.734,1.1-1.479,1.637-2.227
	c0.542-0.738,1.062-1.49,1.581-2.238c0.516-0.748,1.023-1.496,1.53-2.248c0.498-0.742,0.983-1.494,1.47-2.246
	c0.48-0.756,0.967-1.514,1.443-2.27c0.469-0.742,0.928-1.49,1.393-2.242c0.446-0.734,0.894-1.471,1.327-2.209
	c0.442-0.744,0.872-1.49,1.307-2.234c0.412-0.727,0.829-1.457,1.233-2.191c0.416-0.727,0.816-1.465,1.211-2.199
	c0.404-0.758,0.8-1.518,1.199-2.273c0.404-0.766,0.804-1.529,1.216-2.291c0.404-0.748,0.795-1.5,1.187-2.26
	c0.391-0.748,0.769-1.5,1.139-2.26c0.387-0.787,0.76-1.568,1.139-2.359c0.378-0.791,0.743-1.586,1.112-2.377
	c0.361-0.785,0.714-1.576,1.058-2.371c0.172-0.391,0.335-0.787,0.502-1.182c1.788-4.301,7.863-1.77,6.076,2.531l0,0
	c-0.176,0.42-0.356,0.846-0.537,1.268c-0.365,0.842-0.734,1.684-1.126,2.514c-0.378,0.824-0.761,1.65-1.151,2.467
	c-0.383,0.799-0.765,1.594-1.151,2.393c-0.396,0.809-0.8,1.611-1.216,2.414c-0.404,0.783-0.812,1.561-1.233,2.338
	c-0.404,0.748-0.795,1.504-1.194,2.256c-0.408,0.773-0.809,1.543-1.221,2.309c-0.408,0.764-0.82,1.525-1.25,2.281
	c-0.426,0.764-0.859,1.525-1.294,2.289c-0.442,0.758-0.881,1.521-1.327,2.273c-0.46,0.783-0.924,1.551-1.396,2.32
	c-0.478,0.773-0.95,1.547-1.436,2.312c-0.485,0.777-0.984,1.551-1.479,2.324c-0.507,0.791-1.018,1.576-1.542,2.355
	c-0.524,0.777-1.044,1.555-1.577,2.324c-0.546,0.781-1.092,1.568-1.65,2.338c-0.571,0.789-1.151,1.572-1.731,2.354
	c-0.593,0.773-1.182,1.547-1.783,2.312c-0.593,0.76-1.19,1.512-1.787,2.268c-0.598,0.752-1.199,1.504-1.801,2.256
	c-0.614,0.762-1.225,1.518-1.852,2.27c-0.632,0.752-1.268,1.496-1.938,2.217c-0.661,0.727-1.332,1.449-2.027,2.145
	c-0.692,0.695-1.393,1.383-2.11,2.049c-0.722,0.666-1.456,1.32-2.2,1.961c-0.765,0.652-1.542,1.293-2.337,1.912
	c-0.8,0.617-1.611,1.229-2.433,1.826c-0.816,0.58-1.628,1.16-2.457,1.723c-0.809,0.545-1.607,1.096-2.411,1.645
	c-0.804,0.547-1.603,1.096-2.41,1.639c-0.816,0.559-1.638,1.117-2.458,1.676c-0.829,0.562-1.663,1.121-2.496,1.68
	c-0.83,0.555-1.654,1.104-2.484,1.658c-0.838,0.566-1.684,1.131-2.526,1.693c-0.833,0.555-1.667,1.117-2.501,1.672
	c-0.842,0.562-1.68,1.129-2.521,1.688c-0.852,0.568-1.702,1.131-2.553,1.701c-0.842,0.559-1.685,1.127-2.531,1.686
	c-0.842,0.562-1.684,1.125-2.526,1.693c-0.851,0.566-1.701,1.133-2.561,1.691c-0.834,0.551-1.672,1.096-2.497,1.654
	c-0.851,0.576-1.697,1.152-2.548,1.725c-0.876,0.58-1.757,1.154-2.646,1.705c-0.902,0.559-1.81,1.113-2.725,1.646
	c-0.933,0.527-1.869,1.053-2.827,1.52c-0.902,0.447-1.813,0.877-2.729,1.289c-0.894,0.4-1.783,0.795-2.677,1.188
	c-0.894,0.387-1.792,0.773-2.686,1.15c-0.907,0.383-1.817,0.762-2.729,1.131c-0.924,0.373-1.853,0.742-2.784,1.082
	c-0.933,0.336-1.869,0.658-2.811,0.959c-0.924,0.297-1.852,0.584-2.78,0.859c-0.881,0.258-1.757,0.523-2.638,0.785
	c-0.881,0.264-1.762,0.521-2.639,0.779c-0.847,0.244-1.693,0.488-2.539,0.742c-0.855,0.254-1.711,0.508-2.57,0.756
	c-0.851,0.246-1.705,0.482-2.561,0.723c-0.863,0.24-1.731,0.48-2.6,0.695c-0.829,0.207-1.654,0.418-2.483,0.623
	c-0.825,0.203-1.646,0.404-2.471,0.602c-0.829,0.199-1.654,0.4-2.483,0.594c-0.816,0.189-1.633,0.379-2.449,0.559
	c-0.795,0.176-1.59,0.352-2.39,0.512c-0.777,0.162-1.556,0.318-2.337,0.473c-0.773,0.15-1.543,0.301-2.316,0.438
	c-0.722,0.129-1.448,0.246-2.17,0.361c-0.709,0.115-1.409,0.223-2.123,0.322c-0.679,0.09-1.357,0.186-2.041,0.266
	c-0.674,0.078-1.354,0.16-2.032,0.225c-0.661,0.064-1.319,0.119-1.985,0.15c-0.58,0.029-1.155,0.064-1.735,0.076
	c-0.481,0.014-0.958,0.018-1.439,0.027c-0.417,0.008-0.834,0.016-1.251,0.025c-0.369,0.012-0.738,0.021-1.108,0.029
	c-0.317,0.01-0.636,0.018-0.954,0.031c-0.313,0.008-0.627,0.021-0.945,0.025c-0.193,0-0.382,0-0.575,0c-0.134,0-0.271,0-0.404,0
	C246.21,378.574,246.21,371.99,250.863,371.99z"/>
<path id="path5933" fill="#010101" d="M197.17,9.984c0.201,0.047,0.902,0.79,1.104,0.846c0.288,0.078,0.078-0.507,0.357-0.399
	c0.344,0.134,0.67,0.301,1.001,0.456c0.339,0.167,0.675,0.339,1.019,0.502c0.373,0.177,0.747,0.353,1.125,0.524
	c0.456,0.202,0.916,0.396,1.375,0.593c0.499,0.215,0.997,0.43,1.496,0.641c0.554,0.228,1.108,0.46,1.662,0.7
	c0.585,0.254,1.169,0.507,1.749,0.765c0.602,0.271,1.203,0.542,1.81,0.804c0.674,0.297,1.34,0.614,2.011,0.937
	c0.709,0.344,1.405,0.718,2.097,1.092c0.705,0.374,1.405,0.761,2.105,1.139c0.718,0.396,1.436,0.786,2.157,1.178
	c0.734,0.391,1.478,0.786,2.222,1.168c0.781,0.404,1.572,0.8,2.354,1.208c0.795,0.403,1.585,0.804,2.376,1.212
	c0.804,0.416,1.607,0.833,2.41,1.254c0.8,0.422,1.599,0.852,2.402,1.268c0.847,0.438,1.685,0.886,2.531,1.328
	c0.842,0.438,1.688,0.877,2.53,1.323c0.864,0.447,1.719,0.911,2.574,1.38c0.868,0.48,1.728,0.967,2.587,1.456
	c0.867,0.503,1.731,1.019,2.595,1.534c0.877,0.52,1.745,1.049,2.608,1.581c0.894,0.559,1.779,1.122,2.655,1.693
	c0.872,0.567,1.74,1.13,2.604,1.701c0.889,0.589,1.762,1.194,2.634,1.801c0.877,0.614,1.74,1.237,2.604,1.864
	c0.852,0.615,1.693,1.229,2.535,1.856c0.834,0.619,1.659,1.255,2.479,1.891c0.795,0.614,1.595,1.221,2.394,1.831
	c0.791,0.602,1.59,1.198,2.385,1.796c0.812,0.605,1.62,1.22,2.419,1.835c0.838,0.645,1.659,1.289,2.488,1.941
	c0.854,0.671,1.706,1.35,2.557,2.037c0.851,0.691,1.697,1.396,2.544,2.097c0.829,0.684,1.654,1.375,2.475,2.075
	c0.82,0.705,1.624,1.423,2.424,2.145c0.786,0.722,1.551,1.465,2.315,2.209c0.757,0.73,1.487,1.482,2.213,2.242
	c0.696,0.739,1.388,1.487,2.067,2.239c0.666,0.726,1.314,1.47,1.959,2.217c0.632,0.73,1.25,1.47,1.878,2.2
	c0.623,0.713,1.241,1.431,1.864,2.148c0.606,0.688,1.217,1.371,1.831,2.045c0.618,0.684,1.241,1.358,1.864,2.033
	c0.637,0.688,1.272,1.37,1.904,2.062c0.631,0.691,1.259,1.388,1.886,2.084c0.632,0.7,1.255,1.4,1.878,2.105
	c0.605,0.688,1.212,1.379,1.817,2.07c0.589,0.675,1.169,1.358,1.762,2.037c0.435,0.438,0.92,0.829,1.414,1.203
	c0.52,0.391,1.074,0.727,1.637,1.053c0.559,0.305,1.151,0.555,1.736,0.812c0.704,0.296,1.409,0.593,2.109,0.894
	c0.743,0.317,1.482,0.645,2.222,0.971c0.795,0.349,1.577,0.718,2.354,1.101c0.8,0.403,1.577,0.842,2.351,1.293
	c0.722,0.43,1.439,0.859,2.157,1.302c0.722,0.447,1.435,0.915,2.144,1.388c0.723,0.481,1.432,0.98,2.136,1.487
	c0.722,0.524,1.439,1.048,2.153,1.585c0.7,0.529,1.4,1.058,2.105,1.586c0.717,0.537,1.431,1.078,2.144,1.62
	c0.735,0.559,1.461,1.126,2.179,1.71c0.73,0.589,1.443,1.203,2.148,1.817c0.722,0.636,1.436,1.285,2.14,1.938
	c0.718,0.67,1.439,1.34,2.17,2.002c0.743,0.679,1.491,1.35,2.243,2.02c0.739,0.666,1.482,1.323,2.226,1.985
	c0.735,0.657,1.482,1.306,2.218,1.959c0.743,0.653,1.478,1.311,2.217,1.964c0.752,0.67,1.5,1.345,2.238,2.023
	c0.757,0.692,1.5,1.396,2.23,2.11c0.718,0.704,1.427,1.413,2.136,2.122c0.704,0.709,1.4,1.427,2.093,2.148
	c0.666,0.701,1.327,1.401,1.989,2.105c0.683,0.73,1.354,1.475,2.023,2.213c0.675,0.744,1.35,1.479,2.02,2.222
	c0.679,0.752,1.358,1.509,2.032,2.261c0.77,0.846,1.491,1.735,2.191,2.638c0.757,0.979,1.487,1.981,2.218,2.978
	c0.704,0.972,1.396,1.947,2.093,2.927c0.709,0.992,1.413,1.989,2.079,3.012c0.907,1.396,1.706,2.857,2.501,4.318
	c0.82,1.538,1.637,3.081,2.467,4.619c0.79,1.444,1.598,2.879,2.419,4.31c0.786,1.362,1.585,2.721,2.401,4.074
	c0.795,1.318,1.577,2.646,2.359,3.979c0.752,1.276,1.504,2.561,2.256,3.842c0.73,1.237,1.461,2.475,2.191,3.712
	c0.709,1.212,1.418,2.424,2.123,3.64c0.679,1.178,1.349,2.359,2.023,3.545c0.641,1.135,1.285,2.273,1.93,3.412
	c0.623,1.108,1.246,2.213,1.86,3.325c0.602,1.092,1.186,2.196,1.766,3.305c0.563,1.083,1.104,2.183,1.638,3.282
	c0.537,1.096,1.044,2.2,1.525,3.322c0.516,1.164,0.949,2.358,1.357,3.566c0.399,1.207,0.756,2.428,1.096,3.652
	c0.322,1.155,0.602,2.324,0.868,3.493c0.245,1.104,0.481,2.208,0.709,3.317c0.219,1.074,0.451,2.152,0.67,3.23
	c0.224,1.083,0.421,2.179,0.619,3.266c0.197,1.083,0.369,2.175,0.532,3.261c0.164,1.066,0.306,2.131,0.438,3.201
	c0.134,1.066,0.241,2.137,0.335,3.205c0.091,1.07,0.146,2.145,0.189,3.219c0.039,1.019,0.061,2.046,0.077,3.069
	c0.018,0.992,0.026,1.984,0.03,2.977c0.009,0.98,0.013,1.955,0.009,2.936c0.004,0.975-0.018,1.951-0.043,2.922
	c-0.021,0.936-0.048,1.877-0.069,2.814c-0.029,0.914-0.047,1.83-0.056,2.75c-0.013,0.92-0.021,1.838-0.03,2.758
	c-0.008,0.934-0.021,1.865-0.038,2.797c-0.018,0.916-0.039,1.826-0.056,2.742c-0.018,0.928-0.048,1.855-0.082,2.785
	c-0.021,0.451-0.039,0.902-0.056,1.354c-0.198,4.648-6.776,4.377-6.583-0.275l0,0c0.021-0.447,0.039-0.895,0.056-1.342
	c0.039-0.885,0.064-1.77,0.082-2.654c0.021-0.912,0.038-1.822,0.056-2.732c0.018-0.916,0.03-1.832,0.039-2.742
	c0.008-0.928,0.017-1.852,0.029-2.779c0.014-0.941,0.03-1.883,0.057-2.824c0.025-0.936,0.047-1.873,0.072-2.814
	c0.021-0.924,0.043-1.848,0.039-2.775c0.004-0.953,0-1.912-0.009-2.865c-0.009-0.967-0.013-1.934-0.03-2.9
	c-0.017-0.977-0.034-1.955-0.072-2.937c-0.039-0.967-0.086-1.938-0.168-2.904c-0.086-0.984-0.189-1.973-0.31-2.961
	c-0.129-1.014-0.267-2.027-0.417-3.041c-0.154-1.02-0.317-2.045-0.498-3.064c-0.189-1.043-0.378-2.083-0.593-3.119
	c-0.22-1.07-0.447-2.145-0.666-3.215c-0.22-1.069-0.447-2.14-0.688-3.205c-0.241-1.065-0.499-2.127-0.786-3.18
	c-0.31-1.108-0.632-2.217-0.988-3.309c-0.353-1.04-0.727-2.066-1.165-3.068c-0.446-1.031-0.911-2.049-1.405-3.059
	c-0.507-1.045-1.022-2.089-1.555-3.115c-0.555-1.058-1.113-2.114-1.689-3.158c-0.602-1.088-1.216-2.175-1.826-3.262
	c-0.645-1.135-1.284-2.269-1.92-3.407c-0.671-1.165-1.332-2.333-2.003-3.498c-0.696-1.203-1.396-2.406-2.105-3.601
	c-0.73-1.246-1.461-2.483-2.187-3.721c-0.752-1.276-1.5-2.553-2.248-3.824c-0.777-1.315-1.551-2.63-2.342-3.94
	c-0.829-1.388-1.654-2.784-2.466-4.186c-0.847-1.474-1.681-2.956-2.492-4.451c-0.834-1.534-1.65-3.072-2.467-4.615
	c-0.709-1.302-1.418-2.6-2.217-3.846c-0.628-0.954-1.285-1.886-1.946-2.814c-0.68-0.954-1.358-1.912-2.046-2.857
	s-1.379-1.886-2.088-2.814c-0.61-0.782-1.237-1.551-1.903-2.286c-0.666-0.747-1.337-1.486-2.007-2.229
	c-0.671-0.743-1.345-1.479-2.016-2.222c-0.648-0.713-1.293-1.431-1.955-2.136c-0.648-0.691-1.298-1.379-1.95-2.066
	c-0.653-0.688-1.319-1.362-1.985-2.037c-0.684-0.683-1.366-1.37-2.059-2.05c-0.688-0.67-1.388-1.332-2.093-1.977
	c-0.717-0.657-1.431-1.311-2.156-1.95c-0.739-0.653-1.475-1.307-2.209-1.96c-0.748-0.666-1.504-1.318-2.247-1.984
	s-1.495-1.328-2.243-1.994c-0.756-0.684-1.517-1.357-2.269-2.05c-0.743-0.67-1.474-1.354-2.209-2.041
	c-0.666-0.61-1.332-1.22-2.011-1.817c-0.648-0.562-1.298-1.121-1.964-1.663c-0.657-0.537-1.327-1.062-2.007-1.572
	c-0.709-0.537-1.413-1.07-2.122-1.603c-0.7-0.529-1.405-1.058-2.105-1.586c-0.671-0.503-1.345-1.001-2.024-1.495
	c-0.64-0.456-1.284-0.915-1.941-1.354c-0.653-0.435-1.307-0.864-1.973-1.272c-0.666-0.412-1.336-0.816-2.007-1.216
	c-0.645-0.374-1.293-0.743-1.955-1.078c-0.691-0.34-1.384-0.666-2.088-0.976c-0.714-0.313-1.431-0.632-2.148-0.941
	c-0.718-0.305-1.431-0.605-2.148-0.91c-0.816-0.353-1.633-0.709-2.411-1.147c-0.799-0.464-1.585-0.95-2.32-1.509
	c-0.846-0.648-1.671-1.327-2.389-2.113c-0.589-0.675-1.173-1.358-1.762-2.037c-0.598-0.679-1.194-1.366-1.796-2.045
	c-0.61-0.692-1.221-1.38-1.839-2.067c-0.619-0.683-1.233-1.366-1.853-2.045c-0.618-0.684-1.246-1.354-1.873-2.028
	c-0.636-0.688-1.272-1.379-1.903-2.071c-0.649-0.718-1.289-1.435-1.93-2.157c-0.632-0.73-1.264-1.456-1.895-2.187
	c-0.623-0.722-1.238-1.457-1.861-2.183c-0.609-0.709-1.232-1.414-1.864-2.105c-0.641-0.709-1.294-1.414-1.946-2.105
	c-0.671-0.701-1.341-1.396-2.033-2.067c-0.713-0.691-1.426-1.384-2.156-2.054c-0.752-0.679-1.5-1.354-2.27-2.011
	c-0.795-0.675-1.594-1.35-2.401-2.016c-0.829-0.683-1.65-1.37-2.483-2.045c-0.83-0.671-1.663-1.337-2.506-1.994
	c-0.799-0.632-1.603-1.263-2.406-1.882c-0.786-0.605-1.576-1.203-2.371-1.796c-0.804-0.606-1.616-1.216-2.424-1.826
	c-0.808-0.619-1.62-1.233-2.428-1.853c-0.791-0.614-1.586-1.232-2.394-1.83c-0.816-0.614-1.646-1.212-2.471-1.809
	c-0.825-0.602-1.654-1.199-2.492-1.783c-0.829-0.58-1.654-1.156-2.496-1.711c-0.852-0.562-1.706-1.117-2.562-1.671
	c-0.842-0.55-1.685-1.087-2.539-1.62c-0.829-0.512-1.663-1.022-2.501-1.517c-0.829-0.494-1.658-0.988-2.496-1.474
	c-0.83-0.473-1.659-0.945-2.497-1.405c-0.816-0.451-1.642-0.898-2.471-1.328c-0.833-0.442-1.671-0.876-2.509-1.314
	s-1.672-0.877-2.514-1.315c-0.812-0.425-1.629-0.854-2.441-1.284c-0.786-0.417-1.581-0.825-2.371-1.237
	c-0.782-0.404-1.564-0.8-2.347-1.203c-0.79-0.4-1.577-0.8-2.367-1.208c-0.778-0.399-1.552-0.812-2.325-1.225
	c-0.73-0.396-1.461-0.79-2.187-1.194c-0.688-0.374-1.375-0.748-2.067-1.117c-0.609-0.326-1.22-0.657-1.848-0.963
	c-0.593-0.287-1.186-0.571-1.787-0.833c-0.614-0.271-1.225-0.537-1.83-0.816c-0.572-0.249-1.139-0.499-1.715-0.748
	c-0.533-0.228-1.07-0.451-1.607-0.675c-0.516-0.219-1.035-0.442-1.547-0.661c-0.485-0.211-0.967-0.417-1.447-0.628
	c-0.435-0.197-0.864-0.395-1.294-0.605c-0.326-0.154-0.648-0.318-0.976-0.477c-0.158-0.073-0.425-0.198-0.532-0.263
	c-0.129-0.047,2.565-0.632,2.394-0.679c-0.082-0.025-0.31-0.653-0.408-0.675c-4.533-1.048-3.795-4.499,0.743-3.45L197.17,9.984z"/>
<path id="path5935" fill="#010101" d="M7.157,196.455c-0.086,0.116,0.228-0.348,0.263-0.399c0.142-0.202,0.266-0.412,0.395-0.618
	c0.198-0.314,0.387-0.623,0.58-0.941c0.25-0.408,0.508-0.816,0.766-1.221c0.309-0.48,0.614-0.958,0.924-1.439
	c0.352-0.55,0.726-1.091,1.1-1.628c0.426-0.589,0.877-1.156,1.332-1.724c0.464-0.58,0.941-1.151,1.422-1.719
	c0.512-0.593,1.036-1.177,1.573-1.748c0.571-0.615,1.164-1.212,1.766-1.797c0.632-0.609,1.276-1.207,1.921-1.8
	c0.679-0.628,1.375-1.237,2.075-1.844c0.692-0.61,1.396-1.216,2.097-1.817c0.727-0.623,1.461-1.237,2.196-1.852
	c0.761-0.628,1.521-1.251,2.281-1.874c0.773-0.64,1.564-1.263,2.347-1.882c0.79-0.623,1.576-1.242,2.371-1.856
	c0.804-0.618,1.611-1.233,2.424-1.843c0.859-0.645,1.731-1.272,2.608-1.896c0.881-0.623,1.771-1.237,2.659-1.848
	c0.902-0.623,1.813-1.233,2.721-1.848c0.932-0.623,1.864-1.241,2.797-1.86c0.954-0.632,1.912-1.259,2.87-1.882
	c0.95-0.628,1.912-1.237,2.879-1.848c0.958-0.61,1.93-1.199,2.896-1.801c0.954-0.605,1.916-1.203,2.874-1.809
	c0.972-0.61,1.96-1.203,2.943-1.796c1.006-0.602,2.024-1.19,3.043-1.775c1.039-0.593,2.084-1.186,3.132-1.762
	c1.07-0.588,2.132-1.182,3.188-1.787c1.07-0.614,2.136-1.233,3.197-1.856c1.048-0.61,2.101-1.22,3.145-1.835
	c1.027-0.605,2.059-1.211,3.09-1.817c1.035-0.61,2.071-1.22,3.119-1.817c1.036-0.598,2.08-1.182,3.124-1.762
	c1.031-0.571,2.067-1.13,3.099-1.697c1.031-0.562,2.058-1.113,3.089-1.672c1.022-0.559,2.059-1.1,3.09-1.637
	c1.022-0.533,2.05-1.057,3.072-1.586c1.005-0.516,2.015-1.022,3.029-1.529c1.031-0.507,2.062-1.01,3.098-1.513
	c1.036-0.494,2.075-0.983,3.111-1.474c1.035-0.49,2.079-0.967,3.124-1.431c1.044-0.469,2.101-0.911,3.162-1.341
	c1.092-0.447,2.195-0.859,3.312-1.246c1.122-0.387,2.252-0.739,3.387-1.092c1.112-0.339,2.234-0.661,3.352-0.992
	c1.061-0.31,2.122-0.632,3.184-0.958c1.027-0.313,2.054-0.649,3.076-0.984c1.015-0.331,2.024-0.67,3.034-1.005
	c0.997-0.336,1.993-0.671,2.986-1.015c0.979-0.326,1.955-0.67,2.931-1.022c0.924-0.322,1.834-0.684,2.736-1.062
	c0.847-0.356,1.681-0.743,2.501-1.151c0.743-0.374,1.466-0.782,2.175-1.203c0.691-0.417,1.366-0.855,2.045-1.285
	c0.73-0.468,1.474-0.915,2.222-1.357c0.743-0.43,1.499-0.838,2.26-1.237c0.7-0.374,1.401-0.743,2.097-1.122
	c0.684-0.36,1.358-0.734,2.028-1.125c0.657-0.387,1.302-0.795,1.946-1.208c0.675-0.425,1.35-0.854,2.024-1.284
	c0.691-0.435,1.379-0.868,2.075-1.289c0.67-0.404,1.336-0.809,2.002-1.225c0.649-0.4,1.281-0.821,1.912-1.251
	c0.666-0.464,1.337-0.933,2.007-1.388c0.714-0.49,1.436-0.954,2.166-1.414c0.709-0.438,1.422-0.876,2.14-1.302
	c0.61-0.356,1.229-0.7,1.848-1.04c4.082-2.234,6.621-7.012,4.014,4.456l-1.126,1.087c-0.555,0.301-0.838,0.847-1.384,1.165
	c-0.67,0.399-1.336,0.808-2.002,1.22c-0.653,0.408-1.303,0.821-1.938,1.26c-0.675,0.459-1.341,0.928-2.007,1.392
	c-0.709,0.481-1.418,0.954-2.144,1.401c-0.688,0.43-1.38,0.846-2.067,1.268c-0.661,0.399-1.311,0.808-1.963,1.216
	c-0.68,0.43-1.354,0.863-2.028,1.293c-0.718,0.456-1.436,0.911-2.17,1.341c-0.727,0.417-1.461,0.825-2.2,1.221
	c-0.718,0.387-1.439,0.773-2.161,1.151c-0.675,0.356-1.341,0.718-1.998,1.1c-0.679,0.399-1.354,0.804-2.02,1.225
	c-0.735,0.469-1.47,0.945-2.222,1.396c-0.855,0.507-1.719,0.993-2.608,1.439c-0.949,0.469-1.907,0.92-2.883,1.323
	c-1.01,0.426-2.024,0.825-3.051,1.19c-1.006,0.361-2.02,0.714-3.034,1.058c-1.005,0.344-2.015,0.683-3.024,1.026
	c-1.022,0.34-2.041,0.679-3.063,1.015c-1.062,0.348-2.123,0.691-3.193,1.018c-1.082,0.336-2.17,0.662-3.261,0.984
	c-1.092,0.322-2.188,0.636-3.274,0.971c-1.062,0.322-2.114,0.658-3.162,1.015c-1.01,0.353-2.007,0.726-2.995,1.126
	c-0.993,0.403-1.981,0.82-2.961,1.259c-1.001,0.442-1.998,0.897-2.99,1.366c-1.019,0.481-2.041,0.963-3.06,1.452
	c-1.006,0.485-2.016,0.976-3.021,1.474c-0.993,0.494-1.981,0.993-2.965,1.496c-1.01,0.52-2.02,1.035-3.025,1.56
	c-1.005,0.528-2.015,1.057-3.017,1.599c-1.018,0.55-2.036,1.1-3.055,1.654c-1.019,0.559-2.045,1.112-3.06,1.676
	c-1.022,0.566-2.045,1.139-3.055,1.723c-1.022,0.58-2.032,1.178-3.047,1.774c-1.031,0.61-2.066,1.216-3.098,1.822
	c-1.053,0.618-2.105,1.233-3.163,1.848c-1.082,0.632-2.165,1.263-3.252,1.891c-1.088,0.614-2.175,1.225-3.266,1.826
	c-1.019,0.562-2.028,1.134-3.038,1.71c-0.984,0.562-1.964,1.13-2.935,1.715c-0.945,0.562-1.896,1.13-2.828,1.719
	c-0.967,0.609-1.934,1.216-2.9,1.826c-0.949,0.593-1.903,1.168-2.849,1.77c-0.945,0.598-1.886,1.195-2.823,1.81
	c-0.937,0.61-1.873,1.225-2.806,1.843c-0.919,0.61-1.839,1.221-2.759,1.835c-0.889,0.602-1.783,1.203-2.668,1.813
	c-0.868,0.598-1.736,1.19-2.596,1.801c-0.82,0.58-1.633,1.168-2.436,1.77c-0.795,0.602-1.586,1.199-2.377,1.805
	c-0.769,0.598-1.533,1.199-2.299,1.805c-0.76,0.598-1.521,1.199-2.264,1.813c-0.748,0.614-1.5,1.229-2.243,1.848
	c-0.718,0.593-1.427,1.19-2.132,1.792c-0.683,0.589-1.37,1.178-2.049,1.774c-0.653,0.567-1.303,1.135-1.934,1.719
	c-0.602,0.559-1.212,1.117-1.801,1.688c-0.524,0.508-1.035,1.019-1.529,1.552c-0.473,0.507-0.938,1.022-1.389,1.547
	c-0.442,0.511-0.872,1.035-1.297,1.563c-0.374,0.465-0.748,0.929-1.092,1.414c-0.322,0.455-0.636,0.911-0.933,1.379
	c-0.301,0.465-0.602,0.933-0.902,1.396c-0.24,0.383-0.485,0.761-0.718,1.147c-0.197,0.318-0.391,0.641-0.588,0.954
	c-0.164,0.271-0.331,0.533-0.508,0.795c-0.133,0.202-0.219,0.331-0.356,0.537C9.882,204.047,4.489,200.271,7.157,196.455z"/>
<path id="path5937" fill="#010101" d="M199.902,14.272c-0.073,0.224-0.154,0.442-0.236,0.661c-0.099,0.254-0.211,0.508-0.326,0.757
	c-0.181,0.369-0.392,0.726-0.61,1.074c-0.163,0.267-0.327,0.532-0.49,0.799c-0.172,0.275-0.335,0.559-0.494,0.838
	c-0.172,0.288-0.326,0.585-0.477,0.881c-0.189,0.361-0.37,0.722-0.55,1.092c-0.177,0.365-0.344,0.747-0.503,1.126
	c-0.181,0.434-0.344,0.876-0.507,1.318c-0.189,0.508-0.374,1.015-0.555,1.525c-0.185,0.537-0.361,1.074-0.541,1.616
	c-0.186,0.589-0.383,1.173-0.576,1.757c-0.202,0.623-0.408,1.246-0.614,1.869c-0.211,0.619-0.417,1.242-0.619,1.861
	c-0.215,0.645-0.43,1.289-0.645,1.934c-0.206,0.652-0.412,1.302-0.614,1.955c-0.206,0.657-0.399,1.314-0.58,1.98
	c-0.193,0.675-0.369,1.354-0.546,2.028c-0.181,0.704-0.365,1.409-0.541,2.118c-0.172,0.718-0.349,1.436-0.521,2.157
	c-0.167,0.73-0.33,1.47-0.489,2.208c-0.159,0.748-0.31,1.496-0.46,2.248c-0.15,0.769-0.288,1.547-0.434,2.32
	c-0.155,0.803-0.293,1.611-0.443,2.414c-0.158,0.838-0.309,1.676-0.464,2.514c-0.154,0.843-0.317,1.685-0.481,2.531
	c-0.158,0.847-0.326,1.688-0.494,2.531c-0.167,0.854-0.348,1.71-0.528,2.561c-0.176,0.851-0.36,1.701-0.55,2.553
	c-0.185,0.846-0.378,1.697-0.567,2.548c-0.188,0.847-0.382,1.697-0.571,2.544c-0.189,0.829-0.365,1.662-0.541,2.496
	c-0.189,0.847-0.365,1.697-0.551,2.544c-0.185,0.833-0.356,1.667-0.537,2.501c-0.18,0.812-0.352,1.628-0.52,2.449
	c-0.168,0.812-0.326,1.624-0.481,2.436c-0.159,0.821-0.305,1.633-0.446,2.454c-0.146,0.82-0.284,1.642-0.417,2.466
	c-0.134,0.809-0.254,1.616-0.365,2.428c-0.104,0.791-0.202,1.582-0.292,2.377c-0.086,0.799-0.164,1.598-0.245,2.393
	c-0.048,0.524-0.086,1.049-0.129,1.568c-0.374,4.641-6.939,4.112-6.565-0.528l0,0c0.047-0.559,0.09-1.117,0.146-1.676
	c0.077-0.829,0.159-1.663,0.254-2.492c0.095-0.851,0.197-1.706,0.31-2.557c0.12-0.859,0.244-1.719,0.387-2.573
	c0.142-0.852,0.283-1.697,0.43-2.549c0.15-0.851,0.305-1.697,0.468-2.543c0.163-0.847,0.327-1.697,0.499-2.54
	c0.172-0.833,0.352-1.671,0.532-2.505c0.185-0.834,0.356-1.672,0.542-2.505c0.18-0.834,0.356-1.667,0.537-2.501
	c0.18-0.868,0.369-1.736,0.566-2.596c0.189-0.846,0.383-1.688,0.567-2.535c0.189-0.838,0.374-1.68,0.563-2.518
	c0.18-0.834,0.36-1.667,0.537-2.501c0.176-0.829,0.348-1.654,0.511-2.487c0.168-0.83,0.331-1.654,0.485-2.484
	c0.159-0.833,0.322-1.662,0.478-2.496c0.154-0.838,0.305-1.676,0.464-2.514c0.15-0.808,0.288-1.615,0.442-2.424
	c0.15-0.79,0.292-1.585,0.447-2.376c0.154-0.782,0.313-1.572,0.481-2.354c0.167-0.782,0.335-1.56,0.52-2.338
	c0.176-0.743,0.356-1.486,0.537-2.229c0.181-0.727,0.365-1.452,0.555-2.17c0.185-0.73,0.378-1.461,0.584-2.183
	c0.202-0.718,0.408-1.432,0.627-2.145c0.215-0.688,0.435-1.375,0.653-2.059c0.211-0.645,0.43-1.289,0.641-1.938
	c0.21-0.632,0.417-1.268,0.632-1.899c0.201-0.605,0.399-1.212,0.602-1.821c0.193-0.589,0.391-1.169,0.575-1.758
	c0.193-0.584,0.387-1.173,0.589-1.758c0.189-0.541,0.396-1.087,0.593-1.633c0.198-0.523,0.392-1.053,0.61-1.568
	c0.206-0.494,0.421-0.983,0.653-1.465c0.202-0.417,0.408-0.829,0.623-1.237c0.202-0.392,0.408-0.782,0.632-1.165
	c0.188-0.326,0.378-0.652,0.575-0.975c0.177-0.284,0.349-0.567,0.521-0.852c0.086-0.133,0.154-0.313,0.223-0.455
	c0.039-0.068,0.052-0.099,0.116-0.271c0.026-0.073,0.12-0.206,0.146-0.284C195.064,7.818,201.329,9.841,199.902,14.272
	L199.902,14.272z"/>
<path id="path5939" fill="#010101" d="M12.013,196.334c0.056,0.138,0.104,0.245,0.172,0.417c0.095,0.232,0.189,0.473,0.275,0.709
	c0.103,0.275,0.202,0.555,0.305,0.829c0.12,0.331,0.241,0.662,0.365,0.993c0.138,0.387,0.271,0.773,0.408,1.16
	c0.125,0.356,0.254,0.709,0.399,1.057c0.155,0.365,0.331,0.722,0.508,1.078c0.201,0.417,0.416,0.83,0.636,1.238
	c0.245,0.446,0.485,0.885,0.73,1.323c0.249,0.46,0.524,0.902,0.79,1.349c0.297,0.49,0.594,0.98,0.895,1.466
	c0.326,0.52,0.661,1.04,0.992,1.563c0.318,0.499,0.648,0.984,0.988,1.47c0.383,0.546,0.773,1.096,1.16,1.642
	c0.408,0.567,0.816,1.13,1.237,1.688c0.43,0.571,0.872,1.13,1.319,1.688c0.455,0.572,0.92,1.135,1.393,1.697
	c0.489,0.58,0.992,1.152,1.49,1.719c0.529,0.606,1.074,1.199,1.611,1.797c0.537,0.605,1.083,1.203,1.633,1.8
	c0.555,0.602,1.109,1.203,1.672,1.801c0.576,0.605,1.151,1.215,1.731,1.826c0.563,0.592,1.135,1.182,1.715,1.762
	c0.589,0.588,1.182,1.172,1.787,1.748c0.623,0.609,1.259,1.207,1.896,1.805c0.64,0.598,1.28,1.189,1.92,1.783
	c0.653,0.602,1.311,1.195,1.969,1.783c0.657,0.589,1.318,1.183,1.98,1.763c0.666,0.574,1.341,1.15,2.011,1.727
	c0.679,0.58,1.358,1.156,2.032,1.732c0.696,0.588,1.384,1.182,2.067,1.777c0.67,0.59,1.349,1.174,2.023,1.758
	c0.684,0.594,1.371,1.174,2.054,1.762c0.68,0.594,1.362,1.182,2.05,1.766c0.688,0.59,1.38,1.17,2.067,1.754
	c0.648,0.559,1.314,1.096,1.98,1.633s1.336,1.061,2.011,1.582c0.688,0.527,1.384,1.043,2.071,1.568
	c0.691,0.52,1.388,1.043,2.08,1.562c0.695,0.525,1.396,1.045,2.097,1.564c0.709,0.525,1.413,1.057,2.122,1.582
	c0.696,0.516,1.401,1.021,2.102,1.533c0.7,0.504,1.405,1.006,2.102,1.518c0.695,0.498,1.392,0.996,2.084,1.494
	c0.683,0.494,1.37,0.98,2.054,1.471c0.683,0.48,1.362,0.971,2.036,1.457c0.688,0.488,1.367,0.988,2.041,1.494
	c0.671,0.498,1.337,1.01,1.994,1.525c0.67,0.525,1.328,1.066,1.98,1.607c0.653,0.541,1.307,1.088,1.951,1.641
	c3.536,3.029-0.748,8.027-4.279,4.998l0,0c-0.619-0.523-1.238-1.049-1.865-1.568c-0.61-0.502-1.225-1.006-1.848-1.496
	c-0.619-0.484-1.246-0.967-1.878-1.434c-0.64-0.482-1.284-0.955-1.938-1.424c-0.671-0.48-1.345-0.967-2.024-1.443
	c-0.691-0.494-1.383-0.988-2.075-1.482c-0.696-0.502-1.396-1.006-2.093-1.508c-0.7-0.508-1.404-1.014-2.105-1.521
	c-0.717-0.523-1.439-1.039-2.152-1.568c-0.713-0.523-1.414-1.053-2.118-1.58c-0.718-0.529-1.436-1.062-2.148-1.6
	c-0.7-0.523-1.396-1.053-2.097-1.576c-0.701-0.533-1.41-1.062-2.114-1.604c-0.709-0.549-1.418-1.1-2.118-1.666
	c-0.714-0.576-1.432-1.152-2.123-1.75c-0.688-0.584-1.379-1.168-2.071-1.758c-0.691-0.588-1.388-1.186-2.075-1.783
	c-0.684-0.588-1.371-1.172-2.054-1.766c-0.688-0.588-1.375-1.186-2.054-1.787c-0.662-0.576-1.324-1.146-1.994-1.715
	c-0.679-0.576-1.366-1.156-2.045-1.74c-0.692-0.592-1.384-1.182-2.076-1.779c-0.683-0.605-1.366-1.215-2.049-1.826
	c-0.675-0.609-1.35-1.215-2.02-1.83c-0.658-0.605-1.315-1.215-1.969-1.826c-0.657-0.619-1.311-1.233-1.959-1.86
	c-0.636-0.615-1.271-1.238-1.895-1.861c-0.61-0.613-1.217-1.232-1.805-1.859c-0.585-0.611-1.165-1.225-1.749-1.84
	c-0.589-0.623-1.169-1.254-1.749-1.881c-0.562-0.615-1.121-1.225-1.676-1.844c-0.55-0.619-1.113-1.225-1.654-1.852
	c-0.533-0.607-1.065-1.212-1.586-1.832c-0.507-0.602-1.01-1.207-1.499-1.826c-0.485-0.605-0.972-1.216-1.439-1.843
	c-0.451-0.598-0.894-1.203-1.328-1.813c-0.399-0.562-0.799-1.126-1.198-1.693c-0.396-0.562-0.782-1.139-1.152-1.719
	c-0.339-0.537-0.679-1.065-1.014-1.603c-0.326-0.52-0.645-1.044-0.963-1.572c-0.305-0.512-0.618-1.015-0.902-1.543
	c-0.262-0.468-0.523-0.94-0.781-1.413c-0.241-0.46-0.481-0.92-0.709-1.389c-0.245-0.494-0.49-0.988-0.701-1.504
	c-0.193-0.464-0.373-0.932-0.537-1.409c-0.124-0.36-0.253-0.722-0.382-1.083c-0.112-0.313-0.232-0.623-0.344-0.937
	c-0.104-0.274-0.202-0.55-0.297-0.825c-0.068-0.18-0.142-0.356-0.215-0.537c-0.052-0.12-0.107-0.258-0.167-0.399
	C4.154,194.517,10.247,192.029,12.013,196.334z"/>
<path id="path5941" fill="#010101" d="M91.943,275.037c0.073,0.205,0.133,0.42,0.197,0.631c0.095,0.293,0.168,0.594,0.241,0.895
	c0.077,0.33,0.15,0.66,0.215,0.992c0.068,0.33,0.133,0.656,0.206,0.984c0.086,0.387,0.176,0.773,0.271,1.16
	c0.104,0.434,0.206,0.867,0.318,1.305c0.111,0.457,0.231,0.916,0.356,1.371c0.125,0.473,0.262,0.934,0.396,1.396
	c0.15,0.512,0.305,1.014,0.455,1.525c0.159,0.547,0.313,1.096,0.469,1.646c0.154,0.559,0.322,1.117,0.481,1.676
	c0.167,0.598,0.335,1.199,0.502,1.795c0.172,0.598,0.353,1.195,0.537,1.789c0.207,0.652,0.4,1.301,0.606,1.949
	c0.231,0.693,0.455,1.385,0.675,2.08c0.223,0.719,0.451,1.436,0.683,2.152c0.22,0.68,0.46,1.354,0.722,2.02
	c0.271,0.709,0.585,1.402,0.902,2.09c0.357,0.768,0.723,1.533,1.092,2.293c0.374,0.762,0.773,1.51,1.169,2.256
	c0.403,0.762,0.82,1.518,1.241,2.27c0.43,0.756,0.881,1.496,1.332,2.23c0.456,0.734,0.92,1.461,1.389,2.188
	c0.473,0.734,0.958,1.461,1.452,2.186c0.498,0.73,1.01,1.457,1.529,2.176c0.521,0.713,1.062,1.404,1.603,2.096
	c0.551,0.709,1.109,1.4,1.681,2.094c0.593,0.713,1.198,1.418,1.805,2.121c0.597,0.693,1.212,1.375,1.835,2.047
	c0.618,0.66,1.254,1.311,1.895,1.949c0.666,0.662,1.336,1.311,2.023,1.951c0.705,0.658,1.423,1.303,2.141,1.943
	c0.743,0.666,1.49,1.318,2.234,1.984c0.747,0.67,1.486,1.35,2.234,2.02c0.717,0.652,1.447,1.293,2.183,1.93
	c0.718,0.619,1.448,1.229,2.179,1.83c0.734,0.602,1.474,1.195,2.213,1.787c0.743,0.594,1.486,1.186,2.229,1.771
	c0.722,0.566,1.466,1.117,2.209,1.658c0.756,0.555,1.529,1.092,2.308,1.619c0.786,0.541,1.576,1.066,2.376,1.582
	c0.808,0.527,1.637,1.035,2.458,1.537c0.82,0.504,1.658,0.984,2.496,1.453c0.838,0.465,1.685,0.91,2.539,1.346
	c0.868,0.441,1.74,0.875,2.613,1.305c0.889,0.443,1.791,0.873,2.689,1.299c0.971,0.459,1.951,0.906,2.931,1.354
	c1.005,0.451,2.015,0.893,3.029,1.328c1.014,0.424,2.023,0.854,3.038,1.275c1.005,0.412,2.02,0.809,3.029,1.195
	c1.014,0.387,2.032,0.756,3.051,1.129c0.996,0.369,1.993,0.723,2.999,1.066c0.997,0.344,2.007,0.666,3.017,0.984
	c1.005,0.312,2.015,0.617,3.024,0.914c1.022,0.305,2.041,0.598,3.068,0.881c1.019,0.289,2.036,0.559,3.055,0.838
	c1.022,0.275,2.041,0.555,3.063,0.834c0.671,0.18,1.341,0.361,2.012,0.541c4.49,1.229,2.758,7.58-1.732,6.355l0,0
	c-0.674-0.186-1.349-0.361-2.02-0.545c-1.014-0.279-2.027-0.559-3.042-0.83c-1.04-0.283-2.079-0.559-3.115-0.852
	c-1.048-0.291-2.097-0.592-3.141-0.906c-1.053-0.309-2.105-0.623-3.149-0.953c-1.066-0.332-2.127-0.676-3.18-1.035
	c-1.045-0.357-2.089-0.727-3.129-1.109c-1.048-0.387-2.097-0.77-3.137-1.164c-1.069-0.412-2.14-0.83-3.201-1.268
	c-1.035-0.43-2.066-0.863-3.098-1.303c-1.057-0.447-2.109-0.906-3.154-1.379c-1.014-0.459-2.027-0.924-3.033-1.4
	c-0.933-0.443-1.86-0.885-2.784-1.346c-0.907-0.447-1.813-0.893-2.712-1.35c-0.924-0.477-1.843-0.957-2.754-1.465
	c-0.906-0.506-1.813-1.027-2.698-1.572c-0.877-0.537-1.753-1.07-2.617-1.633c-0.842-0.545-1.68-1.1-2.505-1.672
	c-0.829-0.566-1.654-1.139-2.467-1.73c-0.812-0.59-1.615-1.188-2.401-1.805c-0.765-0.598-1.521-1.199-2.273-1.805
	c-0.769-0.611-1.529-1.225-2.29-1.848c-0.773-0.637-1.543-1.285-2.308-1.943c-0.765-0.662-1.529-1.332-2.281-2.01
	c-0.739-0.672-1.474-1.342-2.213-2.008c-0.739-0.656-1.482-1.311-2.222-1.967c-0.765-0.684-1.525-1.367-2.277-2.068
	c-0.727-0.682-1.443-1.379-2.152-2.078c-0.705-0.701-1.393-1.406-2.067-2.133c-0.679-0.73-1.349-1.473-1.998-2.225
	c-0.636-0.744-1.276-1.482-1.899-2.23c-0.609-0.744-1.211-1.49-1.805-2.248c-0.584-0.752-1.173-1.508-1.731-2.277
	c-0.559-0.768-1.108-1.547-1.642-2.328c-0.52-0.766-1.035-1.539-1.538-2.32c-0.498-0.77-0.997-1.539-1.478-2.32
	c-0.49-0.803-0.976-1.607-1.436-2.42c-0.46-0.807-0.906-1.619-1.341-2.439c-0.43-0.809-0.859-1.615-1.263-2.445
	c-0.392-0.799-0.778-1.607-1.156-2.42c-0.374-0.811-0.743-1.633-1.065-2.471c-0.301-0.781-0.585-1.568-0.843-2.363
	c-0.24-0.734-0.468-1.473-0.7-2.207c-0.215-0.688-0.438-1.371-0.661-2.055c-0.22-0.666-0.417-1.332-0.628-2.002
	c-0.202-0.645-0.396-1.293-0.584-1.947c-0.168-0.592-0.335-1.186-0.499-1.779c-0.158-0.566-0.326-1.133-0.485-1.697
	c-0.146-0.523-0.296-1.047-0.446-1.572c-0.155-0.52-0.314-1.039-0.465-1.555c-0.15-0.512-0.301-1.02-0.434-1.535
	c-0.133-0.48-0.258-0.961-0.378-1.447c-0.116-0.455-0.224-0.91-0.331-1.371c-0.104-0.42-0.206-0.846-0.301-1.275
	c-0.086-0.387-0.168-0.773-0.245-1.164c-0.052-0.264-0.107-0.521-0.172-0.783c-0.03-0.141-0.068-0.287-0.111-0.43
	c-0.021-0.064-0.15-0.473-0.086-0.305C84.162,272.932,90.341,270.666,91.943,275.037z"/>
<path id="path5943" fill="#010101" d="M121.309,354.938c0.335-0.225,0.691-0.4,1.048-0.586c0.284-0.141,0.559-0.301,0.834-0.455
	c0.356-0.193,0.709-0.391,1.065-0.588c0.353-0.197,0.7-0.404,1.044-0.619c0.365-0.236,0.722-0.477,1.074-0.727
	c0.378-0.266,0.739-0.549,1.096-0.838c0.396-0.322,0.778-0.652,1.16-0.992c0.426-0.391,0.851-0.781,1.272-1.182
	c0.459-0.438,0.91-0.885,1.37-1.324c0.503-0.477,1.015-0.949,1.521-1.422c0.554-0.516,1.121-1.014,1.692-1.508
	c0.572-0.49,1.139-0.98,1.702-1.482c0.567-0.502,1.126-1.018,1.685-1.529c0.559-0.52,1.108-1.045,1.658-1.568
	c0.576-0.551,1.147-1.096,1.719-1.646c0.593-0.57,1.182-1.146,1.783-1.715c0.619-0.592,1.246-1.168,1.882-1.734
	c0.641-0.576,1.289-1.131,1.942-1.686c0.438-0.373,0.219-0.189,0.662-0.559c3.588-2.969,7.79,2.098,4.206,5.07l0,0
	c-0.399,0.332-0.197,0.164-0.597,0.498c-0.61,0.521-1.217,1.041-1.813,1.574c-0.598,0.527-1.182,1.068-1.762,1.619
	c-0.585,0.555-1.16,1.117-1.74,1.676c-0.576,0.555-1.156,1.104-1.731,1.658c-0.576,0.555-1.156,1.105-1.745,1.65
	c-0.593,0.545-1.186,1.092-1.787,1.629c-0.576,0.512-1.165,1.018-1.749,1.521c-0.52,0.445-1.031,0.893-1.534,1.361
	c-0.481,0.447-0.967,0.898-1.448,1.357c-0.468,0.447-0.928,0.902-1.396,1.35c-0.459,0.43-0.919,0.859-1.388,1.281
	c-0.468,0.424-0.949,0.838-1.443,1.236c-0.46,0.369-0.924,0.734-1.409,1.074c-0.456,0.322-0.911,0.627-1.38,0.928
	c-0.438,0.275-0.881,0.537-1.327,0.791c-0.349,0.193-0.701,0.391-1.053,0.584c-0.336,0.186-0.662,0.371-1.006,0.543
	c-0.086,0.051-0.438,0.262-0.421,0.209C121.141,362.998,117.449,357.549,121.309,354.938z"/>
<path id="path5945" fill="#010101" d="M138.031,366.518c0.143-0.354,0.344-0.676,0.551-0.988c0.146-0.203,0.296-0.393,0.446-0.586
	c0.168-0.223,0.335-0.441,0.503-0.66c0.249-0.314,0.512-0.623,0.777-0.93c0.279-0.344,0.576-0.67,0.873-1
	c0.335-0.375,0.674-0.744,1.018-1.105c0.383-0.398,0.77-0.789,1.165-1.176c0.399-0.387,0.799-0.77,1.194-1.152
	c0.421-0.395,0.829-0.799,1.237-1.203c0.417-0.412,0.825-0.834,1.233-1.254c0.421-0.439,0.842-0.877,1.259-1.316
	c0.417-0.441,0.829-0.889,1.237-1.34c0.435-0.48,0.859-0.963,1.289-1.447c0.443-0.508,0.881-1.016,1.328-1.521
	c0.46-0.52,0.92-1.045,1.384-1.564c0.489-0.545,0.992-1.078,1.495-1.611c0.512-0.537,1.031-1.066,1.556-1.59
	c3.296-3.283,7.944,1.379,4.645,4.666l0,0c-0.477,0.482-0.954,0.963-1.422,1.453c-0.456,0.484-0.915,0.967-1.354,1.461
	c-0.46,0.512-0.911,1.027-1.366,1.543c-0.447,0.502-0.886,1.014-1.324,1.516c-0.442,0.504-0.889,1.006-1.336,1.5
	s-0.898,0.984-1.357,1.469c-0.435,0.461-0.873,0.916-1.311,1.371c-0.438,0.451-0.881,0.902-1.328,1.35
	c-0.434,0.43-0.868,0.855-1.311,1.275c-0.387,0.371-0.773,0.744-1.16,1.117c-0.335,0.328-0.662,0.658-0.984,0.994
	c-0.296,0.312-0.588,0.631-0.876,0.953c-0.267,0.297-0.533,0.588-0.782,0.895c-0.193,0.223-0.383,0.445-0.567,0.678
	c-0.159,0.203-0.317,0.408-0.477,0.615c-0.091,0.119-0.159,0.27-0.279,0.365c0.047-0.078,0.038-0.043,0.138-0.283
	C142.363,373.314,136.27,370.826,138.031,366.518L138.031,366.518z"/>
<path id="path5947" fill="#010101" d="M398.5,229.847c-0.306,0.059,0.421-0.1,0.473-0.113c0.258-0.047,0.524-0.086,0.786-0.119
	c0.279-0.035,0.559-0.064,0.842-0.09c0.322-0.035,0.649-0.061,0.976-0.086c0.365-0.027,0.73-0.049,1.096-0.074
	c0.426-0.025,0.851-0.047,1.276-0.068c0.469-0.021,0.937-0.043,1.405-0.061c0.503-0.021,1.001-0.039,1.499-0.055
	c0.494-0.018,0.988-0.049,1.482-0.078c0.542-0.043,1.083-0.086,1.625-0.133c0.571-0.053,1.139-0.121,1.705-0.193
	c0.623-0.082,1.238-0.172,1.853-0.271c0.661-0.104,1.323-0.215,1.985-0.33c0.652-0.117,1.297-0.254,1.941-0.396
	c0.705-0.158,1.41-0.305,2.119-0.463c0.704-0.15,1.409-0.311,2.113-0.465c0.456-0.104,0.224-0.051,0.692-0.158
	c4.537-1.035,6.003,5.383,1.465,6.42l0,0c-0.481,0.107-0.24,0.051-0.726,0.162c-0.709,0.16-1.418,0.314-2.127,0.473
	c-0.705,0.15-1.414,0.301-2.119,0.461c-0.743,0.162-1.486,0.322-2.229,0.451c-0.7,0.119-1.393,0.24-2.093,0.352
	c-0.675,0.107-1.354,0.207-2.028,0.293c-0.657,0.086-1.314,0.166-1.972,0.223c-0.594,0.057-1.187,0.104-1.779,0.146
	c-0.555,0.039-1.113,0.068-1.672,0.086c-0.489,0.017-0.975,0.034-1.465,0.056c-0.451,0.018-0.902,0.039-1.354,0.061
	c-0.399,0.018-0.795,0.039-1.194,0.061c-0.335,0.021-0.666,0.043-0.997,0.068c-0.279,0.021-0.555,0.043-0.829,0.068
	c-0.215,0.021-0.43,0.043-0.641,0.068c-0.133,0.021-0.267,0.039-0.396,0.061c-0.047,0.014-0.249,0.051-0.313,0.078
	C395.351,237.268,393.949,230.835,398.5,229.847L398.5,229.847z"/>
<path id="path5949" fill="#010101" d="M401.396,244.705c0.164,0,0.322,0,0.481,0c0.249,0,0.503,0,0.752,0
	c0.37,0,0.739,0.004,1.108,0.012c0.387,0.01,0.773,0.021,1.16,0.031c0.417,0.012,0.838,0.021,1.26,0.029
	c0.416,0,0.829,0.004,1.246-0.004c0.434-0.004,0.867-0.021,1.302-0.047c0.498-0.031,1.001-0.064,1.499-0.096
	c0.542-0.029,1.083-0.064,1.625-0.094c0.545-0.025,1.096-0.057,1.641-0.09c0.542-0.039,1.079-0.096,1.616-0.143
	c0.593-0.055,1.182-0.111,1.766-0.168c0.623-0.064,1.246-0.129,1.865-0.184c0.605-0.064,1.207-0.125,1.813-0.189
	c0.301-0.035,0.597-0.072,0.897-0.111c4.619-0.576,5.436,5.959,0.816,6.535l0,0c-0.326,0.039-0.653,0.078-0.979,0.115
	c-0.645,0.074-1.285,0.139-1.93,0.203c-0.609,0.061-1.216,0.119-1.821,0.18c-0.602,0.061-1.199,0.117-1.801,0.172
	c-0.605,0.057-1.212,0.117-1.821,0.16c-0.567,0.033-1.139,0.068-1.711,0.094c-0.523,0.029-1.053,0.061-1.576,0.09
	c-0.512,0.031-1.023,0.064-1.534,0.096c-0.521,0.029-1.044,0.051-1.568,0.059c-0.494,0.01-0.993,0.01-1.487,0.006
	c-0.43-0.01-0.854-0.021-1.284-0.035c-0.387-0.008-0.773-0.018-1.165-0.029c-0.313-0.01-0.623-0.014-0.937-0.01
	c-0.249,0-0.503,0-0.752,0c-0.159,0-0.317,0-0.481,0C396.742,251.287,396.742,244.705,401.396,244.705L401.396,244.705z"/>
<path id="path5951" fill="#010101" d="M39.891,402.301c0.469-0.807,0.95-1.607,1.453-2.396c0.498-0.783,0.996-1.561,1.521-2.32
	c0.512-0.752,1.031-1.492,1.547-2.234c0.524-0.752,1.058-1.492,1.595-2.234c0.528-0.727,1.061-1.453,1.594-2.176
	c0.537-0.725,1.074-1.455,1.611-2.182c0.555-0.752,1.113-1.496,1.667-2.248c0.563-0.752,1.13-1.5,1.688-2.252
	c0.576-0.764,1.147-1.529,1.728-2.289c0.58-0.762,1.165-1.525,1.745-2.291c0.588-0.77,1.177-1.537,1.766-2.303
	s1.178-1.529,1.771-2.281c0.589-0.756,1.182-1.508,1.778-2.256c0.598-0.752,1.199-1.504,1.797-2.256
	c0.605-0.756,1.211-1.514,1.83-2.252c0.589-0.713,1.169-1.426,1.744-2.148c0.598-0.744,1.203-1.482,1.813-2.217
	c0.632-0.752,1.276-1.5,1.934-2.227c0.649-0.713,1.302-1.422,1.973-2.109c0.675-0.691,1.357-1.371,2.05-2.049
	c0.695-0.68,1.4-1.35,2.109-2.012c0.696-0.641,1.388-1.281,2.08-1.926c0.713-0.66,1.418-1.332,2.144-1.977
	c0.761-0.67,1.534-1.326,2.329-1.955c0.804-0.631,1.629-1.246,2.467-1.834c0.812-0.566,1.624-1.125,2.457-1.662
	c0.795-0.508,1.59-1.01,2.394-1.5c0.821-0.498,1.65-0.984,2.492-1.449c0.812-0.441,1.629-0.871,2.458-1.283
	c0.791-0.396,1.581-0.791,2.376-1.174c0.804-0.383,1.616-0.76,2.437-1.109c0.786-0.33,1.572-0.648,2.367-0.961
	c0.735-0.285,1.479-0.559,2.218-0.834c0.696-0.262,1.388-0.529,2.084-0.795c0.683-0.258,1.37-0.508,2.054-0.766
	c0.619-0.219,1.233-0.447,1.844-0.684c0.614-0.23,1.232-0.463,1.855-0.682c0.58-0.207,1.169-0.4,1.758-0.594
	c0.562-0.18,1.13-0.348,1.706-0.494c0.434-0.115,0.868-0.236,1.298-0.365c0.352-0.104,0.709-0.207,1.065-0.301
	c0.172-0.047,0.339-0.104,0.516-0.15c4.469-1.303,6.312,5.02,1.843,6.324l0,0c-0.176,0.049-0.344,0.1-0.511,0.146
	c-0.365,0.1-0.727,0.207-1.087,0.311c-0.478,0.141-0.954,0.27-1.436,0.398c-0.464,0.121-0.928,0.258-1.388,0.404
	c-0.533,0.176-1.062,0.348-1.59,0.533c-0.567,0.201-1.126,0.412-1.685,0.627c-0.648,0.244-1.298,0.486-1.951,0.723
	c-0.648,0.236-1.297,0.477-1.946,0.721c-0.704,0.271-1.409,0.547-2.118,0.809c-0.722,0.27-1.448,0.541-2.17,0.816
	c-0.727,0.283-1.443,0.576-2.161,0.881c-0.735,0.309-1.452,0.645-2.17,0.988c-0.757,0.361-1.509,0.738-2.261,1.117
	c-0.76,0.373-1.508,0.77-2.251,1.178c-0.757,0.412-1.504,0.854-2.243,1.301c-0.748,0.455-1.491,0.924-2.23,1.396
	c-0.76,0.49-1.499,1.002-2.242,1.518c-0.744,0.523-1.47,1.064-2.188,1.629c-0.688,0.545-1.362,1.111-2.02,1.701
	c-0.691,0.619-1.362,1.254-2.041,1.881c-0.688,0.641-1.379,1.273-2.066,1.912c-0.671,0.629-1.341,1.26-1.998,1.908
	c-0.653,0.637-1.298,1.277-1.93,1.93c-0.623,0.641-1.229,1.289-1.826,1.947c-0.598,0.66-1.178,1.332-1.749,2.02
	c-0.584,0.695-1.155,1.404-1.723,2.113c-0.598,0.734-1.194,1.469-1.796,2.205c-0.602,0.717-1.19,1.451-1.775,2.186
	c-0.588,0.74-1.186,1.482-1.774,2.227c-0.593,0.744-1.182,1.49-1.766,2.238c-0.58,0.74-1.156,1.486-1.731,2.234
	c-0.589,0.756-1.169,1.518-1.749,2.281c-0.58,0.762-1.16,1.521-1.74,2.287c-0.571,0.742-1.135,1.5-1.697,2.252
	c-0.559,0.746-1.126,1.494-1.685,2.242c-0.546,0.734-1.096,1.469-1.642,2.209c-0.537,0.727-1.074,1.451-1.611,2.182
	c-0.52,0.709-1.044,1.418-1.563,2.133c-0.512,0.709-1.023,1.422-1.525,2.139c-0.508,0.727-1.015,1.453-1.513,2.188
	c-0.485,0.701-0.945,1.418-1.401,2.141c-0.455,0.713-0.889,1.439-1.318,2.17"/>
<path id="path5955" fill="#010101" d="M286.493,298.613c0,0.004,0.013,0.025,0.009,0.021c-0.073-0.125,0.047,0.068,0.064,0.1
	c-0.018-0.031,0.017,0.016,0.021,0.025c0.056,0.051,0.111,0.111,0.167,0.162c0.095,0.092,0.189,0.182,0.288,0.264
	c0.104,0.094,0.215,0.176,0.327,0.262c0.103,0.086,0.215,0.158,0.326,0.232c0.125,0.08,0.254,0.15,0.383,0.223
	c0.146,0.072,0.296,0.137,0.446,0.201c0.189,0.078,0.383,0.143,0.576,0.211c0.219,0.074,0.442,0.139,0.67,0.197
	c0.241,0.064,0.481,0.125,0.727,0.178c0.236,0.055,0.477,0.09,0.718,0.119c0.274,0.039,0.55,0.064,0.824,0.09
	c0.263,0.021,0.521,0.039,0.778,0.049c0.245,0,0.489-0.01,0.734-0.027c0.232-0.021,0.46-0.055,0.688-0.094
	c0.232-0.039,0.456-0.094,0.679-0.158c0.224-0.061,0.43-0.143,0.645-0.232c0.224-0.09,0.443-0.193,0.658-0.311
	c0.193-0.098,0.373-0.223,0.55-0.348c0.188-0.141,0.365-0.291,0.541-0.451c0.163-0.15,0.31-0.318,0.451-0.494
	c0.155-0.189,0.292-0.391,0.43-0.602c0.142-0.215,0.275-0.447,0.404-0.674c0.133-0.24,0.258-0.494,0.382-0.744
	c0.129-0.266,0.245-0.537,0.361-0.807c0.116-0.279,0.228-0.559,0.331-0.848c0.107-0.297,0.206-0.602,0.305-0.902
	c0.095-0.301,0.181-0.598,0.263-0.898c0.077-0.305,0.146-0.605,0.21-0.914c0.069-0.305,0.125-0.619,0.177-0.928
	c0.047-0.318,0.094-0.641,0.133-0.959c0.039-0.33,0.064-0.662,0.095-0.996c0.025-0.332,0.052-0.662,0.064-0.998
	c0.017-0.344,0.034-0.688,0.047-1.031c0.013-0.334,0.018-0.674,0.018-1.01c0-0.18,0-0.355,0-0.527
	c-0.009-2.334,3.282-2.342,3.291-0.014l0,0c0,0.18,0,0.361,0,0.545c0,0.375-0.004,0.752-0.017,1.131
	c-0.014,0.361-0.03,0.723-0.052,1.078c-0.018,0.369-0.039,0.74-0.069,1.109c-0.034,0.369-0.064,0.734-0.111,1.104
	c-0.043,0.365-0.095,0.73-0.154,1.092c-0.057,0.369-0.121,0.73-0.198,1.092c-0.081,0.361-0.159,0.721-0.253,1.078
	c-0.095,0.352-0.193,0.705-0.31,1.057c-0.107,0.34-0.224,0.68-0.344,1.02c-0.125,0.338-0.254,0.678-0.396,1.01
	c-0.138,0.322-0.279,0.645-0.43,0.957c-0.15,0.311-0.305,0.615-0.473,0.916s-0.34,0.598-0.533,0.885
	c-0.197,0.301-0.399,0.598-0.631,0.877c-0.241,0.291-0.494,0.576-0.778,0.834c-0.271,0.244-0.546,0.484-0.842,0.695
	c-0.306,0.215-0.614,0.416-0.945,0.588c-0.301,0.156-0.606,0.307-0.92,0.436c-0.326,0.133-0.657,0.258-0.997,0.352
	c-0.33,0.094-0.661,0.176-0.996,0.232c-0.344,0.061-0.692,0.111-1.04,0.137c-0.344,0.021-0.692,0.039-1.036,0.031
	c-0.339-0.01-0.679-0.027-1.014-0.057c-0.322-0.029-0.641-0.064-0.958-0.107c-0.335-0.043-0.671-0.09-1.001-0.168
	c-0.293-0.064-0.58-0.137-0.868-0.215c-0.288-0.076-0.571-0.158-0.851-0.254c-0.271-0.09-0.542-0.184-0.809-0.291
	c-0.244-0.107-0.485-0.215-0.726-0.34c-0.211-0.115-0.421-0.236-0.628-0.365c-0.188-0.129-0.378-0.254-0.554-0.4
	c-0.155-0.119-0.31-0.24-0.46-0.369c-0.129-0.115-0.258-0.232-0.387-0.355c-0.133-0.125-0.271-0.264-0.396-0.4
	c-0.129-0.158-0.253-0.318-0.36-0.49c-0.048-0.086-0.104-0.172-0.15-0.258c-1.101-2.049,1.8-3.605,2.904-1.555V298.613z"/>
<path id="path5957" fill="#010101" d="M303.681,283.48c0.068,0.037,0.133,0.086,0.197,0.123c0.1,0.057,0.186,0.125,0.279,0.186
	c0.1,0.064,0.193,0.129,0.293,0.193c0.099,0.061,0.201,0.125,0.305,0.18c0.138,0.078,0.271,0.156,0.404,0.232
	c0.167,0.096,0.339,0.189,0.511,0.289c0.177,0.094,0.353,0.193,0.533,0.291c0.197,0.107,0.399,0.215,0.597,0.322
	c0.207,0.111,0.417,0.215,0.623,0.318c0.224,0.115,0.447,0.223,0.666,0.326c0.25,0.121,0.494,0.232,0.744,0.348
	c0.249,0.117,0.507,0.225,0.76,0.332c0.275,0.119,0.551,0.223,0.825,0.334c0.284,0.113,0.571,0.221,0.864,0.322
	c0.301,0.107,0.609,0.207,0.91,0.301c0.301,0.096,0.602,0.178,0.907,0.258c0.292,0.07,0.589,0.125,0.885,0.172
	c0.275,0.053,0.555,0.07,0.834,0.078c0.267,0.004,0.537-0.008,0.799-0.035c0.241-0.021,0.473-0.068,0.705-0.129
	c0.21-0.047,0.417-0.133,0.618-0.219c0.193-0.086,0.379-0.197,0.555-0.309c0.189-0.121,0.369-0.25,0.541-0.387
	c0.159-0.129,0.301-0.271,0.438-0.418c0.138-0.141,0.258-0.295,0.37-0.455c0.107-0.154,0.193-0.318,0.274-0.48
	c0.091-0.182,0.168-0.369,0.232-0.562c0.077-0.211,0.142-0.422,0.197-0.641s0.099-0.439,0.138-0.666
	c0.03-0.189,0.052-0.379,0.073-0.572c0.228-2.316,3.502-1.994,3.274,0.322l0,0c-0.026,0.271-0.061,0.541-0.104,0.809
	c-0.056,0.312-0.116,0.627-0.193,0.936c-0.086,0.314-0.176,0.619-0.283,0.924c-0.116,0.314-0.241,0.633-0.396,0.934
	c-0.159,0.318-0.335,0.631-0.542,0.924c-0.206,0.279-0.416,0.559-0.666,0.807c-0.24,0.254-0.494,0.5-0.765,0.715
	s-0.55,0.416-0.838,0.602c-0.326,0.197-0.657,0.391-1.01,0.541c-0.365,0.158-0.739,0.301-1.13,0.395
	c-0.391,0.096-0.786,0.172-1.186,0.211c-0.408,0.035-0.816,0.057-1.221,0.047c-0.417-0.018-0.834-0.047-1.246-0.119
	c-0.396-0.064-0.791-0.135-1.173-0.236c-0.365-0.092-0.727-0.186-1.083-0.301c-0.34-0.107-0.684-0.221-1.019-0.34
	c-0.326-0.111-0.648-0.232-0.971-0.361c-0.306-0.121-0.606-0.24-0.907-0.369c-0.283-0.121-0.566-0.24-0.846-0.369
	c-0.263-0.121-0.524-0.242-0.787-0.365c-0.249-0.121-0.498-0.242-0.743-0.365c-0.228-0.117-0.46-0.232-0.683-0.354
	c-0.207-0.107-0.413-0.219-0.615-0.33c-0.197-0.107-0.391-0.215-0.584-0.322c-0.168-0.096-0.335-0.186-0.503-0.283
	c-0.15-0.086-0.301-0.172-0.455-0.258c-0.142-0.082-0.279-0.168-0.413-0.254c-0.107-0.064-0.21-0.139-0.317-0.207
	c-0.069-0.043-0.138-0.094-0.206-0.137c-0.073-0.047-0.159-0.104-0.181-0.111C299.981,285.082,301.691,282.268,303.681,283.48
	L303.681,283.48z"/>
<path id="path5959" fill="#010101" d="M216.866,310.963c0.095,0.025,0.189,0.061,0.284,0.094c0.146,0.053,0.292,0.117,0.434,0.182
	c0.159,0.072,0.318,0.145,0.473,0.223c0.219,0.111,0.426,0.24,0.627,0.379c0.202,0.133,0.392,0.287,0.576,0.441
	s0.356,0.318,0.528,0.486c0.15,0.15,0.301,0.291,0.451,0.438c0.177,0.168,0.344,0.344,0.512,0.516
	c0.193,0.189,0.374,0.383,0.554,0.58c0.026,0.025,0.057,0.061,0.082,0.09c1.568,1.719-0.868,3.938-2.437,2.213l0,0
	c-0.025-0.029-0.056-0.059-0.081-0.09c-0.15-0.168-0.301-0.326-0.46-0.477c-0.15-0.154-0.297-0.309-0.451-0.455
	c-0.159-0.15-0.31-0.305-0.464-0.455c-0.116-0.117-0.236-0.229-0.365-0.336c-0.095-0.082-0.189-0.158-0.297-0.232
	c-0.077-0.051-0.154-0.104-0.236-0.146c-0.116-0.059-0.232-0.111-0.348-0.166c-0.078-0.035-0.159-0.074-0.241-0.1
	c-0.038-0.018-0.09-0.035-0.146-0.051c-2.218-0.709-1.212-3.846,1.001-3.133H216.866z"/>
<path id="path5961" fill="#010101" d="M226.015,307.838c-0.048-0.059-0.077-0.094-0.112-0.133c-0.034-0.025,0.078,0.047,0.1,0.057
	c0.111,0.064,0.228,0.125,0.344,0.184c0.137,0.064,0.271,0.125,0.412,0.189c0.146,0.074,0.301,0.133,0.451,0.193
	c0.176,0.074,0.356,0.143,0.533,0.207c0.21,0.072,0.421,0.141,0.631,0.215c0.211,0.076,0.426,0.146,0.641,0.219
	c0.111,0.039,0.224,0.068,0.335,0.107c2.218,0.695,1.229,3.842-0.992,3.137l0,0c-0.125-0.039-0.254-0.078-0.378-0.121
	c-0.236-0.076-0.473-0.154-0.705-0.236c-0.215-0.076-0.43-0.15-0.641-0.223c-0.215-0.078-0.425-0.154-0.636-0.24
	c-0.206-0.086-0.412-0.168-0.614-0.262c-0.176-0.082-0.353-0.164-0.528-0.25c-0.155-0.082-0.31-0.164-0.464-0.25
	c-0.189-0.107-0.374-0.219-0.542-0.352c-0.176-0.143-0.344-0.301-0.481-0.48C221.984,307.924,224.631,305.969,226.015,307.838
	L226.015,307.838z"/>
<path id="path5963" fill="#010101" d="M376.242,239.148c0.124,0.025,0.245,0.064,0.365,0.1c0.081,0.025,0.159,0.047,0.236,0.064
	c0.107,0.025,0.21,0.043,0.317,0.064c0.125,0.025,0.258,0.039,0.383,0.055c0.176,0.021,0.348,0.035,0.524,0.053
	c0.185,0.021,0.369,0.033,0.55,0.039c0.211,0.016,0.412,0.025,0.619,0.029c0.038,0,0.077,0,0.111,0.004
	c2.329,0.057,2.243,3.348-0.082,3.287l0,0c-0.043,0-0.081,0-0.12,0c-0.24-0.008-0.477-0.018-0.713-0.029
	c-0.228-0.014-0.451-0.031-0.675-0.053c-0.202-0.016-0.399-0.037-0.598-0.059c-0.201-0.027-0.399-0.053-0.602-0.092
	c-0.167-0.029-0.339-0.064-0.507-0.102c-0.138-0.035-0.274-0.074-0.412-0.113c-0.021-0.008-0.104-0.029-0.069-0.025
	C373.294,241.898,373.965,238.676,376.242,239.148z"/>
<path id="path5965" fill="#010101" d="M374.661,243.373c0.12,0.033,0.24,0.076,0.36,0.115c0.168,0.061,0.327,0.133,0.494,0.203
	c0.159,0.064,0.318,0.129,0.478,0.193c0.223,0.086,0.438,0.18,0.648,0.283c0.215,0.104,0.426,0.211,0.636,0.322
	c0.228,0.125,0.451,0.254,0.671,0.391c0.158,0.094,0.309,0.197,0.459,0.301c1.93,1.303,0.086,4.031-1.843,2.729l0,0
	c-0.112-0.078-0.224-0.15-0.335-0.223c-0.164-0.1-0.327-0.199-0.499-0.289c-0.167-0.094-0.344-0.18-0.52-0.266
	c-0.146-0.068-0.292-0.139-0.447-0.193c-0.172-0.068-0.344-0.143-0.516-0.211c-0.111-0.047-0.228-0.1-0.344-0.143
	c-0.081-0.029-0.167-0.055-0.249-0.08C371.438,245.791,372.443,242.66,374.661,243.373L374.661,243.373z"/>
<path id="path5981" fill="#441854" d="M229.934,268.406c0,10.91-8.844,19.752-19.749,19.752l0,0
	c-10.909,0-19.753-8.842-19.753-19.752l0,0c0-10.91,8.844-19.752,19.753-19.752C221.09,248.654,229.934,257.496,229.934,268.406z"/>
<path id="path5983" fill="#FFFFFF" d="M205.136,263.801c0,3.875-3.146,7.02-7.021,7.02l0,0c-3.881,0-7.025-3.145-7.025-7.02
	c0-3.881,3.145-7.021,7.025-7.021C201.99,256.779,205.136,259.92,205.136,263.801L205.136,263.801z"/>
<path id="path5985" fill="#FFFFFF" d="M338.129,215.296c0,3.274-2.655,5.926-5.926,5.926l0,0c-3.274,0-5.925-2.651-5.925-5.926l0,0
	c0-3.27,2.65-5.925,5.925-5.925l0,0C335.474,209.372,338.129,212.027,338.129,215.296L338.129,215.296z"/>
</svg>
