<?xml version="1.0" encoding="utf-8"?>
<!-- Generator: Adobe Illustrator 16.0.0, SVG Export Plug-In . SVG Version: 6.00 Build 0)  -->
<!DOCTYPE svg PUBLIC "-//W3C//DTD SVG 1.1//EN" "http://www.w3.org/Graphics/SVG/1.1/DTD/svg11.dtd">
<svg version="1.1" id="Layer_1" xmlns="http://www.w3.org/2000/svg" xmlns:xlink="http://www.w3.org/1999/xlink" x="0px" y="0px"
	 width="404px" height="404px" viewBox="24.5 24.5 404 404" enable-background="new 24.5 24.5 404 404" xml:space="preserve">
<g>
	<path fill="#F696AF" d="M138.353,243.495c18.765,41.287,71.325,38.205,71.325,38.205h19.08h0.945h19.08
		c0,0,52.56,3.082,71.324-38.205c18.765-41.288-23.197-71.663-55.732-95.445c-24.907-18.202-33.075-31.59-36-36.72v-2.408
		c0,0,0.359,0.473,0,1.328c-0.359-0.877,0-1.328,0-1.328v2.408c-2.7,5.13-10.26,18.518-35.145,36.72
		C160.695,171.833,119.565,202.208,138.353,243.495z"/>
	<path fill="#F696AF" d="M370.058,222.39c0,0-21.69,46.709-64.237,56.722l10.012,0.833c0,0,39.218,0.832,66.735-24.188
		c27.54-25.021,45.045-16.673,45.045-16.673S400.095,215.708,370.058,222.39z"/>
	<path fill="#F696AF" d="M334.192,213.413c6.255,38.791-26.28,57.554-26.28,57.554s21.893-5.625,41.288-33.795
		c19.395-28.169,1.89-65.069-10.013-93.239c-11.88-28.147-2.497-38.79-2.497-38.79c-38.16,5.625-51.931,47.565-51.931,47.565
		S327.938,174.623,334.192,213.413z"/>
	<path fill="#F696AF" d="M390.375,299.564c0.473,0.518,0.765,0.833,0.765,0.833S390.915,300.061,390.375,299.564z"/>
	<path fill="#F696AF" d="M362.34,277.245c0,0-37.553,14.399-61.312,4.388c0,0-24.412,8.752-45.675,7.515
		c0,0,47.565,23.782,88.223,11.902c33.66-9.854,44.167-3.825,46.8-1.462C387.18,296.123,374.31,282.668,362.34,277.245z"/>
	<path fill="#F696AF" d="M368.303,214.042l2.723-4.252c25.244-26.19,8.505-75.982,8.505-75.982l-24.705,28.125
		C370.89,189.112,368.303,214.042,368.303,214.042z"/>
	<path fill="#F696AF" d="M141.885,279.112l10.013-0.833c-42.547-10.012-64.237-56.722-64.237-56.722
		c-30.038-6.683-57.555,16.694-57.555,16.694s17.527-8.348,45.045,16.673S141.885,279.112,141.885,279.112z"/>
	<path fill="#F696AF" d="M108.518,236.362c19.395,28.147,41.288,33.795,41.288,33.795s-32.513-18.765-26.28-57.577
		c6.255-38.79,49.433-60.683,49.433-60.683s-13.77-41.917-51.93-47.565c0,0,9.383,10.643-2.498,38.79
		C106.65,171.292,89.123,208.215,108.518,236.362z"/>
	<path fill="#F696AF" d="M202.388,288.293c-21.285,1.26-45.675-7.516-45.675-7.516C132.93,290.79,95.4,276.391,95.4,276.391
		c-11.947,5.422-24.84,18.877-28.012,22.319c2.632-2.362,13.14-8.393,46.8,1.462C154.822,312.075,202.388,288.293,202.388,288.293z"
		/>
	<path fill="#F696AF" d="M66.6,299.564c0,0,0.27-0.314,0.765-0.832C66.803,299.228,66.6,299.564,66.6,299.564z"/>
	<path fill="#F696AF" d="M89.438,213.21c0,0-2.61-24.93,13.455-52.11l-24.705-28.125c0,0-16.717,49.792,8.505,75.982L89.438,213.21z
		"/>
	<path fill="#64C4E8" d="M175.05,307.484c49.23-4.994,64.237,12.511,96.772,15.863c32.535,3.33,45.045-10.846,45.045-10.846
		s-19.192,8.348-60.074-5.85C215.933,292.478,175.05,307.484,175.05,307.484z"/>
	<path fill="#64C4E8" d="M158.377,314.168c-33.368,2.497-42.547-2.498-42.547-2.498s22.522,15.008,56.723,14.176
		c34.2-0.833,45.877-9.181,45.877-9.181S191.745,311.647,158.377,314.168z"/>
	<path fill="#64C4E8" d="M358.582,307.484L325.215,315C325.215,315,341.91,319.162,358.582,307.484z"/>
	<path fill="#64C4E8" d="M291.848,331.672c-25.02,4.163-60.053-4.994-60.053-4.994c-13.342-0.832-19.192,2.497-19.192,2.497
		s13.343,12.511,51.728,14.175c38.385,1.666,55.89-20.024,55.89-20.024S316.89,327.51,291.848,331.672z"/>
	<path fill="#64C4E8" d="M180.067,341.686l43.38,6.682C205.92,335.025,182.565,340.853,180.067,341.686z"/>
	<path fill="#64C4E8" d="M271.822,351.697l-30.869-0.832C240.953,350.865,255.15,362.543,271.822,351.697z"/>
</g>
</svg>
