<?xml version="1.0" encoding="utf-8"?>
<!-- Generator: Adobe Illustrator 16.0.0, SVG Export Plug-In . SVG Version: 6.00 Build 0)  -->
<!DOCTYPE svg PUBLIC "-//W3C//DTD SVG 1.1//EN" "http://www.w3.org/Graphics/SVG/1.1/DTD/svg11.dtd">
<svg version="1.1" id="Layer_1" xmlns="http://www.w3.org/2000/svg" xmlns:xlink="http://www.w3.org/1999/xlink" x="0px" y="0px"
	 width="500px" height="500px" viewBox="0 0 500 500" enable-background="new 0 0 500 500" xml:space="preserve">
<g>
	<path fill="#563E7D" d="M249.996,0.35C112.145,0.35,0,112.501,0,250.354c0,46.796,13.061,92.478,37.773,132.107l0.574-0.357
		c-0.133,0.113-0.273,0.238-0.399,0.365c44.065,70.654,122.461,117.708,211.873,117.708c19.205,0,37.871-2.239,55.824-6.341
		c-1.365-6.041-2.779-12.536-4.179-19.213l4.431,19.381c54.291-12.409,103.557-43.232,138.727-86.781
		c35.709-44.219,55.368-99.93,55.376-156.869C499.992,112.501,387.849,0.353,249.996,0.35z M58.021,355.936
		c-2.05-3.724-3.997-7.482-5.823-11.304c4.935,1.351,7.657-0.008,7.657-0.008C60.086,348.445,59.358,352.233,58.021,355.936z
		 M299.248,463.853c-6.69-32.917-12.64-66.778-12.458-70.978l14.327-0.007c-13.684-18.715-7.461-29.71-7.461-29.71
		c69.136,25.203,90.28-39.418,90.28-39.418c15.124-7.199-0.721-17.288-12.963-31.692c-12.241-14.404-6.481-58.331-13.69-77.774
		c-7.194-19.443-34.561-38.17-34.561-38.17c5.628-31.643,29.529-53.294,29.529-53.294c-36.683-4.496-73.56,39.59-73.56,39.59
		l-9.26,0.74c-8.644-12.961,0-75.62,0-75.62c-56.895,13.681-67.701,71.298-67.701,71.298
		C139.077,153.777,95.144,265.41,80.02,301.42c-9.218,21.96-23.265,29.445-32.818,31.942
		c-10.737-26.203-16.343-54.367-16.343-83.011c0-120.832,98.308-219.136,219.138-219.138
		c120.838,0.001,219.139,98.304,219.139,219.138C469.135,353.121,399.284,440.881,299.248,463.853z"/>
	<path opacity="0.5" fill="#563E7D" d="M405.228,405.41c-28.263,28.242-64.518,48.924-105.979,58.442
		c-6.69-32.917-12.64-66.778-12.458-70.978l14.327-0.007c-13.684-18.715-7.461-29.71-7.461-29.71
		c29.563,10.778,50.329,5.108,64.439-4.878L167.493,167.673C123.133,194.25,92.211,272.389,80.02,301.42
		c-9.218,21.96-23.265,29.445-32.818,31.942c-10.737-26.203-16.343-54.367-16.343-83.011c0.007-60.46,24.616-115.278,64.342-154.964
		L73.392,73.575C28.073,118.852,0,181.385,0,250.354c0,46.796,13.061,92.478,37.773,132.107l0.574-0.357
		c-0.133,0.113-0.273,0.238-0.399,0.365c44.065,70.654,122.461,117.708,211.873,117.708c19.205,0,37.871-2.239,55.824-6.341
		c-1.365-6.041-2.779-12.536-4.179-19.213l4.431,19.381c45.661-10.436,87.725-33.938,120.886-67.036L405.228,405.41z
		 M58.021,355.936c-2.05-3.724-3.997-7.482-5.823-11.304c4.935,1.351,7.657-0.008,7.657-0.008
		C60.086,348.445,59.358,352.233,58.021,355.936z"/>
	<path opacity="0.5" fill="#563E7D" d="M444.624,407.223c35.709-44.219,55.368-99.93,55.376-156.869
		c-0.008-68.355-27.598-130.371-72.216-175.547l-21.808,21.814c39.019,39.586,63.158,93.884,63.158,153.73
		c0,102.77-69.851,190.529-169.887,213.501c-6.69-32.917-12.64-66.778-12.458-70.978l14.327-0.007
		c-13.684-18.715-7.461-29.71-7.461-29.71c69.136,25.203,90.28-39.418,90.28-39.418c15.124-7.199-0.721-17.288-12.963-31.692
		c-12.241-14.404-6.481-58.331-13.69-77.774c-5.956-16.106-25.749-31.711-32.37-36.596L74.483,428.108
		c45.067,44.535,106.973,72.068,175.338,72.068c19.205,0,37.871-2.239,55.824-6.341c-1.365-6.041-2.779-12.536-4.179-19.213
		l4.431,19.381C360.188,481.595,409.454,450.771,444.624,407.223z"/>
</g>
</svg>
