<?xml version="1.0" encoding="utf-8"?>
<!-- Generator: Adobe Illustrator 16.0.0, SVG Export Plug-In . SVG Version: 6.00 Build 0)  -->
<!DOCTYPE svg PUBLIC "-//W3C//DTD SVG 1.1//EN" "http://www.w3.org/Graphics/SVG/1.1/DTD/svg11.dtd">
<svg version="1.1" id="Layer_1" xmlns="http://www.w3.org/2000/svg" xmlns:xlink="http://www.w3.org/1999/xlink" x="0px" y="0px"
	 width="406px" height="406px" viewBox="24.5 24.5 406 406" enable-background="new 24.5 24.5 406 406" xml:space="preserve">
<g>
	<path fill="#619F42" d="M175.072,334.62c-4.23,9.09-7.177,10.845-8.527,11.114c4.567,0.091,26.37-0.562,25.605-19.664
		C192.15,326.092,181.058,321.817,175.072,334.62z"/>
	<path fill="#619F42" d="M166.545,345.734c-0.54,0-0.855-0.021-0.855-0.021S165.982,345.848,166.545,345.734z"/>
	<path fill="#619F42" d="M191.295,318.397c0,0-12.802-30.712-44.37-33.277c-31.567-2.565-32.422-14.513-32.422-14.513
		S116.19,324.383,191.295,318.397z"/>
	<path fill="#619F42" d="M79.425,105.3c-2.835,0-3.825,1.643-3.825,4.5v296.685c0,2.836,0.99,5.041,3.825,5.041h82.013
		c2.835,0,5.152-2.791,5.152-5.625c0-2.836-2.317-5.625-5.152-5.625c0,0-69.188,0-77.513,0v-286.65h6.503
		c-2.61-2.7-5.198-5.4-7.718-8.325H79.425z"/>
	<path fill="#619F42" d="M351,400.275H240.795c-5.963-5.4-27.9-35.258-27.9-72.766c0-18.675,5.445-39.285,21.038-60.728
		c0.675-0.923,0.989-1.845,0.989-2.902c0-1.598-0.742-3.104-2.114-4.095c-2.295-1.688-5.535-1.125-7.2,1.17
		c-55.732,76.635,8.37,148.23,9.045,148.928c0.968,1.08,2.363,1.643,3.803,1.643H355.5c2.835,0,3.825-2.205,3.825-5.041V331.29
		c-2.7,0.788-5.4,1.598-8.325,2.34V400.275z"/>
	<path fill="#FFAD8A" d="M194.535,191.857c-1.395-12.06-0.18-25.672,5.377-40.657c-10.755-15.12-24.165-26.978-38.475-36.248
		c-5.985-3.87-12.105-7.29-18.27-10.305c-5.603-2.745-11.228-5.175-16.763-7.312c-37.688-14.513-71.842-15.66-71.842-15.66
		s12.893,4.568,28.17,22.973c2.52,3.038,5.107,6.458,7.718,10.305c9.833,14.467,19.912,34.853,27.72,63.45
		c22.478,82.192,105.435,76.275,105.435,76.275c0.225-2.295,0.382-4.545,0.54-6.773C214.2,238.522,197.685,219.172,194.535,191.857z
		"/>
	<path fill="#FFAD8A" d="M40.23,72.63c-4.725,0-8.527,3.825-8.527,8.527c0,4.703,3.825,8.528,8.527,8.528s8.527-3.825,8.527-8.528
		C48.757,76.455,44.955,72.63,40.23,72.63z"/>
	<path fill="#FF9C96" d="M204.953,41.895c4.702,0,8.527-3.825,8.527-8.527c0-4.703-3.825-8.528-8.527-8.528
		c-4.703,0-8.528,3.825-8.528,8.528C196.402,38.07,200.228,41.895,204.953,41.895z"/>
	<path fill="#FF9C96" d="M235.26,231.547c0.811-20.137,8.145-47.429,37.485-66.397c0.112-18.022-4.095-35.01-10.372-50.22
		c-1.463-3.533-3.038-6.975-4.681-10.305c-1.53-3.105-3.128-6.098-4.792-9.022c-17.551-30.96-40.388-50.828-40.388-50.828
		s10.215,16.74,4.882,51.3c-0.428,2.722-0.968,5.58-1.575,8.527c-0.697,3.308-1.53,6.728-2.542,10.305
		c-2.52,9.113-6.052,19.125-10.867,30.06c-0.923,2.093-1.755,4.14-2.52,6.188c-5.558,14.985-6.75,28.575-5.377,40.658
		c3.15,27.315,19.665,46.665,29.61,56.047c4.477,4.208,7.605,6.436,7.605,6.436c1.53-1.529,2.993-3.082,4.41-4.612
		C235.508,245.07,234.967,238.77,235.26,231.547z"/>
	<path fill="#F58FAA" d="M317.543,221.445c22.409-24.255,30.42-55.89,32.782-81.81c1.282-14.04,0.899-26.392,0.247-34.987
		c-0.359-4.657-0.787-8.19-1.08-10.305c-0.202-1.417-0.337-2.205-0.337-2.205s-0.112,0.787-0.495,2.228
		c-0.562,2.137-1.732,5.692-4.095,10.305c-1.553,3.038-3.601,6.502-6.346,10.305c-9.18,12.825-25.965,29.362-56.587,45.022
		c-3.195,1.643-6.143,3.397-8.933,5.197c-29.362,18.968-36.698,46.26-37.485,66.397c-0.293,7.223,0.248,13.523,0.9,18.158
		c0.742,5.287,1.643,8.438,1.643,8.438c2.227-0.248,4.432-0.54,6.57-0.855c1.799-2.879,4.162-6.277,7.154-9.854
		C263.25,233.438,284.422,216.99,317.543,221.445z"/>
	<path fill="#F58FAA" d="M351.742,89.685c4.726,0,8.527-3.825,8.527-8.528c0-4.702-3.824-8.527-8.527-8.527
		c-4.725,0-8.527,3.825-8.527,8.527C343.192,85.86,347.018,89.685,351.742,89.685z"/>
	<path fill="#DE93CF" d="M360.652,226.643c-3.263,0-6.683-0.09-10.305-0.338c-7.763-0.518-16.402-1.687-25.965-3.712
		c-2.34-0.495-4.59-0.855-6.817-1.17c-33.12-4.455-54.293,11.993-66.016,26.01c-2.992,3.577-5.378,6.997-7.155,9.854
		c-2.947,4.703-4.342,7.943-4.342,7.943c1.935,1.236,3.824,2.407,5.737,3.51c5.985-1.891,14.58-3.735,24.255-3.285
		c12.803,0.607,27.495,5.311,40.635,19.395c14.715-1.439,27.99-6.322,39.668-12.938c3.6-2.024,7.02-4.229,10.305-6.524
		c4.995-3.487,9.607-7.223,13.86-11.048c21.555-19.35,33.457-40.657,33.457-40.657s-9.697,9.09-32.962,12.015
		C370.71,226.305,365.918,226.62,360.652,226.643z"/>
	<path fill="#DE93CF" d="M417.442,199.777c-4.702,0-8.527,3.825-8.527,8.528c0,4.702,3.825,8.527,8.527,8.527
		s8.527-3.825,8.527-8.527C425.992,203.603,422.168,199.777,417.442,199.777z"/>
	<path fill="#56C0E7" d="M384.165,317.564c-4.702,0-8.527,3.826-8.527,8.527c0,4.726,3.825,8.528,8.527,8.528
		s8.527-3.825,8.527-8.528C392.692,321.367,388.867,317.564,384.165,317.564z"/>
	<path fill="#56C0E7" d="M270.045,265.478c-9.697-0.473-18.27,1.396-24.255,3.285c-5.468,1.71-8.774,3.442-8.774,3.442
		c22.297,68.13,80.707,67.68,113.332,61.425c3.825-0.72,7.29-1.552,10.305-2.34c7.808-2.048,12.578-3.938,12.578-3.938
		s-2.881,0.202-7.898-0.968c-1.395-0.314-2.97-0.765-4.68-1.327c-2.992-0.99-6.457-2.431-10.305-4.478
		c-9.968-5.311-22.5-14.76-36.09-31.59c-1.17-1.463-2.386-2.812-3.578-4.117C297.54,270.787,282.848,266.085,270.045,265.478z"/>
</g>
</svg>
