<?xml version="1.0" encoding="utf-8"?>
<!-- Generator: Adobe Illustrator 16.0.0, SVG Export Plug-In . SVG Version: 6.00 Build 0)  -->
<!DOCTYPE svg PUBLIC "-//W3C//DTD SVG 1.1//EN" "http://www.w3.org/Graphics/SVG/1.1/DTD/svg11.dtd">
<svg version="1.1" id="Layer_1" xmlns="http://www.w3.org/2000/svg" xmlns:xlink="http://www.w3.org/1999/xlink" x="0px" y="0px"
	 width="256px" height="256px" viewBox="0 0 256 256" enable-background="new 0 0 256 256" xml:space="preserve">
<g transform="translate(0.000000,256.000000) scale(0.100000,-0.100000)">
	<path fill="#F7941E" d="M1435.996,2387.998C1407.002,2372.002,1315,2150,1295.996,2050c-17.998-95-21.997-103.999-56.997-128.999
		c-30-22.002-41.001-23.003-207.998-26.001c-270-2.998-361.001-26.001-376.001-93.999c-8.999-43.999,56.001-241.001,115-343.999
		L798.999,1405l-66.997-11.001c-83.003-13.999-110-3.999-179.004,68.999C456.001,1566.001,386.001,1715,338.999,1920
		C325,1980,325,1981.001,315,2055c-20,136.001-127.998,153.999-175,28.999c-17.998-51.001-20-71.997-16.001-212.998
		c7.002-273.999,73.999-462.002,225-630.005c17.002-17.998,31.001-35,31.001-36.992c0-2.002-27.998-57.002-61.001-121.006
		c-60-113.994-92.998-167.998-211.001-338.994C43.999,650.996,8.999,565.996,5,495.996c-3.999-57.998,7.998-88.994,48.999-133.994
		c75-81.006,207.002-57.998,218.003,37.998C277.998,449.004,405,524.004,586.001,584.004c61.997,20,141.997,50,178.999,65
		c37.002,15.996,75,26.992,83.999,23.994c8.999-2.002,38.003-47.998,65-102.002C965,467.002,1032.998,372.002,1077.002,342.998
		c55.996-37.002,200.996-22.002,225.996,22.998C1310,377.998,1320,369.004,1350,327.002c20.996-29.004,57.998-67.002,82.002-82.998
		C1469.004,219.004,1485,215,1540,215c82.002,0,132.002,22.998,155,72.002c19.004,38.994,14.004,72.002-15.996,115
		c-16.006,22.002-20,40.996-18.008,93.994c5,148.008,42.002,277.002,103.008,357.002c23.994,31.006,30.996,34.004,82.998,36.006
		C1960,892.998,2100,907.998,2204.004,925c82.998,14.004,180,42.002,235,67.998c25,12.002,61.992,37.998,82.998,59.004L2560,1090
		v114.004v114.995L2529.004,1340c-40,28.999-106.006,21.001-152.002-18.999c-30-26.001-37.002-28.003-107.002-23.999
		c-40.996,1.997-77.998,6.997-82.002,10.996c-3.994,4.004-0.996,27.002,6.006,52.002c15,50,21.992,53.999,130,62.998
		c78.994,7.002,105.996,24.004,97.998,63.003c-2.002,13.999-11.006,27.998-17.998,31.001c-8.008,2.998-14.004,20-14.004,38.999
		c0,21.001-7.002,37.998-20,46.997c-10.996,8.003-17.002,16.001-14.004,20c10,10-5.996,46.001-25,56.001
		c-16.992,10-90.996-5-106.992-21.997c-12.002-11.001-24.004-8.003-24.004,6.997c0,7.002-17.998,40-40,72.002
		c-64.004,96.001-164.004,192.998-247.998,240C1867.998,2000,1855,2015,1830.996,2065c-35,72.002-135,176.001-247.998,257.002
		C1490,2388.999,1460.996,2402.002,1435.996,2387.998z"/>
</g>
</svg>
