<?xml version="1.0" encoding="utf-8"?>
<!-- Generator: Adobe Illustrator 16.0.0, SVG Export Plug-In . SVG Version: 6.00 Build 0)  -->
<!DOCTYPE svg PUBLIC "-//W3C//DTD SVG 1.1//EN" "http://www.w3.org/Graphics/SVG/1.1/DTD/svg11.dtd">
<svg version="1.1" id="Capa_1" xmlns="http://www.w3.org/2000/svg" xmlns:xlink="http://www.w3.org/1999/xlink" x="0px" y="0px"
	 width="400px" height="400px" viewBox="0 0 400 400" enable-background="new 0 0 400 400" xml:space="preserve">
<g>
	<g>
		<path fill="#EA0038" d="M165.075,187.378c0.554-0.069,13.68-1.617,22.057-1.617c2.941,0,5.004,0.185,6.513,0.631l6.891-3.795
			c0.615-0.339,1.309-0.508,1.986-0.508c0.877,0,1.763,0,2.486,0.555c0.069,0.046,6.252,4.373,12.426,4.373l0.508-0.585
			c0.062,0,0.115,0,0.17,0c0.861,0,1.709,0.847,2.402,1.355c0.646,0.47,50.387,36.445,116.257,65.292
			c0.185-2.94,0.446-5.843,0.446-8.822c0-74.077-60.057-134.126-134.133-134.126c-71.537,0-129.823,56.054-133.742,126.613
			c33.104-15.028,64.692-31.318,94.132-48.825C163.958,187.632,164.505,187.447,165.075,187.378z"/>
		<path fill="#010002" d="M336.532,257.59c-67.71-29.255-118.421-65.908-118.421-65.908c-0.224,0.008-0.455,0.015-0.686,0.015
			c-7.729,0-14.912-5.504-14.912-5.504l-9.107,4.997c0.2-0.985-2.525-1.324-6.329-1.324c-8.23,0-21.61,1.586-21.61,1.586
			c-32.535,19.338-65.254,35.868-96.38,49.911c-14.096,6.359-27.892,12.271-41.142,17.6c4.265,2.641,7.937,4.865,8.776,4.865
			C38.809,263.826,0,282.742,0,282.742l31.072-9.547v2.764v1.401l24.266-4.858l25.306-5.981l-23.781,16.221l39.132-16.221
			l7.776,8.075l22.973-24.305l-3.441,20.833l17.376-9.731c0,0-26.368,27.777-24.289,28.463c0.023,0.016,0.054,0.016,0.092,0.016
			c2.925,0,40.172-27.084,40.172-27.084s-15.397,20.824-11.518,22.226c0.324,0.107,0.955,0.161,1.84,0.161
			c9.823,0,51.735-6.998,71.467-21.01c6.759-4.796,12.024-6.443,16.044-6.443c8.792,0,11.717,7.845,11.717,7.845l31.935,16.66
			l-13.195-12.141c0,0,2.163-0.192,5.458-0.192c6.574,0,17.691,0.777,25.09,5.396c2.063,1.285,3.356,1.809,4.096,1.809
			c3.287,0-4.096-10.139-4.096-10.139s51.366,17.354,56.932,18.054c0.154,0.015,0.27,0.03,0.393,0.03
			c4.012,0-16.359-11.832-16.359-11.832l33.32,6.251l29.986,2.972c0.076-0.678,0.169-1.355,0.238-2.033
			C377.936,274.195,356.51,266.213,336.532,257.59z"/>
	</g>
</g>
</svg>
