<?xml version="1.0" encoding="utf-8"?>
<!-- Generator: Adobe Illustrator 16.0.0, SVG Export Plug-In . SVG Version: 6.00 Build 0)  -->
<!DOCTYPE svg PUBLIC "-//W3C//DTD SVG 1.1//EN" "http://www.w3.org/Graphics/SVG/1.1/DTD/svg11.dtd">
<svg version="1.1" id="Layer_1" xmlns="http://www.w3.org/2000/svg" xmlns:xlink="http://www.w3.org/1999/xlink" x="0px" y="0px"
	 width="500px" height="500px" viewBox="-25 -25 500 500" enable-background="new -25 -25 500 500" xml:space="preserve">
<g>
	<path fill="#228BF2" d="M299.163,73.023c0,0,81.428-96.627,121.598-95.542c40.172,1.085,34.743,175.883,13.028,201.939
		C413.161,206.564,298.078,84.965,299.163,73.023 M151.508,73.023c0,0-80.341-96.627-120.512-95.542
		c-40.17,1.085-34.742,175.882-13.028,201.939C37.51,206.564,152.594,86.051,151.508,73.023"/>
	<path fill="#228BF2" d="M472.875,280.393c0,118.342-110.74,193.255-248.625,193.255c-136.797,0-248.625-74.913-248.625-192.17
		c0-118.34,110.741-221.483,248.625-221.483C361.049,59.995,472.875,163.136,472.875,280.393"/>
</g>
</svg>
