<?xml version="1.0" encoding="utf-8"?>
<!-- Generator: Adobe Illustrator 16.0.0, SVG Export Plug-In . SVG Version: 6.00 Build 0)  -->
<!DOCTYPE svg PUBLIC "-//W3C//DTD SVG 1.1//EN" "http://www.w3.org/Graphics/SVG/1.1/DTD/svg11.dtd">
<svg version="1.1" id="Layer_1" xmlns="http://www.w3.org/2000/svg" xmlns:xlink="http://www.w3.org/1999/xlink" x="0px" y="0px"
	 width="500px" height="500px" viewBox="0 0 500 500" enable-background="new 0 0 500 500" xml:space="preserve">
<g>
	<path fill="#563E7D" d="M249.978,3.303C111.883,3.303-0.052,115.234-0.052,253.332c0,48.502,13.862,93.767,37.77,132.103
		c10.362-9.233,22.802-23.436,21.954-37.905c0,0-8.659,4.332-23.087-10.108c0,0,28.14,2.893,43.291-33.177
		c15.146-36.074,59.154-147.899,121.926-142.846c0,0,10.822-57.724,67.814-71.427c0,0-8.655,62.76,0,75.746l9.273-0.736
		c0,0,36.949-44.162,73.693-39.657c0,0-23.944,21.685-29.579,53.379c0,0,27.408,18.768,34.628,38.238
		c7.213,19.486,1.443,63.486,13.711,77.918c12.262,14.433,28.128,24.534,12.983,31.751c0,0-21.187,64.732-90.44,39.479
		c0,0-6.238,11.016,7.474,29.772h-14.354c-0.245,5.539,10.161,62.546,18.888,101.131c111.15-25.404,194.109-124.816,194.109-243.671
		C500.001,115.234,388.057,3.303,249.978,3.303z"/>
	<path opacity="0.5" fill="#563E7D" d="M169.171,169.275L74.834,74.948C28.636,120.318-0.052,183.463-0.052,253.332
		c0,48.502,13.862,93.767,37.77,132.103c10.362-9.233,22.802-23.436,21.954-37.905c0,0-8.659,4.332-23.087-10.108
		c0,0,28.14,2.893,43.291-33.177C92.235,274.799,123.839,194.899,169.171,169.275z"/>
	<path opacity="0.5" fill="#563E7D" d="M359.976,360.08c-14.147,10.699-35.387,17.198-66.091,6.009c0,0-6.238,11.016,7.474,29.772
		h-14.354c-0.245,5.539,10.161,62.546,18.888,101.131c47.348-10.818,89.545-35.103,122.421-68.564L359.976,360.08z"/>
	<path opacity="0.5" fill="#563E7D" d="M500.001,253.321c0-68.217-27.352-130.023-71.649-175.128L325.81,180.74
		c7.172,5.354,26.02,20.54,31.821,36.201c7.213,19.486,1.443,63.486,13.711,77.918c12.262,14.433,28.128,24.534,12.983,31.751
		c0,0-21.187,64.732-90.44,39.479c0,0-6.238,11.016,7.474,29.772h-14.354c-0.245,5.539,10.161,62.546,18.888,101.131
		C417.042,471.588,500.001,372.176,500.001,253.321z"/>
</g>
</svg>
