<?xml version="1.0" encoding="utf-8"?>
<!-- Generator: Adobe Illustrator 16.0.0, SVG Export Plug-In . SVG Version: 6.00 Build 0)  -->
<!DOCTYPE svg PUBLIC "-//W3C//DTD SVG 1.1//EN" "http://www.w3.org/Graphics/SVG/1.1/DTD/svg11.dtd">
<svg version="1.1" id="Layer_1" xmlns="http://www.w3.org/2000/svg" xmlns:xlink="http://www.w3.org/1999/xlink" x="0px" y="0px"
	 width="455px" height="455px" viewBox="0 0 455 455" enable-background="new 0 0 455 455" xml:space="preserve">
<g>
	<path fill="#ED1C81" d="M361.719,350.978c7.979-16.549,12.021-33.9,12.021-51.578c0-16.189-2.84-32.01-8.439-47.023
		c-5.414-14.508-13.254-27.891-23.305-39.78c-1.395-1.65-2.832-3.259-4.299-4.836c0.084,2.201,0.139,4.411,0.139,6.633
		c0,93.253-75.596,168.845-168.844,168.845C75.742,383.238,0,299.858,0,206.605c0,125.597,101.815,227.414,227.41,227.414
		c9.584,0,19.112-0.893,28.479-2.58c26.697-5.471,52.383-18.412,73.219-37.325C343.049,381.46,354.021,366.946,361.719,350.978z"/>
	<path fill="#49463F" d="M149.481,361.95l54.85-51.248l-54.85-50.422c-49.995-8.936-87.943-52.641-87.943-105.204
		c0-59.031,56.056-107.185,115.083-107.185c-87.364,0-158.188,70.823-158.188,158.187C18.433,284.188,75.048,349.081,149.481,361.95
		z"/>
	<path fill="#49463F" d="M454.818,226.074C454.818,113.784,373.428,20.5,266.426,2l-78.854,73.671l78.854,72.482
		c71.869,12.853,126.424,75.679,126.424,151.246c0,84.859-80.584,154.086-165.44,154.086
		C353.004,453.485,454.818,351.673,454.818,226.074z"/>
</g>
</svg>
